<svg width="60.03173705508786" height="60.02401631514489" viewBox="-1.8010577744840144,-1.800655387848236,3.6019042233052714,3.6014409789086934" xmlns="http://www.w3.org/2000/svg" style="background: #FFFFFF">
	<polygon fill="#555555"  points="0.9693500296906798,-0.24211298269152662 0.7484210782552276,-0.6630388265590614 0.35472772683455944,-0.9347105631364072 -0.11848477128992692,-0.992218633304454 -0.5645348137272629,-0.8248160463572453 -0.8822836208352018,-0.47082470582845126 -1.0006443050901475,-0.009212191582456007 -0.8906707905900445,0.4555234405732675 -0.5785088675228532,0.8161538164157152 -0.1352875155131346,0.9916613986569197 0.3383333602867799,0.9397781818286418 0.7358131712830946,0.6760275951381942 0.9650935308998623,0.2594936818068051 1.499652173047169,0.09965592804118789 1.500687763545818,1.500292012389055 -1.500899089208575,1.500665509484733 -1.5005254968677462,-1.5005353062725115 1.5005459611112386,-1.4997068899519261 1.4999949776095476,-0.10038690781542461 "/>
	<line stroke="#000000" stroke-width="0.025"  x1="1.499652173047169" y1="0.09965592804118789" x2="1.4999949776095476" y2="-0.10038690781542461"/>
	<line stroke="#000000" stroke-width="0.025"  x1="1.499652173047169" y1="0.09965592804118789" x2="0.9693500296906798" y2="-0.24211298269152662"/>
	<line stroke="#000000" stroke-width="0.025"  x1="1.499652173047169" y1="0.09965592804118789" x2="-0.5645348137272629" y2="-0.8248160463572453"/>
	<line stroke="#000000" stroke-width="0.025"  x1="1.499652173047169" y1="0.09965592804118789" x2="-0.8822836208352018" y2="-0.47082470582845126"/>
	<line stroke="#000000" stroke-width="0.025"  x1="1.499652173047169" y1="0.09965592804118789" x2="-1.0006443050901475" y2="-0.009212191582456007"/>
	<line stroke="#000000" stroke-width="0.025"  x1="1.499652173047169" y1="0.09965592804118789" x2="-0.8906707905900445" y2="0.4555234405732675"/>
	<line stroke="#000000" stroke-width="0.025"  x1="1.499652173047169" y1="0.09965592804118789" x2="0.9650935308998623" y2="0.2594936818068051"/>
	<line stroke="#000000" stroke-width="0.025"  x1="1.499652173047169" y1="0.09965592804118789" x2="1.500687763545818" y2="1.500292012389055"/>
	<line stroke="#000000" stroke-width="0.025"  x1="0.9693500296906798" y1="-0.24211298269152662" x2="1.4999949776095476" y2="-0.10038690781542461"/>
	<line stroke="#000000" stroke-width="0.025"  x1="0.9693500296906798" y1="-0.24211298269152662" x2="0.7484210782552276" y2="-0.6630388265590614"/>
	<line stroke="#000000" stroke-width="0.025"  x1="0.9693500296906798" y1="-0.24211298269152662" x2="0.35472772683455944" y2="-0.9347105631364072"/>
	<line stroke="#000000" stroke-width="0.025"  x1="0.9693500296906798" y1="-0.24211298269152662" x2="-0.11848477128992692" y2="-0.992218633304454"/>
	<line stroke="#000000" stroke-width="0.025"  x1="0.9693500296906798" y1="-0.24211298269152662" x2="-0.5645348137272629" y2="-0.8248160463572453"/>
	<line stroke="#000000" stroke-width="0.025"  x1="0.9693500296906798" y1="-0.24211298269152662" x2="-0.8822836208352018" y2="-0.47082470582845126"/>
	<line stroke="#000000" stroke-width="0.025"  x1="0.9693500296906798" y1="-0.24211298269152662" x2="-1.0006443050901475" y2="-0.009212191582456007"/>
	<line stroke="#000000" stroke-width="0.025"  x1="0.9693500296906798" y1="-0.24211298269152662" x2="-0.8906707905900445" y2="0.4555234405732675"/>
	<line stroke="#000000" stroke-width="0.025"  x1="0.9693500296906798" y1="-0.24211298269152662" x2="-0.5785088675228532" y2="0.8161538164157152"/>
	<line stroke="#000000" stroke-width="0.025"  x1="0.9693500296906798" y1="-0.24211298269152662" x2="-0.1352875155131346" y2="0.9916613986569197"/>
	<line stroke="#000000" stroke-width="0.025"  x1="0.9693500296906798" y1="-0.24211298269152662" x2="0.3383333602867799" y2="0.9397781818286418"/>
	<line stroke="#000000" stroke-width="0.025"  x1="0.9693500296906798" y1="-0.24211298269152662" x2="0.7358131712830946" y2="0.6760275951381942"/>
	<line stroke="#000000" stroke-width="0.025"  x1="0.9693500296906798" y1="-0.24211298269152662" x2="0.9650935308998623" y2="0.2594936818068051"/>
	<line stroke="#000000" stroke-width="0.025"  x1="-1.5005254968677462" y1="-1.5005353062725115" x2="-1.500899089208575" y2="1.500665509484733"/>
	<line stroke="#000000" stroke-width="0.025"  x1="-1.5005254968677462" y1="-1.5005353062725115" x2="1.5005459611112386" y2="-1.4997068899519261"/>
	<line stroke="#000000" stroke-width="0.025"  x1="0.9650935308998623" y1="0.2594936818068051" x2="1.4999949776095476" y2="-0.10038690781542461"/>
	<line stroke="#000000" stroke-width="0.025"  x1="0.9650935308998623" y1="0.2594936818068051" x2="0.7484210782552276" y2="-0.6630388265590614"/>
	<line stroke="#000000" stroke-width="0.025"  x1="0.9650935308998623" y1="0.2594936818068051" x2="0.35472772683455944" y2="-0.9347105631364072"/>
	<line stroke="#000000" stroke-width="0.025"  x1="0.9650935308998623" y1="0.2594936818068051" x2="-0.11848477128992692" y2="-0.992218633304454"/>
	<line stroke="#000000" stroke-width="0.025"  x1="0.9650935308998623" y1="0.2594936818068051" x2="-0.5645348137272629" y2="-0.8248160463572453"/>
	<line stroke="#000000" stroke-width="0.025"  x1="0.9650935308998623" y1="0.2594936818068051" x2="-0.8822836208352018" y2="-0.47082470582845126"/>
	<line stroke="#000000" stroke-width="0.025"  x1="0.9650935308998623" y1="0.2594936818068051" x2="-1.0006443050901475" y2="-0.009212191582456007"/>
	<line stroke="#000000" stroke-width="0.025"  x1="0.9650935308998623" y1="0.2594936818068051" x2="-0.8906707905900445" y2="0.4555234405732675"/>
	<line stroke="#000000" stroke-width="0.025"  x1="0.9650935308998623" y1="0.2594936818068051" x2="-0.5785088675228532" y2="0.8161538164157152"/>
	<line stroke="#000000" stroke-width="0.025"  x1="0.9650935308998623" y1="0.2594936818068051" x2="-0.1352875155131346" y2="0.9916613986569197"/>
	<line stroke="#000000" stroke-width="0.025"  x1="0.9650935308998623" y1="0.2594936818068051" x2="0.3383333602867799" y2="0.9397781818286418"/>
	<line stroke="#000000" stroke-width="0.025"  x1="0.9650935308998623" y1="0.2594936818068051" x2="0.7358131712830946" y2="0.6760275951381942"/>
	<line stroke="#000000" stroke-width="0.025"  x1="0.7358131712830946" y1="0.6760275951381942" x2="0.7484210782552276" y2="-0.6630388265590614"/>
	<line stroke="#000000" stroke-width="0.025"  x1="0.7358131712830946" y1="0.6760275951381942" x2="0.35472772683455944" y2="-0.9347105631364072"/>
	<line stroke="#000000" stroke-width="0.025"  x1="0.7358131712830946" y1="0.6760275951381942" x2="-0.11848477128992692" y2="-0.992218633304454"/>
	<line stroke="#000000" stroke-width="0.025"  x1="0.7358131712830946" y1="0.6760275951381942" x2="-0.5645348137272629" y2="-0.8248160463572453"/>
	<line stroke="#000000" stroke-width="0.025"  x1="0.7358131712830946" y1="0.6760275951381942" x2="-0.8822836208352018" y2="-0.47082470582845126"/>
	<line stroke="#000000" stroke-width="0.025"  x1="0.7358131712830946" y1="0.6760275951381942" x2="-1.0006443050901475" y2="-0.009212191582456007"/>
	<line stroke="#000000" stroke-width="0.025"  x1="0.7358131712830946" y1="0.6760275951381942" x2="-0.8906707905900445" y2="0.4555234405732675"/>
	<line stroke="#000000" stroke-width="0.025"  x1="0.7358131712830946" y1="0.6760275951381942" x2="-0.5785088675228532" y2="0.8161538164157152"/>
	<line stroke="#000000" stroke-width="0.025"  x1="0.7358131712830946" y1="0.6760275951381942" x2="-0.1352875155131346" y2="0.9916613986569197"/>
	<line stroke="#000000" stroke-width="0.025"  x1="0.7358131712830946" y1="0.6760275951381942" x2="0.3383333602867799" y2="0.9397781818286418"/>
	<line stroke="#000000" stroke-width="0.025"  x1="-0.11848477128992692" y1="-0.992218633304454" x2="0.7484210782552276" y2="-0.6630388265590614"/>
	<line stroke="#000000" stroke-width="0.025"  x1="-0.11848477128992692" y1="-0.992218633304454" x2="0.35472772683455944" y2="-0.9347105631364072"/>
	<line stroke="#000000" stroke-width="0.025"  x1="-0.11848477128992692" y1="-0.992218633304454" x2="-0.5645348137272629" y2="-0.8248160463572453"/>
	<line stroke="#000000" stroke-width="0.025"  x1="-0.11848477128992692" y1="-0.992218633304454" x2="-0.8822836208352018" y2="-0.47082470582845126"/>
	<line stroke="#000000" stroke-width="0.025"  x1="-0.11848477128992692" y1="-0.992218633304454" x2="-1.0006443050901475" y2="-0.009212191582456007"/>
	<line stroke="#000000" stroke-width="0.025"  x1="-0.11848477128992692" y1="-0.992218633304454" x2="-0.8906707905900445" y2="0.4555234405732675"/>
	<line stroke="#000000" stroke-width="0.025"  x1="-0.11848477128992692" y1="-0.992218633304454" x2="-0.5785088675228532" y2="0.8161538164157152"/>
	<line stroke="#000000" stroke-width="0.025"  x1="-0.11848477128992692" y1="-0.992218633304454" x2="-0.1352875155131346" y2="0.9916613986569197"/>
	<line stroke="#000000" stroke-width="0.025"  x1="-0.11848477128992692" y1="-0.992218633304454" x2="0.3383333602867799" y2="0.9397781818286418"/>
	<line stroke="#000000" stroke-width="0.025"  x1="1.5005459611112386" y1="-1.4997068899519261" x2="1.4999949776095476" y2="-0.10038690781542461"/>
	<line stroke="#000000" stroke-width="0.025"  x1="1.5005459611112386" y1="-1.4997068899519261" x2="1.500687763545818" y2="1.500292012389055"/>
	<line stroke="#000000" stroke-width="0.025"  x1="0.35472772683455944" y1="-0.9347105631364072" x2="0.7484210782552276" y2="-0.6630388265590614"/>
	<line stroke="#000000" stroke-width="0.025"  x1="0.35472772683455944" y1="-0.9347105631364072" x2="-0.5645348137272629" y2="-0.8248160463572453"/>
	<line stroke="#000000" stroke-width="0.025"  x1="0.35472772683455944" y1="-0.9347105631364072" x2="-0.8822836208352018" y2="-0.47082470582845126"/>
	<line stroke="#000000" stroke-width="0.025"  x1="0.35472772683455944" y1="-0.9347105631364072" x2="-1.0006443050901475" y2="-0.009212191582456007"/>
	<line stroke="#000000" stroke-width="0.025"  x1="0.35472772683455944" y1="-0.9347105631364072" x2="-0.8906707905900445" y2="0.4555234405732675"/>
	<line stroke="#000000" stroke-width="0.025"  x1="0.35472772683455944" y1="-0.9347105631364072" x2="-0.5785088675228532" y2="0.8161538164157152"/>
	<line stroke="#000000" stroke-width="0.025"  x1="0.35472772683455944" y1="-0.9347105631364072" x2="-0.1352875155131346" y2="0.9916613986569197"/>
	<line stroke="#000000" stroke-width="0.025"  x1="0.35472772683455944" y1="-0.9347105631364072" x2="0.3383333602867799" y2="0.9397781818286418"/>
	<line stroke="#000000" stroke-width="0.025"  x1="-1.0006443050901475" y1="-0.009212191582456007" x2="1.4999949776095476" y2="-0.10038690781542461"/>
	<line stroke="#000000" stroke-width="0.025"  x1="-1.0006443050901475" y1="-0.009212191582456007" x2="0.7484210782552276" y2="-0.6630388265590614"/>
	<line stroke="#000000" stroke-width="0.025"  x1="-1.0006443050901475" y1="-0.009212191582456007" x2="-0.5645348137272629" y2="-0.8248160463572453"/>
	<line stroke="#000000" stroke-width="0.025"  x1="-1.0006443050901475" y1="-0.009212191582456007" x2="-0.8822836208352018" y2="-0.47082470582845126"/>
	<line stroke="#000000" stroke-width="0.025"  x1="-1.0006443050901475" y1="-0.009212191582456007" x2="-0.8906707905900445" y2="0.4555234405732675"/>
	<line stroke="#000000" stroke-width="0.025"  x1="-1.0006443050901475" y1="-0.009212191582456007" x2="-0.5785088675228532" y2="0.8161538164157152"/>
	<line stroke="#000000" stroke-width="0.025"  x1="-1.0006443050901475" y1="-0.009212191582456007" x2="-0.1352875155131346" y2="0.9916613986569197"/>
	<line stroke="#000000" stroke-width="0.025"  x1="-1.0006443050901475" y1="-0.009212191582456007" x2="0.3383333602867799" y2="0.9397781818286418"/>
	<line stroke="#000000" stroke-width="0.025"  x1="0.7484210782552276" y1="-0.6630388265590614" x2="-0.5645348137272629" y2="-0.8248160463572453"/>
	<line stroke="#000000" stroke-width="0.025"  x1="0.7484210782552276" y1="-0.6630388265590614" x2="-0.8822836208352018" y2="-0.47082470582845126"/>
	<line stroke="#000000" stroke-width="0.025"  x1="0.7484210782552276" y1="-0.6630388265590614" x2="-0.8906707905900445" y2="0.4555234405732675"/>
	<line stroke="#000000" stroke-width="0.025"  x1="0.7484210782552276" y1="-0.6630388265590614" x2="-0.5785088675228532" y2="0.8161538164157152"/>
	<line stroke="#000000" stroke-width="0.025"  x1="0.7484210782552276" y1="-0.6630388265590614" x2="-0.1352875155131346" y2="0.9916613986569197"/>
	<line stroke="#000000" stroke-width="0.025"  x1="0.7484210782552276" y1="-0.6630388265590614" x2="0.3383333602867799" y2="0.9397781818286418"/>
	<line stroke="#000000" stroke-width="0.025"  x1="-0.5645348137272629" y1="-0.8248160463572453" x2="-0.8822836208352018" y2="-0.47082470582845126"/>
	<line stroke="#000000" stroke-width="0.025"  x1="-0.5645348137272629" y1="-0.8248160463572453" x2="-0.8906707905900445" y2="0.4555234405732675"/>
	<line stroke="#000000" stroke-width="0.025"  x1="-0.5645348137272629" y1="-0.8248160463572453" x2="-0.5785088675228532" y2="0.8161538164157152"/>
	<line stroke="#000000" stroke-width="0.025"  x1="-0.5645348137272629" y1="-0.8248160463572453" x2="-0.1352875155131346" y2="0.9916613986569197"/>
	<line stroke="#000000" stroke-width="0.025"  x1="-0.5645348137272629" y1="-0.8248160463572453" x2="0.3383333602867799" y2="0.9397781818286418"/>
	<line stroke="#000000" stroke-width="0.025"  x1="-0.5785088675228532" y1="0.8161538164157152" x2="1.4999949776095476" y2="-0.10038690781542461"/>
	<line stroke="#000000" stroke-width="0.025"  x1="-0.5785088675228532" y1="0.8161538164157152" x2="-0.8822836208352018" y2="-0.47082470582845126"/>
	<line stroke="#000000" stroke-width="0.025"  x1="-0.5785088675228532" y1="0.8161538164157152" x2="-0.8906707905900445" y2="0.4555234405732675"/>
	<line stroke="#000000" stroke-width="0.025"  x1="-0.5785088675228532" y1="0.8161538164157152" x2="-0.1352875155131346" y2="0.9916613986569197"/>
	<line stroke="#000000" stroke-width="0.025"  x1="-0.5785088675228532" y1="0.8161538164157152" x2="0.3383333602867799" y2="0.9397781818286418"/>
	<line stroke="#000000" stroke-width="0.025"  x1="0.3383333602867799" y1="0.9397781818286418" x2="-0.8822836208352018" y2="-0.47082470582845126"/>
	<line stroke="#000000" stroke-width="0.025"  x1="0.3383333602867799" y1="0.9397781818286418" x2="-0.8906707905900445" y2="0.4555234405732675"/>
	<line stroke="#000000" stroke-width="0.025"  x1="0.3383333602867799" y1="0.9397781818286418" x2="-0.1352875155131346" y2="0.9916613986569197"/>
	<line stroke="#000000" stroke-width="0.025"  x1="-0.8822836208352018" y1="-0.47082470582845126" x2="1.4999949776095476" y2="-0.10038690781542461"/>
	<line stroke="#000000" stroke-width="0.025"  x1="-0.8822836208352018" y1="-0.47082470582845126" x2="-0.8906707905900445" y2="0.4555234405732675"/>
	<line stroke="#000000" stroke-width="0.025"  x1="-0.8822836208352018" y1="-0.47082470582845126" x2="-0.1352875155131346" y2="0.9916613986569197"/>
	<line stroke="#000000" stroke-width="0.025"  x1="1.4999949776095476" y1="-0.10038690781542461" x2="-0.8906707905900445" y2="0.4555234405732675"/>
	<line stroke="#000000" stroke-width="0.025"  x1="1.4999949776095476" y1="-0.10038690781542461" x2="-0.1352875155131346" y2="0.9916613986569197"/>
	<line stroke="#000000" stroke-width="0.025"  x1="1.4999949776095476" y1="-0.10038690781542461" x2="1.500687763545818" y2="1.500292012389055"/>
	<line stroke="#000000" stroke-width="0.025"  x1="-0.8906707905900445" y1="0.4555234405732675" x2="-0.1352875155131346" y2="0.9916613986569197"/>
	<line stroke="#000000" stroke-width="0.025"  x1="1.500687763545818" y1="1.500292012389055" x2="-1.500899089208575" y2="1.500665509484733"/>
</svg>
