<svg width="13172.662528997513" height="17684.40167926751" viewBox="-16.791508138175608,-44.43766285666779,790.3597517398507,1061.0641007560507" xmlns="http://www.w3.org/2000/svg" style="background: ">
	<line fill="none" stroke="gray" stroke-width="1"  x1="383.98390511799727" y1="850.2970624146623" x2="390.0835057325068" y2="791.4251569393816"/>
	<line fill="none" stroke="gray" stroke-width="1"  x1="172.24086693522577" y1="110.65259506549468" x2="176.64271908052547" y2="97.80144083202691"/>
	<line fill="none" stroke="gray" stroke-width="1"  x1="371.6608980149877" y1="46.86047205088653" x2="426.06695193107333" y2="74.74033742763153"/>
	<line fill="none" stroke="gray" stroke-width="1"  x1="692.205439239436" y1="545.6487612458595" x2="644" y2="727"/>
	<line fill="none" stroke="gray" stroke-width="1"  x1="668.2977278741334" y1="267.66417051159203" x2="676.5809403817038" y2="335.7502873177456"/>
	<line fill="none" stroke="gray" stroke-width="1"  x1="469.4233253621284" y1="93.29347303526714" x2="531.0060058472487" y2="142.67991688857288"/>
	<line fill="none" stroke="gray" stroke-width="1"  x1="139.0859703347241" y1="501.3818805750987" x2="115.92196325902184" y2="454.06316091264006"/>
	<line fill="none" stroke="gray" stroke-width="1"  x1="79.33368743156569" y1="610.6803535960984" x2="72.09754293538207" y2="598.4704447829354"/>
	<line fill="none" stroke="gray" stroke-width="1"  x1="504.7366741184468" y1="461.3143841916624" x2="493.01560086051893" y2="491.5443213495307"/>
	<line fill="none" stroke="gray" stroke-width="1"  x1="481.8794216020056" y1="64.14332549358318" x2="557.2238334807969" y2="175.27012956531354"/>
	<line fill="none" stroke="gray" stroke-width="1"  x1="148.99016434309743" y1="167.73823660154088" x2="210.97258919842506" y2="109.25633771853944"/>
	<line fill="none" stroke="gray" stroke-width="1"  x1="516.6545831687763" y1="87.56893766103987" x2="561.5385001505626" y2="178.99475832376024"/>
	<line fill="none" stroke="gray" stroke-width="1"  x1="644.5994308310605" y1="241.17015147891183" x2="664.3296472366444" y2="296.07394920919114"/>
	<line fill="none" stroke="gray" stroke-width="1"  x1="78.34098214319462" y1="299.21594164102487" x2="121.56352404873007" y2="233.8736617294759"/>
	<line fill="none" stroke="gray" stroke-width="1"  x1="280.4922958965226" y1="856.1777078041188" x2="227.9479179057521" y2="790.6404811275631"/>
	<line fill="none" stroke="gray" stroke-width="1"  x1="401.1079488110003" y1="424.73657362285917" x2="466.5206619489843" y2="462.89622961714707"/>
	<line fill="none" stroke="gray" stroke-width="1"  x1="208.36209217069242" y1="838.8821509574469" x2="209.1674750072884" y2="777.4953309439309"/>
	<line fill="none" stroke="gray" stroke-width="1"  x1="310.0923615661225" y1="869.1386675703495" x2="269.3357878458659" y2="830.9379411625702"/>
	<line fill="none" stroke="gray" stroke-width="1"  x1="183.21244441057405" y1="720.6185903274876" x2="161.13807103347165" y2="664.0212766931681"/>
	<line fill="none" stroke="gray" stroke-width="1"  x1="211.42786345781653" y1="815.9024419061294" x2="209.1674750072884" y2="777.4953309439309"/>
	<line fill="none" stroke="gray" stroke-width="1"  x1="516.6435493050686" y1="879.2946829517658" x2="486.4262901390081" y2="864.2076735973877"/>
	<line fill="none" stroke="gray" stroke-width="1"  x1="245.55363738340532" y1="211.71970670344058" x2="244.40940129953844" y2="135.5318814643758"/>
	<line fill="none" stroke="gray" stroke-width="1"  x1="563.8676638049839" y1="896.572442691772" x2="536.8761921688389" y2="883.3504683993077"/>
	<line fill="none" stroke="gray" stroke-width="1"  x1="118.21388436531548" y1="266.4131845185729" x2="170.54330509984436" y2="211.59564930664538"/>
	<line fill="none" stroke="gray" stroke-width="1"  x1="302.559308367961" y1="48.311760426205225" x2="362.0683531419868" y2="50.297026514761434"/>
	<line fill="none" stroke="gray" stroke-width="1"  x1="126.48770482424885" y1="544.4988845868045" x2="115.92196325902184" y2="454.06316091264006"/>
	<line fill="none" stroke="gray" stroke-width="1"  x1="532.6875161621958" y1="77.98246250975714" x2="562.1367488785925" y2="137.26642843181494"/>
	<line fill="none" stroke="gray" stroke-width="1"  x1="484.6699896728768" y1="900.7730801945571" x2="407.9870091293023" y2="861.0362739579944"/>
	<line fill="none" stroke="gray" stroke-width="1"  x1="210.97258919842506" y1="109.25633771853944" x2="255.56557446815873" y2="68.66377022925305"/>
	<line fill="none" stroke="gray" stroke-width="1"  x1="130.92590880842783" y1="224.50858746039358" x2="170.54330509984436" y2="211.59564930664538"/>
	<line fill="none" stroke="gray" stroke-width="1"  x1="561.5385001505626" y1="178.99475832376024" x2="612.5653813991767" y2="249.5520589522435"/>
	<line fill="none" stroke="gray" stroke-width="1"  x1="159.02835175856873" y1="503.9555930451061" x2="161.25997277602212" y2="475.1852316860602"/>
	<line fill="none" stroke="gray" stroke-width="1"  x1="132.59814577768546" y1="705.3543438113734" x2="127.23774207044684" y2="642.9465034714964"/>
	<line fill="none" stroke="gray" stroke-width="1"  x1="474.38337312590545" y1="859.9506327359604" x2="425.8493569351032" y2="847.2635525455861"/>
	<line fill="none" stroke="gray" stroke-width="1"  x1="116.82145614966498" y1="234.9762913125138" x2="170.54330509984436" y2="211.59564930664538"/>
	<line fill="none" stroke="gray" stroke-width="1"  x1="122.15851043892476" y1="285.2435774384048" x2="183.63115120795538" y2="244.26717063003096"/>
	<line fill="none" stroke="gray" stroke-width="1"  x1="115.19632100683913" y1="543.7732737828143" x2="115.92196325902184" y2="454.06316091264006"/>
	<line fill="none" stroke="gray" stroke-width="1"  x1="595.6551206985538" y1="428.00757497910774" x2="632.1024367081911" y2="496.18644639149704"/>
	<line fill="none" stroke="gray" stroke-width="1"  x1="409.47610969089595" y1="786.1370186353618" x2="397.4595123746634" y2="771.115757326986"/>
	<line fill="none" stroke="gray" stroke-width="1"  x1="106.40115637890506" y1="678.4462176723639" x2="91.34664701227692" y2="625.520810254072"/>
	<line fill="none" stroke="gray" stroke-width="1"  x1="692.0446060802061" y1="432.1020506651091" x2="688.7680737343399" y2="522.3269919604584"/>
	<line fill="none" stroke="gray" stroke-width="1"  x1="132.41633656522842" y1="741.2587541297979" x2="130.80937393242965" y2="714.571182382498"/>
	<line fill="none" stroke="gray" stroke-width="1"  x1="522.6494678182353" y1="455.9823700198455" x2="494.4034085022449" y2="526.678316017146"/>
	<line fill="none" stroke="gray" stroke-width="1"  x1="131.77682818220765" y1="701.3093526339785" x2="127.23774207044684" y2="642.9465034714964"/>
	<line fill="none" stroke="gray" stroke-width="1"  x1="466.5206619489843" y1="462.89622961714707" x2="494.4034085022449" y2="526.678316017146"/>
	<line fill="none" stroke="gray" stroke-width="1"  x1="641.480797441113" y1="281.41404291343855" x2="676.5809403817038" y2="335.7502873177456"/>
	<line fill="none" stroke="gray" stroke-width="1"  x1="51.685980718815955" y1="531.6748849791568" x2="77.63526142316822" y2="443.9752111871902"/>
	<line fill="none" stroke="gray" stroke-width="1"  x1="538.7854380530724" y1="137.7914440504663" x2="568.8650702993025" y2="187.8128953769729"/>
	<line fill="none" stroke="gray" stroke-width="1"  x1="210.3311524610082" y1="542.9626888853068" x2="169.2658432750932" y2="503.5685660567571"/>
	<line fill="none" stroke="gray" stroke-width="1"  x1="109.35082501019234" y1="240.05155268170685" x2="170.54330509984436" y2="211.59564930664538"/>
	<line fill="none" stroke="gray" stroke-width="1"  x1="682.5733660758451" y1="574.2804397349049" x2="650.3796503758635" y2="666.1721735828969"/>
	<line fill="none" stroke="gray" stroke-width="1"  x1="568.2322142286424" y1="141.11579449427157" x2="590.3886458857486" y2="172.02022252351352"/>
	<line fill="none" stroke="gray" stroke-width="1"  x1="639.3863105098029" y1="627.5968914252163" x2="650.3796503758635" y2="666.1721735828969"/>
	<line fill="none" stroke="gray" stroke-width="1"  x1="316.3904220374122" y1="641.4750154954525" x2="269.82882934805394" y2="583.4064666973089"/>
	<line fill="none" stroke="gray" stroke-width="1"  x1="618.1149971674097" y1="633.2503539547442" x2="615.8447112116021" y2="638.904318012631"/>
	<line fill="none" stroke="gray" stroke-width="1"  x1="121.56352404873007" y1="233.8736617294759" x2="146.4884375164723" y2="217.70368507222975"/>
	<line fill="none" stroke="gray" stroke-width="1"  x1="220.1690938055752" y1="834.6724256650796" x2="209.1674750072884" y2="777.4953309439309"/>
	<line fill="none" stroke="gray" stroke-width="1"  x1="143.3131687213078" y1="517.0254886911248" x2="115.92196325902184" y2="454.06316091264006"/>
	<line fill="none" stroke="gray" stroke-width="1"  x1="57.39683590430522" y1="449.58374805937086" x2="61.62621090304626" y2="439.96618794259336"/>
	<line fill="none" stroke="gray" stroke-width="1"  x1="463.0236324899238" y1="844.6458179983389" x2="425.8493569351032" y2="847.2635525455861"/>
	<line fill="none" stroke="gray" stroke-width="1"  x1="281.96852666386786" y1="70.11275469852808" x2="327.07012521283735" y2="50.40789535401865"/>
	<line fill="none" stroke="gray" stroke-width="1"  x1="192.09366877485922" y1="116.6087338994357" x2="255.56557446815873" y2="68.66377022925305"/>
	<line fill="none" stroke="gray" stroke-width="1"  x1="490.1954053093126" y1="504.67561088789967" x2="494.4034085022449" y2="526.678316017146"/>
	<line fill="none" stroke="gray" stroke-width="1"  x1="170.54330509984436" y1="211.59564930664538" x2="173.17872982875568" y2="206.03587012746738"/>
	<line fill="none" stroke="gray" stroke-width="1"  x1="497.74975534435055" y1="350.43455502066234" x2="506.3825111379426" y2="385.762132517379"/>
	<line fill="none" stroke="gray" stroke-width="1"  x1="681.5103908282023" y1="558.5210486961078" x2="677.0830515518403" y2="565.7818617357709"/>
	<line fill="none" stroke="gray" stroke-width="1"  x1="367.58089058836623" y1="682.8370912763007" x2="311.8450874631697" y2="635.0189461227109"/>
	<line fill="none" stroke="gray" stroke-width="1"  x1="123.11869155780462" y1="260.86489465363263" x2="170.54330509984436" y2="211.59564930664538"/>
	<line fill="none" stroke="gray" stroke-width="1"  x1="176.64271908052547" y1="97.80144083202691" x2="255.56557446815873" y2="68.66377022925305"/>
	<line fill="none" stroke="gray" stroke-width="1"  x1="122.6366678318838" y1="670.0810871315256" x2="122.55044038379444" y2="588.3373896453327"/>
	<line fill="none" stroke="gray" stroke-width="1"  x1="430.93964242367645" y1="85.03238588319992" x2="464.50116470506833" y2="94.16572451680122"/>
	<line fill="none" stroke="gray" stroke-width="1"  x1="115.85000240484167" y1="168.4017298989786" x2="148.99016434309743" y2="167.73823660154088"/>
	<line fill="none" stroke="gray" stroke-width="1"  x1="192.49262369364445" y1="811.68834479957" x2="132.59814577768546" y2="705.3543438113734"/>
	<line fill="none" stroke="gray" stroke-width="1"  x1="437.51470362602623" y1="845.8858327578597" x2="390.0835057325068" y2="791.4251569393816"/>
	<line fill="none" stroke="gray" stroke-width="1"  x1="127.23774207044684" y1="642.9465034714964" x2="122.55044038379444" y2="588.3373896453327"/>
	<line fill="none" stroke="gray" stroke-width="1"  x1="87.87627880300143" y1="515.081972405822" x2="88.33184938526016" y2="510.31461707936137"/>
	<line fill="none" stroke="gray" stroke-width="1"  x1="113.66036181363759" y1="405.5432328766371" x2="103.79934471176539" y2="318.6865357732556"/>
	<line fill="none" stroke="gray" stroke-width="1"  x1="654.5305337598725" y1="646.5094524906705" x2="644" y2="727"/>
	<line fill="none" stroke="gray" stroke-width="1"  x1="682.9793938971816" y1="454.88814367216503" x2="688.7680737343399" y2="522.3269919604584"/>
	<line fill="none" stroke="gray" stroke-width="1"  x1="500.4141830660253" y1="452.72682827930316" x2="493.01560086051893" y2="491.5443213495307"/>
	<line fill="none" stroke="gray" stroke-width="1"  x1="347.2532337966671" y1="169.41762123219235" x2="324.9647119565216" y2="180.6489637193514"/>
	<line fill="none" stroke="gray" stroke-width="1"  x1="557.2238334807969" y1="175.27012956531354" x2="676.5809403817038" y2="335.7502873177456"/>
	<line fill="none" stroke="gray" stroke-width="1"  x1="500.6403196156413" y1="237.14861075205962" x2="466.7520964380538" y2="244.4101641892035"/>
	<line fill="none" stroke="gray" stroke-width="1"  x1="584.1204258860506" y1="885.9361208179132" x2="516.6435493050686" y2="879.2946829517658"/>
	<line fill="none" stroke="gray" stroke-width="1"  x1="633.3967395746047" y1="625.5434972789393" x2="650.3796503758635" y2="666.1721735828969"/>
	<line fill="none" stroke="gray" stroke-width="1"  x1="292.15056492331445" y1="85.80894623981969" x2="362.0683531419868" y2="50.297026514761434"/>
	<line fill="none" stroke="gray" stroke-width="1"  x1="152.8242735855295" y1="678.3384734028107" x2="134.42986628854615" y2="617.876294645344"/>
	<line fill="none" stroke="gray" stroke-width="1"  x1="707.7049309566876" y1="706.4989606059663" x2="644" y2="727"/>
	<line fill="none" stroke="gray" stroke-width="1"  x1="291.43742567669733" y1="601.912324514256" x2="269.82882934805394" y2="583.4064666973089"/>
	<line fill="none" stroke="gray" stroke-width="1"  x1="610.7861181176377" y1="420.26704045299397" x2="642.2548504861155" y2="454.4550494776077"/>
	<line fill="none" stroke="gray" stroke-width="1"  x1="92.92393776820369" y1="600.3315372710189" x2="107.42381328037804" y2="567.8527376310069"/>
	<line fill="none" stroke="gray" stroke-width="1"  x1="91.34664701227692" y1="625.520810254072" x2="88.33184938526016" y2="510.31461707936137"/>
	<line fill="none" stroke="gray" stroke-width="1"  x1="183.37209401986004" y1="510.5207237556926" x2="161.25997277602212" y2="475.1852316860602"/>
	<line fill="none" stroke="gray" stroke-width="1"  x1="122.55044038379444" y1="588.3373896453327" x2="115.19632100683913" y2="543.7732737828143"/>
	<line fill="none" stroke="gray" stroke-width="1"  x1="304.18023306546155" y1="882.1257777546131" x2="269.3357878458659" y2="830.9379411625702"/>
	<line fill="none" stroke="gray" stroke-width="1"  x1="362.905589284823" y1="748.9388317919223" x2="353.8444435040921" y2="704.9570027231271"/>
	<line fill="none" stroke="gray" stroke-width="1"  x1="621.5363086625733" y1="255.20738873398886" x2="676.5809403817038" y2="335.7502873177456"/>
	<line fill="none" stroke="gray" stroke-width="1"  x1="688.7680737343399" y1="522.3269919604584" x2="692.205439239436" y2="545.6487612458595"/>
	<line fill="none" stroke="gray" stroke-width="1"  x1="615.7821903718981" y1="408.91113081636684" x2="642.2548504861155" y2="454.4550494776077"/>
	<line fill="none" stroke="gray" stroke-width="1"  x1="95.74662452467595" y1="390.6594084064019" x2="123.93620789073364" y2="309.3055210706744"/>
	<line fill="none" stroke="gray" stroke-width="1"  x1="521.5991064840259" y1="526.1100357414285" x2="552.5473866472448" y2="589.490627543898"/>
	<line fill="none" stroke="gray" stroke-width="1"  x1="378.3799047547928" y1="787.163352288076" x2="390.0835057325068" y2="791.4251569393816"/>
	<line fill="none" stroke="gray" stroke-width="1"  x1="363.5974911825092" y1="813.9612982894787" x2="390.0835057325068" y2="791.4251569393816"/>
	<line fill="none" stroke="gray" stroke-width="1"  x1="233.37407448270167" y1="816.1732985917013" x2="209.1674750072884" y2="777.4953309439309"/>
	<line fill="none" stroke="gray" stroke-width="1"  x1="173.17872982875568" y1="206.03587012746738" x2="225.1377763550143" y2="138.26485858457028"/>
	<line fill="none" stroke="gray" stroke-width="1"  x1="466.7520964380538" y1="244.4101641892035" x2="399.1328972633879" y2="160.5801411160013"/>
	<line fill="none" stroke="gray" stroke-width="1"  x1="169.2658432750932" y1="503.5685660567571" x2="145.70574084802956" y2="436.47670589660754"/>
	<line fill="none" stroke="gray" stroke-width="1"  x1="327.07012521283735" y1="50.40789535401865" x2="362.0683531419868" y2="50.297026514761434"/>
	<line fill="none" stroke="gray" stroke-width="1"  x1="616.3181805818671" y1="860.5973973400462" x2="561.9601203937328" y2="837.5000652502242"/>
	<line fill="none" stroke="gray" stroke-width="1"  x1="561.9601203937328" y1="837.5000652502242" x2="516.0955385893782" y2="857.1232868955634"/>
	<line fill="none" stroke="gray" stroke-width="1"  x1="605.4433480322649" y1="166.49073969201848" x2="636.565737121893" y2="225.3949536819148"/>
	<line fill="none" stroke="gray" stroke-width="1"  x1="422.1547235483588" y1="787.4927863825916" x2="397.4595123746634" y2="771.115757326986"/>
	<line fill="none" stroke="gray" stroke-width="1"  x1="704.735774636175" y1="564.0512171290713" x2="699.6012642617369" y2="638.4508852410133"/>
	<line fill="none" stroke="gray" stroke-width="1"  x1="323.4043236662764" y1="155.11497810718006" x2="293.532877023669" y2="190.90010168080795"/>
	<line fill="none" stroke="gray" stroke-width="1"  x1="509.10871126425644" y1="480.7424423941633" x2="494.4034085022449" y2="526.678316017146"/>
	<line fill="none" stroke="gray" stroke-width="1"  x1="213.06492461151925" y1="838.8791150128676" x2="209.1674750072884" y2="777.4953309439309"/>
	<line fill="none" stroke="gray" stroke-width="1"  x1="495.58323492824195" y1="208.1071006183109" x2="466.7520964380538" y2="244.4101641892035"/>
	<line fill="none" stroke="gray" stroke-width="1"  x1="225.1377763550143" y1="138.26485858457028" x2="256.11986929897506" y2="125.5237653894648"/>
	<line fill="none" stroke="gray" stroke-width="1"  x1="676.5809403817038" y1="335.7502873177456" x2="692.205439239436" y2="545.6487612458595"/>
	<line fill="none" stroke="gray" stroke-width="1"  x1="332.1492231161318" y1="834.2178798772836" x2="299.7531180463626" y2="834.6295773160642"/>
	<line fill="none" stroke="gray" stroke-width="1"  x1="134.42986628854615" y1="617.876294645344" x2="126.48770482424885" y2="544.4988845868045"/>
	<line fill="none" stroke="gray" stroke-width="1"  x1="486.4262901390081" y1="864.2076735973877" x2="407.9870091293023" y2="861.0362739579944"/>
	<line fill="none" stroke="gray" stroke-width="1"  x1="68.04605039943625" y1="398.64965891742656" x2="78.57636585420256" y2="360.86445862215265"/>
	<line fill="none" stroke="gray" stroke-width="1"  x1="506.3825111379426" y1="385.762132517379" x2="500.4141830660253" y2="452.72682827930316"/>
	<line fill="none" stroke="gray" stroke-width="1"  x1="115.92196325902184" y1="454.06316091264006" x2="104.80134132342818" y2="402.02361459328984"/>
	<line fill="none" stroke="gray" stroke-width="1"  x1="372.24766973848153" y1="712.7149745110838" x2="352.11122625634675" y2="684.9242441260019"/>
	<line fill="none" stroke="gray" stroke-width="1"  x1="183.63115120795538" y1="244.26717063003096" x2="281.96852666386786" y2="70.11275469852808"/>
	<line fill="none" stroke="gray" stroke-width="1"  x1="593.6988210610999" y1="220.4828538454916" x2="612.5653813991767" y2="249.5520589522435"/>
	<line fill="none" stroke="gray" stroke-width="1"  x1="531.0060058472487" y1="142.67991688857288" x2="557.2238334807969" y2="175.27012956531354"/>
	<line fill="none" stroke="gray" stroke-width="1"  x1="207.6684056644799" y1="544.9318507646517" x2="169.2658432750932" y2="503.5685660567571"/>
	<line fill="none" stroke="gray" stroke-width="1"  x1="145.70574084802956" y1="436.47670589660754" x2="113.66036181363759" y2="405.5432328766371"/>
	<line fill="none" stroke="gray" stroke-width="1"  x1="414.92875014629567" y1="409.9496796474094" x2="466.5206619489843" y2="462.89622961714707"/>
	<line fill="none" stroke="gray" stroke-width="1"  x1="293.532877023669" y1="190.90010168080795" x2="249.2900778315358" y2="191.76128232577165"/>
	<line fill="none" stroke="gray" stroke-width="1"  x1="161.13807103347165" y1="664.0212766931681" x2="134.42986628854615" y2="617.876294645344"/>
	<line fill="none" stroke="gray" stroke-width="1"  x1="416.1468560137111" y1="78.98763022469753" x2="464.50116470506833" y2="94.16572451680122"/>
	<line fill="none" stroke="gray" stroke-width="1"  x1="471.5151198573985" y1="462.7312153255362" x2="494.4034085022449" y2="526.678316017146"/>
	<line fill="none" stroke="gray" stroke-width="1"  x1="650.3796503758635" y1="666.1721735828969" x2="644" y2="727"/>
	<line fill="none" stroke="gray" stroke-width="1"  x1="292.6670764094386" y1="231.63229257363756" x2="249.2900778315358" y2="191.76128232577165"/>
	<line fill="none" stroke="gray" stroke-width="1"  x1="71.37407668548929" y1="563.3557292398602" x2="82.6828761171705" y2="475.02557307371427"/>
	<line fill="none" stroke="gray" stroke-width="1"  x1="638" y1="748" x2="563.2155707038743" y2="826.8116816756337"/>
	<line fill="none" stroke="gray" stroke-width="1"  x1="456.84088924653906" y1="440.23690083178985" x2="466.5206619489843" y2="462.89622961714707"/>
	<line fill="none" stroke="gray" stroke-width="1"  x1="65.54887970103175" y1="313.00231355604797" x2="122.64789250288702" y2="301.9177473848447"/>
	<line fill="none" stroke="gray" stroke-width="1"  x1="488.7102622370042" y1="928.2044295030454" x2="450.5562041341551" y2="887.4634038626396"/>
	<line fill="none" stroke="gray" stroke-width="1"  x1="311.8450874631697" y1="635.0189461227109" x2="269.82882934805394" y2="583.4064666973089"/>
	<line fill="none" stroke="gray" stroke-width="1"  x1="209.1674750072884" y1="777.4953309439309" x2="183.21244441057405" y2="720.6185903274876"/>
	<line fill="none" stroke="gray" stroke-width="1"  x1="227.9479179057521" y1="790.6404811275631" x2="190.74715946486887" y2="717.5194318802743"/>
	<line fill="none" stroke="gray" stroke-width="1"  x1="269.82882934805394" y1="583.4064666973089" x2="210.3311524610082" y2="542.9626888853068"/>
	<line fill="none" stroke="gray" stroke-width="1"  x1="78.54088074529687" y1="293.9698610917768" x2="121.56352404873007" y2="233.8736617294759"/>
	<line fill="none" stroke="gray" stroke-width="1"  x1="103.35692574037384" y1="305.5043218114454" x2="122.64789250288702" y2="301.9177473848447"/>
	<line fill="none" stroke="gray" stroke-width="1"  x1="104.80134132342818" y1="402.02361459328984" x2="107.173864404992" y2="311.204149072287"/>
	<line fill="none" stroke="gray" stroke-width="1"  x1="552.5473866472448" y1="589.490627543898" x2="615.8447112116021" y2="638.904318012631"/>
	<line fill="none" stroke="gray" stroke-width="1"  x1="399.1328972633879" y1="160.5801411160013" x2="324.9647119565216" y2="180.6489637193514"/>
	<line fill="none" stroke="gray" stroke-width="1"  x1="562.1367488785925" y1="137.26642843181494" x2="576.1122820381198" y2="166.16108170941914"/>
	<line fill="none" stroke="gray" stroke-width="1"  x1="103.79934471176539" y1="318.6865357732556" x2="122.64789250288702" y2="301.9177473848447"/>
	<line fill="none" stroke="gray" stroke-width="1"  x1="523.1437945999508" y1="106.10971287333416" x2="561.5385001505626" y2="178.99475832376024"/>
	<line fill="none" stroke="gray" stroke-width="1"  x1="78.57636585420256" y1="360.86445862215265" x2="122.64789250288702" y2="301.9177473848447"/>
	<line fill="none" stroke="gray" stroke-width="1"  x1="519.1120904386287" y1="124.8842495989842" x2="557.2238334807969" y2="175.27012956531354"/>
	<line fill="none" stroke="gray" stroke-width="1"  x1="496.6649652353755" y1="141.25830815718265" x2="557.2238334807969" y2="175.27012956531354"/>
	<line fill="none" stroke="gray" stroke-width="1"  x1="699.6012642617369" y1="638.4508852410133" x2="644" y2="727"/>
	<line fill="none" stroke="gray" stroke-width="1"  x1="385.8286771312689" y1="869.591295266831" x2="390.0835057325068" y2="791.4251569393816"/>
	<line fill="none" stroke="gray" stroke-width="1"  x1="669.7934969785874" y1="727.3618846178842" x2="644" y2="727"/>
	<line fill="none" stroke="gray" stroke-width="1"  x1="459.3447619567638" y1="412.8838106753255" x2="492.72964803741115" y2="482.1737494626321"/>
	<line fill="none" stroke="gray" stroke-width="1"  x1="536.8761921688389" y1="883.3504683993077" x2="486.4262901390081" y2="864.2076735973877"/>
	<line fill="none" stroke="gray" stroke-width="1"  x1="168.97761872342176" y1="776.8658654134399" x2="166.93648715393698" y2="738.3868359924538"/>
	<line fill="none" stroke="gray" stroke-width="1"  x1="78.76718021810753" y1="320.69817055922994" x2="122.64789250288702" y2="301.9177473848447"/>
	<line fill="none" stroke="gray" stroke-width="1"  x1="599.7986904664389" y1="216.66229361060837" x2="641.480797441113" y2="281.41404291343855"/>
	<line fill="none" stroke="gray" stroke-width="1"  x1="531.4898713880258" y1="135.80201213743632" x2="568.8650702993025" y2="187.8128953769729"/>
	<line fill="none" stroke="gray" stroke-width="1"  x1="192.51562655463974" y1="519.1971480791108" x2="161.25997277602212" y2="475.1852316860602"/>
	<line fill="none" stroke="gray" stroke-width="1"  x1="167.47072405267417" y1="717.5440879381193" x2="152.8242735855295" y2="678.3384734028107"/>
	<line fill="none" stroke="gray" stroke-width="1"  x1="474.11889183627403" y1="108.42370727852264" x2="531.0060058472487" y2="142.67991688857288"/>
	<line fill="none" stroke="gray" stroke-width="1"  x1="67.84466418673985" y1="478.20290340675183" x2="90.02363480657053" y2="408.59067892396183"/>
	<line fill="none" stroke="gray" stroke-width="1"  x1="65.3946759176699" y1="538.4104989127385" x2="82.6828761171705" y2="475.02557307371427"/>
	<line fill="none" stroke="gray" stroke-width="1"  x1="468.48941516639377" y1="380.88918553753393" x2="471.5151198573985" y2="462.7312153255362"/>
	<line fill="none" stroke="gray" stroke-width="1"  x1="103.71919095343844" y1="505.9429877077077" x2="99.92359232737451" y2="483.74446362534354"/>
	<line fill="none" stroke="gray" stroke-width="1"  x1="72.51911915513077" y1="372.88027241673785" x2="80.7242976081067" y2="356.15040333527804"/>
	<line fill="none" stroke="gray" stroke-width="1"  x1="544.8518949863969" y1="890.7865903358924" x2="486.4262901390081" y2="864.2076735973877"/>
	<line fill="none" stroke="gray" stroke-width="1"  x1="450.5562041341551" y1="887.4634038626396" x2="383.98390511799727" y2="850.2970624146623"/>
	<line fill="none" stroke="gray" stroke-width="1"  x1="590.3886458857486" y1="172.02022252351352" x2="613.5274955784332" y2="232.69806095390555"/>
	<line fill="none" stroke="gray" stroke-width="1"  x1="613.5274955784332" y1="232.69806095390555" x2="641.480797441113" y2="281.41404291343855"/>
	<line fill="none" stroke="gray" stroke-width="1"  x1="479.2409694025782" y1="61.79411204061" x2="531.4898713880258" y2="135.80201213743632"/>
	<line fill="none" stroke="gray" stroke-width="1"  x1="606.0153414207639" y1="405.8699746847036" x2="642.2548504861155" y2="454.4550494776077"/>
	<line fill="none" stroke="gray" stroke-width="1"  x1="606.3074264965946" y1="185.85590292909333" x2="644.5994308310605" y2="241.17015147891183"/>
	<line fill="none" stroke="gray" stroke-width="1"  x1="205.55133341458733" y1="513.6153130857771" x2="169.2658432750932" y2="503.5685660567571"/>
	<line fill="none" stroke="gray" stroke-width="1"  x1="642.2548504861155" y1="454.4550494776077" x2="665.9218949051738" y2="524.4794948741888"/>
	<line fill="none" stroke="gray" stroke-width="1"  x1="56.73542849677095" y1="502.0471261933368" x2="77.63526142316822" y2="443.9752111871902"/>
	<line fill="none" stroke="gray" stroke-width="1"  x1="347.2453116555275" y1="834.3960679226414" x2="299.7531180463626" y2="834.6295773160642"/>
	<line fill="none" stroke="gray" stroke-width="1"  x1="612.5653813991767" y1="249.5520589522435" x2="676.5809403817038" y2="335.7502873177456"/>
	<line fill="none" stroke="gray" stroke-width="1"  x1="61.62621090304626" y1="439.96618794259336" x2="107.173864404992" y2="311.204149072287"/>
	<line fill="none" stroke="gray" stroke-width="1"  x1="494.4034085022449" y1="526.678316017146" x2="552.5473866472448" y2="589.490627543898"/>
	<line fill="none" stroke="gray" stroke-width="1"  x1="467.8537454918157" y1="66.55402035491164" x2="519.1120904386287" y2="124.8842495989842"/>
	<line fill="none" stroke="gray" stroke-width="1"  x1="244.40940129953844" y1="135.5318814643758" x2="256.11986929897506" y2="125.5237653894648"/>
	<line fill="none" stroke="gray" stroke-width="1"  x1="670.9686481683328" y1="334.58414581239725" x2="676.5809403817038" y2="335.7502873177456"/>
	<line fill="none" stroke="gray" stroke-width="1"  x1="371.6648522420994" y1="693.5151673342135" x2="316.3904220374122" y2="641.4750154954525"/>
	<line fill="none" stroke="gray" stroke-width="1"  x1="425.8493569351032" y1="847.2635525455861" x2="390.0835057325068" y2="791.4251569393816"/>
	<line fill="none" stroke="gray" stroke-width="1"  x1="362.0683531419868" y1="50.297026514761434" x2="426.06695193107333" y2="74.74033742763153"/>
	<line fill="none" stroke="gray" stroke-width="1"  x1="134.5645772631605" y1="621.4981572046886" x2="126.48770482424885" y2="544.4988845868045"/>
	<line fill="none" stroke="gray" stroke-width="1"  x1="138.67844448740266" y1="563.9992411694496" x2="135.98004646737252" y2="542.2836875868226"/>
	<line fill="none" stroke="gray" stroke-width="1"  x1="270.2775617453615" y1="570.8958937851487" x2="201.2464929011282" y2="527.1243676000963"/>
	<line fill="none" stroke="gray" stroke-width="1"  x1="539.5755536971474" y1="98.35840940963244" x2="562.1367488785925" y2="137.26642843181494"/>
	<line fill="none" stroke="gray" stroke-width="1"  x1="318.1256801889424" y1="44.238099237679656" x2="362.0683531419868" y2="50.297026514761434"/>
	<line fill="none" stroke="gray" stroke-width="1"  x1="516.0955385893782" y1="857.1232868955634" x2="490.53964611688315" y2="859.2362831309744"/>
	<line fill="none" stroke="gray" stroke-width="1"  x1="617.7813195791034" y1="212.52814616785372" x2="641.480797441113" y2="281.41404291343855"/>
	<line fill="none" stroke="gray" stroke-width="1"  x1="667.9115566762907" y1="323.8385851087661" x2="676.5809403817038" y2="335.7502873177456"/>
	<line fill="none" stroke="gray" stroke-width="1"  x1="330.7858968283227" y1="188.05296405276943" x2="249.2900778315358" y2="191.76128232577165"/>
	<line fill="none" stroke="gray" stroke-width="1"  x1="427.06525996567376" y1="427.36133486986614" x2="466.5206619489843" y2="462.89622961714707"/>
	<line fill="none" stroke="gray" stroke-width="1"  x1="347.4107318558677" y1="878.6378876997784" x2="299.7531180463626" y2="834.6295773160642"/>
	<line fill="none" stroke="gray" stroke-width="1"  x1="444.9967418589367" y1="423.33150881613693" x2="466.5206619489843" y2="462.89622961714707"/>
	<line fill="none" stroke="gray" stroke-width="1"  x1="576.1122820381198" y1="166.16108170941914" x2="613.5274955784332" y2="232.69806095390555"/>
	<line fill="none" stroke="gray" stroke-width="1"  x1="527.7086320393797" y1="134.60458378663506" x2="557.2238334807969" y2="175.27012956531354"/>
	<line fill="none" stroke="gray" stroke-width="1"  x1="93.832515325421" y1="253.0603564499334" x2="121.56352404873007" y2="233.8736617294759"/>
	<line fill="none" stroke="gray" stroke-width="1"  x1="629.6030463222916" y1="201.0170208066348" x2="644.5994308310605" y2="241.17015147891183"/>
	<line fill="none" stroke="gray" stroke-width="1"  x1="490.53964611688315" y1="859.2362831309744" x2="425.8493569351032" y2="847.2635525455861"/>
	<line fill="none" stroke="gray" stroke-width="1"  x1="628.5078379797658" y1="324.0693842454367" x2="676.5809403817038" y2="335.7502873177456"/>
	<line fill="none" stroke="gray" stroke-width="1"  x1="107.173864404992" y1="311.204149072287" x2="122.64789250288702" y2="301.9177473848447"/>
	<line fill="none" stroke="gray" stroke-width="1"  x1="606.8222046277255" y1="476.1952193457965" x2="665.8685948078701" y2="529.2786822146528"/>
	<line fill="none" stroke="gray" stroke-width="1"  x1="534.6153359072763" y1="842.6400681158834" x2="516.6435493050686" y2="879.2946829517658"/>
	<line fill="none" stroke="gray" stroke-width="1"  x1="107.42381328037804" y1="567.8527376310069" x2="103.71919095343844" y2="505.9429877077077"/>
	<line fill="none" stroke="gray" stroke-width="1"  x1="255.56557446815873" y1="68.66377022925305" x2="327.07012521283735" y2="50.40789535401865"/>
	<line fill="none" stroke="gray" stroke-width="1"  x1="353.8444435040921" y1="704.9570027231271" x2="316.3904220374122" y2="641.4750154954525"/>
	<line fill="none" stroke="gray" stroke-width="1"  x1="396.353151235042" y1="401.95607614772507" x2="427.06525996567376" y2="427.36133486986614"/>
	<line fill="none" stroke="gray" stroke-width="1"  x1="135.98004646737252" y1="542.2836875868226" x2="115.92196325902184" y2="454.06316091264006"/>
	<line fill="none" stroke="gray" stroke-width="1"  x1="82.6828761171705" y1="475.02557307371427" x2="95.74662452467595" y2="390.6594084064019"/>
	<line fill="none" stroke="gray" stroke-width="1"  x1="186.72528524045796" y1="99.25242839742646" x2="255.56557446815873" y2="68.66377022925305"/>
	<line fill="none" stroke="gray" stroke-width="1"  x1="144.05112870518707" y1="574.2314900753258" x2="135.98004646737252" y2="542.2836875868226"/>
	<line fill="none" stroke="gray" stroke-width="1"  x1="166.93648715393698" y1="738.3868359924538" x2="152.8242735855295" y2="678.3384734028107"/>
	<line fill="none" stroke="gray" stroke-width="1"  x1="299.7531180463626" y1="834.6295773160642" x2="227.9479179057521" y2="790.6404811275631"/>
	<line fill="none" stroke="gray" stroke-width="1"  x1="88.33184938526016" y1="510.31461707936137" x2="107.173864404992" y2="311.204149072287"/>
	<line fill="none" stroke="gray" stroke-width="1"  x1="352.11122625634675" y1="684.9242441260019" x2="311.8450874631697" y2="635.0189461227109"/>
	<line fill="none" stroke="gray" stroke-width="1"  x1="650.0333303735861" y1="719.2302580767846" x2="644" y2="727"/>
	<line fill="none" stroke="gray" stroke-width="1"  x1="118.94632630994924" y1="217.70802298035778" x2="146.4884375164723" y2="217.70368507222975"/>
	<line fill="none" stroke="gray" stroke-width="1"  x1="69.902459400188" y1="288.68326810428766" x2="121.56352404873007" y2="233.8736617294759"/>
	<line fill="none" stroke="gray" stroke-width="1"  x1="464.50116470506833" y1="94.16572451680122" x2="531.0060058472487" y2="142.67991688857288"/>
	<line fill="none" stroke="gray" stroke-width="1"  x1="203.26115391759436" y1="514.691931063507" x2="161.25997277602212" y2="475.1852316860602"/>
	<line fill="none" stroke="gray" stroke-width="1"  x1="422.8083383483092" y1="87.29932087118576" x2="430.93964242367645" y2="85.03238588319992"/>
	<line fill="none" stroke="gray" stroke-width="1"  x1="563.2155707038743" y1="826.8116816756337" x2="516.0955385893782" y2="857.1232868955634"/>
	<line fill="none" stroke="gray" stroke-width="1"  x1="406.73056129647205" y1="892.8696617407408" x2="407.9870091293023" y2="861.0362739579944"/>
	<line fill="none" stroke="gray" stroke-width="1"  x1="665.8685948078701" y1="529.2786822146528" x2="682.5733660758451" y2="574.2804397349049"/>
	<line fill="none" stroke="gray" stroke-width="1"  x1="365.79746053438487" y1="908.7829548862607" x2="310.0923615661225" y2="869.1386675703495"/>
	<line fill="none" stroke="gray" stroke-width="1"  x1="77.63526142316822" y1="443.9752111871902" x2="95.74662452467595" y2="390.6594084064019"/>
	<line fill="none" stroke="gray" stroke-width="1"  x1="234.73071487604335" y1="842.8770788103972" x2="209.1674750072884" y2="777.4953309439309"/>
	<line fill="none" stroke="gray" stroke-width="1"  x1="90.02363480657053" y1="408.59067892396183" x2="95.74662452467595" y2="390.6594084064019"/>
	<line fill="none" stroke="gray" stroke-width="1"  x1="192.76459181178976" y1="524.5191510429045" x2="161.25997277602212" y2="475.1852316860602"/>
	<line fill="none" stroke="gray" stroke-width="1"  x1="677.0830515518403" y1="565.7818617357709" x2="682.5733660758451" y2="574.2804397349049"/>
	<line fill="none" stroke="gray" stroke-width="1"  x1="71.55932777789566" y1="369.2655669843846" x2="80.7242976081067" y2="356.15040333527804"/>
	<line fill="none" stroke="gray" stroke-width="1"  x1="698.440742766936" y1="534.5520706087377" x2="644" y2="727"/>
	<line fill="none" stroke="gray" stroke-width="1"  x1="568.8650702993025" y1="187.8128953769729" x2="612.5653813991767" y2="249.5520589522435"/>
	<line fill="none" stroke="gray" stroke-width="1"  x1="99.92359232737451" y1="483.74446362534354" x2="104.80134132342818" y2="402.02361459328984"/>
	<line fill="none" stroke="gray" stroke-width="1"  x1="407.9870091293023" y1="861.0362739579944" x2="390.0835057325068" y2="791.4251569393816"/>
	<line fill="none" stroke="gray" stroke-width="1"  x1="63.87203379422133" y1="567.5125471749457" x2="82.6828761171705" y2="475.02557307371427"/>
	<line fill="none" stroke="gray" stroke-width="1"  x1="342.0664859966935" y1="720.238240178292" x2="352.11122625634675" y2="684.9242441260019"/>
	<line fill="none" stroke="gray" stroke-width="1"  x1="146.4884375164723" y1="217.70368507222975" x2="199.63259002910058" y2="156.2330214101097"/>
	<line fill="none" stroke="gray" stroke-width="1"  x1="542.6296414122644" y1="545.2556190953269" x2="552.5473866472448" y2="589.490627543898"/>
	<line fill="none" stroke="gray" stroke-width="1"  x1="201.2464929011282" y1="527.1243676000963" x2="161.25997277602212" y2="475.1852316860602"/>
	<line fill="none" stroke="gray" stroke-width="1"  x1="357.71567919673623" y1="161.57829879976333" x2="324.9647119565216" y2="180.6489637193514"/>
	<line fill="none" stroke="gray" stroke-width="1"  x1="611.3825368456929" y1="376.9348640841665" x2="642.2548504861155" y2="454.4550494776077"/>
	<line fill="none" stroke="gray" stroke-width="1"  x1="396.6210982070702" y1="43.98434553966977" x2="464.50116470506833" y2="94.16572451680122"/>
	<line fill="none" stroke="gray" stroke-width="1"  x1="209.19876299842466" y1="240.77539319083758" x2="249.2900778315358" y2="191.76128232577165"/>
	<line fill="none" stroke="gray" stroke-width="1"  x1="314.73736322429295" y1="591.0867875105433" x2="291.43742567669733" y2="601.912324514256"/>
	<line fill="none" stroke="gray" stroke-width="1"  x1="280.1118919926131" y1="255.05527728810438" x2="249.2900778315358" y2="191.76128232577165"/>
	<line fill="none" stroke="gray" stroke-width="1"  x1="605.0395558810401" y1="472.6529680049333" x2="632.1024367081911" y2="496.18644639149704"/>
	<line fill="none" stroke="gray" stroke-width="1"  x1="49.07180450681195" y1="397.24041598188245" x2="80.7242976081067" y2="356.15040333527804"/>
	<line fill="none" stroke="gray" stroke-width="1"  x1="668.1100528153581" y1="700.9589599290638" x2="644" y2="727"/>
	<line fill="none" stroke="gray" stroke-width="1"  x1="674.0819185842664" y1="595.2119592172273" x2="699.6012642617369" y2="638.4508852410133"/>
	<line fill="none" stroke="gray" stroke-width="1"  x1="122.64789250288702" y1="301.9177473848447" x2="164.42570245557425" y2="249.1801982164991"/>
	<line fill="none" stroke="gray" stroke-width="1"  x1="390.41139501614776" y1="55.35441563652082" x2="464.50116470506833" y2="94.16572451680122"/>
	<line fill="none" stroke="gray" stroke-width="1"  x1="510.0726535576069" y1="897.9261724843758" x2="450.5562041341551" y2="887.4634038626396"/>
	<line fill="none" stroke="gray" stroke-width="1"  x1="665.9218949051738" y1="524.4794948741888" x2="682.5733660758451" y2="574.2804397349049"/>
	<line fill="none" stroke="gray" stroke-width="1"  x1="161.25997277602212" y1="475.1852316860602" x2="145.70574084802956" y2="436.47670589660754"/>
	<line fill="none" stroke="gray" stroke-width="1"  x1="590.9362658528628" y1="422.07193276382606" x2="603.3605467803512" y2="442.4364826596349"/>
	<line fill="none" stroke="gray" stroke-width="1"  x1="87.58363802621642" y1="509.8608708455756" x2="95.74662452467595" y2="390.6594084064019"/>
	<line fill="none" stroke="gray" stroke-width="1"  x1="593.3996009434843" y1="783.1708771904882" x2="563.2155707038743" y2="826.8116816756337"/>
	<line fill="none" stroke="gray" stroke-width="1"  x1="130.80937393242965" y1="714.571182382498" x2="127.23774207044684" y2="642.9465034714964"/>
	<line fill="none" stroke="gray" stroke-width="1"  x1="561.2262071338246" y1="902.9735282814036" x2="547.3799307715682" y2="902.7746123888256"/>
	<line fill="none" stroke="gray" stroke-width="1"  x1="269.3357878458659" y1="830.9379411625702" x2="227.9479179057521" y2="790.6404811275631"/>
	<line fill="none" stroke="gray" stroke-width="1"  x1="673.0839586829703" y1="532.8717657165066" x2="677.0830515518403" y2="565.7818617357709"/>
	<line fill="none" stroke="gray" stroke-width="1"  x1="590.9358073113838" y1="381.9863483087721" x2="642.2548504861155" y2="454.4550494776077"/>
	<line fill="none" stroke="gray" stroke-width="1"  x1="390.0835057325068" y1="791.4251569393816" x2="362.905589284823" y2="748.9388317919223"/>
	<line fill="none" stroke="gray" stroke-width="1"  x1="256.11986929897506" y1="125.5237653894648" x2="292.15056492331445" y2="85.80894623981969"/>
	<line fill="none" stroke="gray" stroke-width="1"  x1="547.3799307715682" y1="902.7746123888256" x2="510.0726535576069" y2="897.9261724843758"/>
	<line fill="none" stroke="gray" stroke-width="1"  x1="113.09859966294385" y1="288.5301150389128" x2="183.63115120795538" y2="244.26717063003096"/>
	<line fill="none" stroke="gray" stroke-width="1"  x1="324.9647119565216" y1="180.6489637193514" x2="249.2900778315358" y2="191.76128232577165"/>
	<line fill="none" stroke="gray" stroke-width="1"  x1="215.28701731381844" y1="793.9266036544832" x2="183.21244441057405" y2="720.6185903274876"/>
	<line fill="none" stroke="gray" stroke-width="1"  x1="164.42570245557425" y1="249.1801982164991" x2="170.54330509984436" y2="211.59564930664538"/>
	<line fill="none" stroke="gray" stroke-width="1"  x1="384.58080326057296" y1="832.7014987297258" x2="390.0835057325068" y2="791.4251569393816"/>
	<line fill="none" stroke="gray" stroke-width="1"  x1="492.72964803741115" y1="482.1737494626321" x2="521.5991064840259" y2="526.1100357414285"/>
	<line fill="none" stroke="gray" stroke-width="1"  x1="618.3156002752553" y1="449.99699510583866" x2="632.1024367081911" y2="496.18644639149704"/>
	<line fill="none" stroke="gray" stroke-width="1"  x1="135.6279160435383" y1="659.7438611729038" x2="134.5645772631605" y2="621.4981572046886"/>
	<line fill="none" stroke="gray" stroke-width="1"  x1="123.93620789073364" y1="309.3055210706744" x2="164.42570245557425" y2="249.1801982164991"/>
	<line fill="none" stroke="gray" stroke-width="1"  x1="699.5498271137391" y1="488.6530068932975" x2="692.205439239436" y2="545.6487612458595"/>
	<line fill="none" stroke="gray" stroke-width="1"  x1="69.1500480022526" y1="307.6809034365291" x2="183.63115120795538" y2="244.26717063003096"/>
	<line fill="none" stroke="gray" stroke-width="1"  x1="190.74715946486887" y1="717.5194318802743" x2="181.214523858841" y2="700.9039919252305"/>
	<line fill="none" stroke="gray" stroke-width="1"  x1="646.6953142919845" y1="440.1980949856742" x2="642.2548504861155" y2="454.4550494776077"/>
	<line fill="none" stroke="gray" stroke-width="1"  x1="651.5028857419924" y1="352.0797256779801" x2="676.5809403817038" y2="335.7502873177456"/>
	<line fill="none" stroke="gray" stroke-width="1"  x1="493.01560086051893" y1="491.5443213495307" x2="521.5991064840259" y2="526.1100357414285"/>
	<line fill="none" stroke="gray" stroke-width="1"  x1="95.21327966112227" y1="254.77528384767658" x2="121.56352404873007" y2="233.8736617294759"/>
	<line fill="none" stroke="gray" stroke-width="1"  x1="615.8447112116021" y1="638.904318012631" x2="644" y2="727"/>
	<line fill="none" stroke="gray" stroke-width="1"  x1="543.9072479994531" y1="875.9638504437837" x2="486.4262901390081" y2="864.2076735973877"/>
	<line fill="none" stroke="gray" stroke-width="1"  x1="664.3296472366444" y1="296.07394920919114" x2="676.5809403817038" y2="335.7502873177456"/>
	<line fill="none" stroke="gray" stroke-width="1"  x1="164.345350178882" y1="512.86657231155" x2="161.25997277602212" y2="475.1852316860602"/>
	<line fill="none" stroke="gray" stroke-width="1"  x1="607.672197898114" y1="276.90980472443164" x2="676.5809403817038" y2="335.7502873177456"/>
	<line fill="none" stroke="gray" stroke-width="1"  x1="221.83218401247993" y1="236.16190171950169" x2="249.2900778315358" y2="191.76128232577165"/>
	<line fill="none" stroke="gray" stroke-width="1"  x1="603.3605467803512" y1="442.4364826596349" x2="632.1024367081911" y2="496.18644639149704"/>
	<line fill="none" stroke="gray" stroke-width="1"  x1="251.1748200252819" y1="240.7815286818117" x2="249.2900778315358" y2="191.76128232577165"/>
	<line fill="none" stroke="gray" stroke-width="1"  x1="249.2900778315358" y1="191.76128232577165" x2="244.40940129953844" y2="135.5318814643758"/>
	<line fill="none" stroke="gray" stroke-width="1"  x1="397.4595123746634" y1="771.115757326986" x2="372.24766973848153" y2="712.7149745110838"/>
	<line fill="none" stroke="gray" stroke-width="1"  x1="80.7242976081067" y1="356.15040333527804" x2="122.64789250288702" y2="301.9177473848447"/>
	<line fill="none" stroke="gray" stroke-width="1"  x1="426.06695193107333" y1="74.74033742763153" x2="464.50116470506833" y2="94.16572451680122"/>
	<line fill="none" stroke="gray" stroke-width="1"  x1="72.09754293538207" y1="598.4704447829354" x2="71.37407668548929" y2="563.3557292398602"/>
	<line fill="none" stroke="gray" stroke-width="1"  x1="199.63259002910058" y1="156.2330214101097" x2="256.11986929897506" y2="125.5237653894648"/>
	<line fill="none" stroke="gray" stroke-width="1"  x1="632.1024367081911" y1="496.18644639149704" x2="665.8685948078701" y2="529.2786822146528"/>
	<line fill="none" stroke="gray" stroke-width="1"  x1="696.3544932881862" y1="668.10498266193" x2="644" y2="727"/>
	<line fill="none" stroke="gray" stroke-width="1"  x1="114.61870350387902" y1="296.91531128798374" x2="122.64789250288702" y2="301.9177473848447"/>
	<line fill="none" stroke="gray" stroke-width="1"  x1="636.565737121893" y1="225.3949536819148" x2="664.3296472366444" y2="296.07394920919114"/>
	<line fill="none" stroke="gray" stroke-width="1"  x1="640.3842277503697" y1="418.2871712747402" x2="642.2548504861155" y2="454.4550494776077"/>
	<line fill="none" stroke="gray" stroke-width="1"  x1="181.214523858841" y1="700.9039919252305" x2="134.42986628854615" y2="617.876294645344"/>
	<line fill="none" stroke="gray" stroke-width="1"  x1="193.34594611962507" y1="145.32745949225497" x2="256.11986929897506" y2="125.5237653894648"/>
	<line fill="none" stroke="blue" stroke-width="5"  x1="644" y1="727" x2="692.205439239436" y2="545.6487612458595"/>
	<line fill="none" stroke="blue" stroke-width="5"  x1="692.205439239436" y1="545.6487612458595" x2="676.5809403817038" y2="335.7502873177456"/>
	<line fill="none" stroke="blue" stroke-width="5"  x1="676.5809403817038" y1="335.7502873177456" x2="557.2238334807969" y2="175.27012956531354"/>
	<line fill="none" stroke="blue" stroke-width="5"  x1="557.2238334807969" y1="175.27012956531354" x2="531.0060058472487" y2="142.67991688857288"/>
	<line fill="none" stroke="blue" stroke-width="5"  x1="531.0060058472487" y1="142.67991688857288" x2="464.50116470506833" y2="94.16572451680122"/>
	<line fill="none" stroke="blue" stroke-width="5"  x1="464.50116470506833" y1="94.16572451680122" x2="426.06695193107333" y2="74.74033742763153"/>
	<line fill="none" stroke="blue" stroke-width="5"  x1="426.06695193107333" y1="74.74033742763153" x2="362.0683531419868" y2="50.297026514761434"/>
	<line fill="none" stroke="blue" stroke-width="5"  x1="362.0683531419868" y1="50.297026514761434" x2="292.15056492331445" y2="85.80894623981969"/>
	<line fill="none" stroke="blue" stroke-width="5"  x1="292.15056492331445" y1="85.80894623981969" x2="256.11986929897506" y2="125.5237653894648"/>
	<line fill="none" stroke="blue" stroke-width="5"  x1="256.11986929897506" y1="125.5237653894648" x2="225.1377763550143" y2="138.26485858457028"/>
	<line fill="none" stroke="blue" stroke-width="5"  x1="225.1377763550143" y1="138.26485858457028" x2="173.17872982875568" y2="206.03587012746738"/>
	<line fill="none" stroke="blue" stroke-width="5"  x1="173.17872982875568" y1="206.03587012746738" x2="170.54330509984436" y2="211.59564930664538"/>
	<line fill="none" stroke="blue" stroke-width="5"  x1="170.54330509984436" y1="211.59564930664538" x2="164.42570245557425" y2="249.1801982164991"/>
	<line fill="none" stroke="blue" stroke-width="5"  x1="164.42570245557425" y1="249.1801982164991" x2="122.64789250288702" y2="301.9177473848447"/>
	<line fill="none" stroke="blue" stroke-width="5"  x1="122.64789250288702" y1="301.9177473848447" x2="103.79934471176539" y2="318.6865357732556"/>
	<line fill="none" stroke="blue" stroke-width="5"  x1="103.79934471176539" y1="318.6865357732556" x2="113.66036181363759" y2="405.5432328766371"/>
	<line fill="none" stroke="blue" stroke-width="5"  x1="113.66036181363759" y1="405.5432328766371" x2="145.70574084802956" y2="436.47670589660754"/>
	<line fill="none" stroke="blue" stroke-width="5"  x1="145.70574084802956" y1="436.47670589660754" x2="169.2658432750932" y2="503.5685660567571"/>
	<line fill="none" stroke="blue" stroke-width="5"  x1="169.2658432750932" y1="503.5685660567571" x2="210.3311524610082" y2="542.9626888853068"/>
	<line fill="none" stroke="blue" stroke-width="5"  x1="210.3311524610082" y1="542.9626888853068" x2="269.82882934805394" y2="583.4064666973089"/>
	<line fill="none" stroke="blue" stroke-width="5"  x1="269.82882934805394" y1="583.4064666973089" x2="316.3904220374122" y2="641.4750154954525"/>
	<line fill="none" stroke="blue" stroke-width="5"  x1="316.3904220374122" y1="641.4750154954525" x2="353.8444435040921" y2="704.9570027231271"/>
	<line fill="none" stroke="blue" stroke-width="5"  x1="353.8444435040921" y1="704.9570027231271" x2="362.905589284823" y2="748.9388317919223"/>
	<line fill="none" stroke="blue" stroke-width="5"  x1="362.905589284823" y1="748.9388317919223" x2="390.0835057325068" y2="791.4251569393816"/>
	<line fill="none" stroke="blue" stroke-width="5"  x1="390.0835057325068" y1="791.4251569393816" x2="425.8493569351032" y2="847.2635525455861"/>
	<line fill="none" stroke="blue" stroke-width="5"  x1="425.8493569351032" y1="847.2635525455861" x2="490.53964611688315" y2="859.2362831309744"/>
	<line fill="none" stroke="blue" stroke-width="5"  x1="490.53964611688315" y1="859.2362831309744" x2="516.0955385893782" y2="857.1232868955634"/>
	<line fill="none" stroke="blue" stroke-width="5"  x1="516.0955385893782" y1="857.1232868955634" x2="563.2155707038743" y2="826.8116816756337"/>
	<line fill="none" stroke="blue" stroke-width="5"  x1="563.2155707038743" y1="826.8116816756337" x2="638" y2="748"/>
</svg>
