<svg width="93.99999999999999" height="84.84382963959209" viewBox="-1.6199999999999999,-2.1881554136102452,5.639999999999999,5.090629778375526" xmlns="http://www.w3.org/2000/svg" style="background: #FFFFFF">
	<polygon fill="#777777"  points="1,1 2,0 2,2 0,2 0,0 "/>
	<polygon fill="#777777"  points="0.75,-1.5 1.75,-0.5 0.75,0.5 -0.25,-0.5 "/>
	<polygon fill="#777777"  points=""/>
	<line fill="none" stroke="green" stroke-width="0.02"  x1="-0.6051038695344584" y1="-0.22854478513103954" x2="-0.75" y2="0.25"/>
	<line fill="none" stroke="green" stroke-width="0.02"  x1="1.2896562901997384" y1="2.3052480234218664" x2="0.790883594264277" y2="2.270236628287255"/>
	<line fill="none" stroke="green" stroke-width="0.02"  x1="-0.3048133490934779" y1="-0.46463335819582596" x2="-0.43055936299801345" y2="-0.6970895697972964"/>
	<line fill="none" stroke="green" stroke-width="0.02"  x1="2.407145381916421" y1="1.8780119479447004" x2="2.422905945635102" y2="1.790098016290547"/>
	<line fill="none" stroke="green" stroke-width="0.02"  x1="-0.5963946007823588" y1="1.9068058533086234" x2="-0.6252185139084288" y2="1.4076373626843646"/>
	<line fill="none" stroke="green" stroke-width="0.02"  x1="-0.4787513531475369" y1="-1.0250358837874989" x2="-0.4842635757165752" y2="-0.9505848368167547"/>
	<line fill="none" stroke="green" stroke-width="0.02"  x1="-0.121687272017593" y1="2.4782552165673204" x2="-0.2070499327710086" y2="2.220510697853829"/>
	<line fill="none" stroke="green" stroke-width="0.02"  x1="-0.7423428393206573" y1="1.5181141212302043" x2="-0.6252185139084288" y2="1.4076373626843646"/>
	<line fill="none" stroke="green" stroke-width="0.02"  x1="1.895216122606093" y1="-1.1711517597224494" x2="1.8725651836934958" y2="-0.6716650882622615"/>
	<line fill="none" stroke="green" stroke-width="0.02"  x1="2.759173475466888" y1="2.179704756726602" x2="2.287855724983662" y2="2.3466166438989404"/>
	<line fill="none" stroke="green" stroke-width="0.02"  x1="-0.11155552160967996" y1="1.0891633824575488" x2="-0.03687563183900533" y2="1.1255398472079872"/>
	<line fill="none" stroke="green" stroke-width="0.02"  x1="-0.43055936299801345" y1="-0.6970895697972964" x2="-0.6051038695344584" y2="-0.22854478513103954"/>
	<line fill="none" stroke="green" stroke-width="0.02"  x1="1.295320650066146" y1="2.252267008374778" x2="1.2896562901997384" y2="2.3052480234218664"/>
	<line fill="none" stroke="green" stroke-width="0.02"  x1="-0.6151308199488197" y1="2.3899202635907404" x2="-0.5156004699918935" y2="2.219997820498188"/>
	<line fill="none" stroke="green" stroke-width="0.02"  x1="2.763151215445382" y1="2.0055836483483676" x2="2.759173475466888" y2="2.179704756726602"/>
	<line fill="none" stroke="green" stroke-width="0.02"  x1="-0.4044725133430642" y1="2.2805972000748973" x2="-0.41359561125791355" y2="2.307798589285948"/>
	<line fill="none" stroke="green" stroke-width="0.02"  x1="1.2713934458974352" y1="2.0300412922495568" x2="1.2896562901997384" y2="2.3052480234218664"/>
	<line fill="none" stroke="green" stroke-width="0.02"  x1="-0.1834620160248992" y1="2.345633803123266" x2="-0.2070499327710086" y2="2.220510697853829"/>
	<line fill="none" stroke="green" stroke-width="0.02"  x1="-0.4423126988595172" y1="1.5866052517499414" x2="-0.6252185139084288" y2="1.4076373626843646"/>
	<line fill="none" stroke="green" stroke-width="0.02"  x1="2.287855724983662" y1="2.3466166438989404" x2="1.7896552617183445" y2="2.304233883226436"/>
	<line fill="none" stroke="green" stroke-width="0.02"  x1="-0.1762700830322128" y1="1.9744441444812422" x2="-0.2070499327710086" y2="2.220510697853829"/>
	<line fill="none" stroke="green" stroke-width="0.02"  x1="2.382289301304727" y1="1.6816327225013863" x2="2.763151215445382" y2="2.0055836483483676"/>
	<line fill="none" stroke="green" stroke-width="0.02"  x1="2.7497639488460552" y1="0.019045676458249408" x2="2.312240618731955" y2="0.26106496413150065"/>
	<line fill="none" stroke="green" stroke-width="0.02"  x1="-0.641087125996064" y1="0.8287834581463329" x2="-0.43680859789603466" y2="0.9444940764886098"/>
	<line fill="none" stroke="green" stroke-width="0.02"  x1="-0.9177783064198142" y1="0.11970729935480628" x2="-0.831532328445121" y2="0.2575727300723276"/>
	<line fill="none" stroke="green" stroke-width="0.02"  x1="-0.41359561125791355" y1="2.307798589285948" x2="-0.5156004699918935" y2="2.219997820498188"/>
	<line fill="none" stroke="green" stroke-width="0.02"  x1="2.151750880633453" y1="1.2379526163501249" x2="2.382289301304727" y2="1.6816327225013863"/>
	<line fill="none" stroke="green" stroke-width="0.02"  x1="-0.6252185139084288" y1="1.4076373626843646" x2="-0.43680859789603466" y2="0.9444940764886098"/>
	<line fill="none" stroke="green" stroke-width="0.02"  x1="0.4687816929793458" y1="2.1993534882883683" x2="0.2929294448284029" y2="2.225051840364821"/>
	<line fill="none" stroke="green" stroke-width="0.02"  x1="-0.6188169933034944" y1="-1.3196024472987755" x2="-0.8092248053439013" y2="-1.0605365260989876"/>
	<line fill="none" stroke="green" stroke-width="0.02"  x1="-0.6977235388884804" y1="1.127207551943298" x2="-0.6252185139084288" y2="1.4076373626843646"/>
	<line fill="none" stroke="green" stroke-width="0.02"  x1="-0.5156004699918935" y1="2.219997820498188" x2="-0.2070499327710086" y2="2.220510697853829"/>
	<line fill="none" stroke="green" stroke-width="0.02"  x1="-0.2070499327710086" y1="2.220510697853829" x2="-0.5963946007823588" y2="1.9068058533086234"/>
	<line fill="none" stroke="green" stroke-width="0.02"  x1="-0.30741257434955394" y1="-0.8364276450326611" x2="-0.43055936299801345" y2="-0.6970895697972964"/>
	<line fill="none" stroke="green" stroke-width="0.02"  x1="1.6882952125711856" y1="2.1501934449008004" x2="1.7896552617183445" y2="2.304233883226436"/>
	<line fill="none" stroke="green" stroke-width="0.02"  x1="-0.8470683259189995" y1="0.7906554427817261" x2="-0.641087125996064" y2="0.8287834581463329"/>
	<line fill="none" stroke="green" stroke-width="0.02"  x1="1.192273977478191" y1="2.1330443722856804" x2="1.2713934458974352" y2="2.0300412922495568"/>
	<line fill="none" stroke="green" stroke-width="0.02"  x1="-0.5495641061113412" y1="-0.8574458431956102" x2="-0.43055936299801345" y2="-0.6970895697972964"/>
	<line fill="none" stroke="green" stroke-width="0.02"  x1="2.4312101370844355" y1="0.8955038912059905" x2="2.1623364206127005" y2="0.7380646825656139"/>
	<line fill="none" stroke="green" stroke-width="0.02"  x1="2.426603457932046" y1="-0.5012144160572043" x2="2.0600745755453502" y2="-0.4256434722935194"/>
	<line fill="none" stroke="green" stroke-width="0.02"  x1="-0.7657114668394769" y1="1.1789593172472075" x2="-0.6977235388884804" y2="1.127207551943298"/>
	<line fill="none" stroke="green" stroke-width="0.02"  x1="-0.8092248053439013" y1="-1.0605365260989876" x2="-0.878325680454787" y2="-0.7494636963168686"/>
	<line fill="none" stroke="green" stroke-width="0.02"  x1="-0.8434352250690811" y1="0.3548293151760826" x2="-0.8352161729567591" y2="0.29231248820610656"/>
	<line fill="none" stroke="green" stroke-width="0.02"  x1="-0.310988037746748" y1="1.3373339009721121" x2="-0.14382213882168443" y2="1.5427577906489867"/>
	<line fill="none" stroke="green" stroke-width="0.02"  x1="2.0723527104005566" y1="1.6293901560817172" x2="2.382289301304727" y2="1.6816327225013863"/>
	<line fill="none" stroke="green" stroke-width="0.02"  x1="2.422905945635102" y1="1.790098016290547" x2="2.382289301304727" y2="1.6816327225013863"/>
	<line fill="none" stroke="green" stroke-width="0.02"  x1="-0.35194243121635704" y1="0.173929105692757" x2="-0.2981590688599907" y2="0.46410224881240614"/>
	<line fill="none" stroke="green" stroke-width="0.02"  x1="1.7651662990406516" y1="2.013133745432418" x2="1.823582738142747" y2="2.0037153828821825"/>
	<line fill="none" stroke="green" stroke-width="0.02"  x1="1.6610158361638856" y1="2.3824574081184986" x2="1.7896552617183445" y2="2.304233883226436"/>
	<line fill="none" stroke="green" stroke-width="0.02"  x1="1.7191252545927993" y1="2.08326680908149" x2="1.6882952125711856" y2="2.1501934449008004"/>
	<line fill="none" stroke="green" stroke-width="0.02"  x1="0.2929294448284029" y1="2.225051840364821" x2="-0.2070499327710086" y2="2.220510697853829"/>
	<line fill="none" stroke="green" stroke-width="0.02"  x1="-0.9487256369720782" y1="0.3255295749062821" x2="-0.8434352250690811" y2="0.3548293151760826"/>
	<line fill="none" stroke="green" stroke-width="0.02"  x1="1.823582738142747" y1="2.0037153828821825" x2="1.6882952125711856" y2="2.1501934449008004"/>
	<line fill="none" stroke="green" stroke-width="0.02"  x1="0.790883594264277" y1="2.270236628287255" x2="0.2929294448284029" y2="2.225051840364821"/>
	<line fill="none" stroke="green" stroke-width="0.02"  x1="-0.14382213882168443" y1="1.5427577906489867" x2="-0.6252185139084288" y2="1.4076373626843646"/>
	<line fill="none" stroke="green" stroke-width="0.02"  x1="2.5653560034629086" y1="0.0885035887366219" x2="2.7497639488460552" y2="0.019045676458249408"/>
	<line fill="none" stroke="green" stroke-width="0.02"  x1="-0.03687563183900533" y1="1.1255398472079872" x2="-0.14382213882168443" y2="1.5427577906489867"/>
	<line fill="none" stroke="green" stroke-width="0.02"  x1="-0.629968216038832" y1="1.080970117544655" x2="-0.6977235388884804" y2="1.127207551943298"/>
	<line fill="none" stroke="green" stroke-width="0.02"  x1="-0.4842635757165752" y1="-0.9505848368167547" x2="-0.5495641061113412" y2="-0.8574458431956102"/>
	<line fill="none" stroke="green" stroke-width="0.02"  x1="-0.5779852160236176" y1="2.095712397935305" x2="-0.5156004699918935" y2="2.219997820498188"/>
	<line fill="none" stroke="green" stroke-width="0.02"  x1="-0.009464230267167473" y1="1.6875076351545286" x2="-0.14382213882168443" y2="1.5427577906489867"/>
	<line fill="none" stroke="green" stroke-width="0.02"  x1="1.8725651836934958" y1="-0.6716650882622615" x2="2.0600745755453502" y2="-0.4256434722935194"/>
	<line fill="none" stroke="green" stroke-width="0.02"  x1="2.5" y1="-0.75" x2="2.426603457932046" y2="-0.5012144160572043"/>
	<line fill="none" stroke="green" stroke-width="0.02"  x1="-0.6493518453945022" y1="1.6668649978009409" x2="-0.7423428393206573" y2="1.5181141212302043"/>
	<line fill="none" stroke="green" stroke-width="0.02"  x1="1.7896552617183445" y1="2.304233883226436" x2="1.2896562901997384" y2="2.3052480234218664"/>
	<line fill="none" stroke="green" stroke-width="0.02"  x1="-0.878325680454787" y1="-0.7494636963168686" x2="-0.9376926893354494" y2="-0.5230684178987286"/>
	<line fill="none" stroke="green" stroke-width="0.02"  x1="2.1623364206127005" y1="0.7380646825656139" x2="2.151750880633453" y2="1.2379526163501249"/>
	<line fill="none" stroke="green" stroke-width="0.02"  x1="-0.2981590688599907" y1="0.46410224881240614" x2="-0.75" y2="0.25"/>
	<line fill="none" stroke="green" stroke-width="0.02"  x1="2.0600745755453502" y1="-0.4256434722935194" x2="2.0477093768995585" y2="-0.16322647119875705"/>
	<line fill="none" stroke="green" stroke-width="0.02"  x1="-0.9368677226896294" y1="1.5205597906895445" x2="-0.7423428393206573" y2="1.5181141212302043"/>
	<line fill="none" stroke="green" stroke-width="0.02"  x1="-0.8480929363953741" y1="-1.7639362654122848" x2="-0.6188169933034944" y2="-1.3196024472987755"/>
	<line fill="none" stroke="green" stroke-width="0.02"  x1="-0.5932673553872654" y1="1.9210748667274804" x2="-0.5963946007823588" y2="1.9068058533086234"/>
	<line fill="none" stroke="green" stroke-width="0.02"  x1="-0.18629449300846357" y1="0.5487549064358292" x2="-0.2981590688599907" y2="0.46410224881240614"/>
	<line fill="none" stroke="green" stroke-width="0.02"  x1="2.312240618731955" y1="0.26106496413150065" x2="2.1623364206127005" y2="0.7380646825656139"/>
	<line fill="none" stroke="green" stroke-width="0.02"  x1="2.0477093768995585" y1="-0.16322647119875705" x2="2.312240618731955" y2="0.26106496413150065"/>
	<line fill="none" stroke="green" stroke-width="0.02"  x1="-0.8352161729567591" y1="0.29231248820610656" x2="-0.831532328445121" y2="0.2575727300723276"/>
	<line fill="none" stroke="green" stroke-width="0.02"  x1="-0.5630998310602227" y1="1.5099963640299592" x2="-0.6252185139084288" y2="1.4076373626843646"/>
	<line fill="none" stroke="green" stroke-width="0.02"  x1="-0.831532328445121" y1="0.2575727300723276" x2="-0.75" y2="0.25"/>
	<line fill="none" stroke="green" stroke-width="0.02"  x1="-0.41846861599510543" y1="0.8862181168347858" x2="-0.43680859789603466" y2="0.9444940764886098"/>
	<line fill="none" stroke="green" stroke-width="0.02"  x1="-0.9376926893354494" y1="-0.5230684178987286" x2="-0.6051038695344584" y2="-0.22854478513103954"/>
	<line fill="none" stroke="green" stroke-width="0.02"  x1="-0.43680859789603466" y1="0.9444940764886098" x2="-0.2981590688599907" y2="0.46410224881240614"/>
	<rect fill="black"  x="-0.77" y="0.23" width="0.040000000000000036" height="0.04000000000000001"/>
	<rect fill="black"  x="2.48" y="-0.77" width="0.040000000000000036" height="0.040000000000000036"/>
<text fill="black"  x="-1.15" y="0.25" font-size="0.2">xstart</text>
<text fill="black"  x="2.55" y="-0.75" font-size="0.2">xgoal</text>
	<line fill="none" stroke="red" stroke-width="0.06"  x1="-0.75" y1="0.25" x2="-0.2981590688599907" y2="0.46410224881240614"/>
	<line fill="none" stroke="red" stroke-width="0.06"  x1="-0.2981590688599907" y1="0.46410224881240614" x2="-0.43680859789603466" y2="0.9444940764886098"/>
	<line fill="none" stroke="red" stroke-width="0.06"  x1="-0.43680859789603466" y1="0.9444940764886098" x2="-0.6252185139084288" y2="1.4076373626843646"/>
	<line fill="none" stroke="red" stroke-width="0.06"  x1="-0.6252185139084288" y1="1.4076373626843646" x2="-0.5963946007823588" y2="1.9068058533086234"/>
	<line fill="none" stroke="red" stroke-width="0.06"  x1="-0.5963946007823588" y1="1.9068058533086234" x2="-0.2070499327710086" y2="2.220510697853829"/>
	<line fill="none" stroke="red" stroke-width="0.06"  x1="-0.2070499327710086" y1="2.220510697853829" x2="0.2929294448284029" y2="2.225051840364821"/>
	<line fill="none" stroke="red" stroke-width="0.06"  x1="0.2929294448284029" y1="2.225051840364821" x2="0.790883594264277" y2="2.270236628287255"/>
	<line fill="none" stroke="red" stroke-width="0.06"  x1="0.790883594264277" y1="2.270236628287255" x2="1.2896562901997384" y2="2.3052480234218664"/>
	<line fill="none" stroke="red" stroke-width="0.06"  x1="1.2896562901997384" y1="2.3052480234218664" x2="1.7896552617183445" y2="2.304233883226436"/>
	<line fill="none" stroke="red" stroke-width="0.06"  x1="1.7896552617183445" y1="2.304233883226436" x2="2.287855724983662" y2="2.3466166438989404"/>
	<line fill="none" stroke="red" stroke-width="0.06"  x1="2.287855724983662" y1="2.3466166438989404" x2="2.759173475466888" y2="2.179704756726602"/>
	<line fill="none" stroke="red" stroke-width="0.06"  x1="2.759173475466888" y1="2.179704756726602" x2="2.763151215445382" y2="2.0055836483483676"/>
	<line fill="none" stroke="red" stroke-width="0.06"  x1="2.763151215445382" y1="2.0055836483483676" x2="2.382289301304727" y2="1.6816327225013863"/>
	<line fill="none" stroke="red" stroke-width="0.06"  x1="2.382289301304727" y1="1.6816327225013863" x2="2.151750880633453" y2="1.2379526163501249"/>
	<line fill="none" stroke="red" stroke-width="0.06"  x1="2.151750880633453" y1="1.2379526163501249" x2="2.1623364206127005" y2="0.7380646825656139"/>
	<line fill="none" stroke="red" stroke-width="0.06"  x1="2.1623364206127005" y1="0.7380646825656139" x2="2.312240618731955" y2="0.26106496413150065"/>
	<line fill="none" stroke="red" stroke-width="0.06"  x1="2.312240618731955" y1="0.26106496413150065" x2="2.0477093768995585" y2="-0.16322647119875705"/>
	<line fill="none" stroke="red" stroke-width="0.06"  x1="2.0477093768995585" y1="-0.16322647119875705" x2="2.0600745755453502" y2="-0.4256434722935194"/>
	<line fill="none" stroke="red" stroke-width="0.06"  x1="2.0600745755453502" y1="-0.4256434722935194" x2="2.426603457932046" y2="-0.5012144160572043"/>
	<line fill="none" stroke="red" stroke-width="0.06"  x1="2.426603457932046" y1="-0.5012144160572043" x2="2.0600745755453502" y2="-0.4256434722935194"/>
</svg>
