<svg width="90" height="70.02755396905019" viewBox="-1.5999999999999999,-1.8506672320260946,5.3999999999999995,4.201653238143011" xmlns="http://www.w3.org/2000/svg" style="background: #FFFFFF">
	<polygon fill="#555555"  points="0.9992954474917993,0.999391929284102 2.000721202009399,-0.0007226739322891778 2.0005080360211718,2.0000035111565664 0.0009144374920734797,2.0008482362716657 0.0009672296897079043,-0.00042668916144471015 "/>
	<polygon fill="#555555"  points="0.7503969119053197,-1.5005294621808436 1.7497808176183234,-0.5008516181638337 0.750891882596029,0.5002395603054275 -0.25021825597631586,-0.5002487470211895 "/>
	<polygon fill="#555555"  points=""/>
	<polygon fill="#555555"  points="-0.7491108863041532,0.24981486603427433 "/>
	<polygon fill="#555555"  points="2.5008387073998524,-0.7509058041651161 "/>
	<line stroke="#000000" stroke-width="0.025"  x1="1.7497808176183234" y1="-0.5008516181638337" x2="2.5008387073998524" y2="-0.7509058041651161"/>
	<line stroke="#000000" stroke-width="0.025"  x1="1.7497808176183234" y1="-0.5008516181638337" x2="0.9992954474917993" y2="0.999391929284102"/>
	<line stroke="#000000" stroke-width="0.025"  x1="1.7497808176183234" y1="-0.5008516181638337" x2="2.000721202009399" y2="-0.0007226739322891778"/>
	<line stroke="#000000" stroke-width="0.025"  x1="1.7497808176183234" y1="-0.5008516181638337" x2="0.7503969119053197" y2="-1.5005294621808436"/>
	<line stroke="#000000" stroke-width="0.025"  x1="1.7497808176183234" y1="-0.5008516181638337" x2="0.750891882596029" y2="0.5002395603054275"/>
	<line stroke="#000000" stroke-width="0.025"  x1="0.750891882596029" y1="0.5002395603054275" x2="2.5008387073998524" y2="-0.7509058041651161"/>
	<line stroke="#000000" stroke-width="0.025"  x1="0.750891882596029" y1="0.5002395603054275" x2="0.9992954474917993" y2="0.999391929284102"/>
	<line stroke="#000000" stroke-width="0.025"  x1="0.750891882596029" y1="0.5002395603054275" x2="2.000721202009399" y2="-0.0007226739322891778"/>
	<line stroke="#000000" stroke-width="0.025"  x1="0.750891882596029" y1="0.5002395603054275" x2="0.0009672296897079043" y2="-0.00042668916144471015"/>
	<line stroke="#000000" stroke-width="0.025"  x1="0.750891882596029" y1="0.5002395603054275" x2="-0.25021825597631586" y2="-0.5002487470211895"/>
	<line stroke="#000000" stroke-width="0.025"  x1="-0.25021825597631586" y1="-0.5002487470211895" x2="0.9992954474917993" y2="0.999391929284102"/>
	<line stroke="#000000" stroke-width="0.025"  x1="-0.25021825597631586" y1="-0.5002487470211895" x2="0.0009144374920734797" y2="2.0008482362716657"/>
	<line stroke="#000000" stroke-width="0.025"  x1="-0.25021825597631586" y1="-0.5002487470211895" x2="0.0009672296897079043" y2="-0.00042668916144471015"/>
	<line stroke="#000000" stroke-width="0.025"  x1="-0.25021825597631586" y1="-0.5002487470211895" x2="0.7503969119053197" y2="-1.5005294621808436"/>
	<line stroke="#000000" stroke-width="0.025"  x1="-0.25021825597631586" y1="-0.5002487470211895" x2="-0.7491108863041532" y2="0.24981486603427433"/>
	<line stroke="#000000" stroke-width="0.025"  x1="2.000721202009399" y1="-0.0007226739322891778" x2="2.5008387073998524" y2="-0.7509058041651161"/>
	<line stroke="#000000" stroke-width="0.025"  x1="2.000721202009399" y1="-0.0007226739322891778" x2="0.9992954474917993" y2="0.999391929284102"/>
	<line stroke="#000000" stroke-width="0.025"  x1="2.000721202009399" y1="-0.0007226739322891778" x2="2.0005080360211718" y2="2.0000035111565664"/>
	<line stroke="#000000" stroke-width="0.025"  x1="2.5008387073998524" y1="-0.7509058041651161" x2="0.9992954474917993" y2="0.999391929284102"/>
	<line stroke="#000000" stroke-width="0.025"  x1="2.5008387073998524" y1="-0.7509058041651161" x2="2.0005080360211718" y2="2.0000035111565664"/>
	<line stroke="#000000" stroke-width="0.025"  x1="2.5008387073998524" y1="-0.7509058041651161" x2="0.7503969119053197" y2="-1.5005294621808436"/>
	<line stroke="#000000" stroke-width="0.025"  x1="2.0005080360211718" y1="2.0000035111565664" x2="0.0009144374920734797" y2="2.0008482362716657"/>
	<line stroke="#000000" stroke-width="0.025"  x1="0.0009672296897079043" y1="-0.00042668916144471015" x2="0.9992954474917993" y2="0.999391929284102"/>
	<line stroke="#000000" stroke-width="0.025"  x1="0.0009672296897079043" y1="-0.00042668916144471015" x2="0.0009144374920734797" y2="2.0008482362716657"/>
	<line stroke="#000000" stroke-width="0.025"  x1="0.0009672296897079043" y1="-0.00042668916144471015" x2="-0.7491108863041532" y2="0.24981486603427433"/>
	<line stroke="#000000" stroke-width="0.025"  x1="0.0009144374920734797" y1="2.0008482362716657" x2="-0.7491108863041532" y2="0.24981486603427433"/>
	<polyline fill="none" stroke="red" stroke-width="0.05"  points="-0.7491108863041532,0.24981486603427433 0.0009672296897079043,-0.00042668916144471015 0.750891882596029,0.5002395603054275 2.5008387073998524,-0.7509058041651161 "/>
	<rect fill="black"  x="-0.77" y="0.23" width="0.040000000000000036" height="0.04000000000000001"/>
	<rect fill="black"  x="2.48" y="-0.77" width="0.040000000000000036" height="0.040000000000000036"/>
<text fill="black"  x="-1.15" y="0.25" font-size="0.2">start</text>
<text fill="black"  x="2.55" y="-0.75" font-size="0.2">goal</text>
</svg>
