<svg width="105.9936299060862" height="110.01000776525834" viewBox="-2.279649644834741,-3.0501768272812115,6.359617794365172,6.6006004659155" xmlns="http://www.w3.org/2000/svg" style="background: #FFFFFF">
	<polygon fill="#777777"  points="0.9994185204803935,1.0004829013002035 2.000541446487899,-0.0004414983958544978 2.0005047260811075,2.0003734998079965 0.00018811333137830122,1.999989816776437 0.00032194129311145537,-0.0007374804515680093 "/>
	<polygon fill="#777777"  points="0.749829985688501,-1.5001266884549196 1.750007256626496,-0.49993726233322006 0.7508970497108657,0.5007288913826 -0.2500888718589173,-0.4990084254562855 "/>
	<polygon fill="#777777"  points=""/>
	<polygon fill="#777777"  points="-0.74968139530431,0.24910519801020387 "/>
	<polygon fill="#777777"  points="2.499994601331914,-0.7502552947822291 "/>
	<line stroke="green" stroke-width="0.02"  x1="-1.4163480619709767" y1="0.2497840031210936" x2="-0.9164838541558459" y2="-0.9166766053003338"/>
	<line stroke="green" stroke-width="0.02"  x1="-1.4163480619709767" y1="0.2497840031210936" x2="-0.8330582590924139" y2="1.7498228048648794"/>
	<line stroke="green" stroke-width="0.02"  x1="-0.9164838541558459" y1="-0.9166766053003338" x2="-0.41664672715824214" y2="-1.4997539007887084"/>
	<line stroke="green" stroke-width="0.02"  x1="-0.9164838541558459" y1="-0.9166766053003338" x2="-0.3331494419567053" y2="-0.08354690263254988"/>
	<line stroke="green" stroke-width="0.02"  x1="-0.8330582590924139" y1="1.7498228048648794" x2="0.5835003731196609" y2="2.66691227213081"/>
	<line stroke="green" stroke-width="0.02"  x1="-0.8330582590924139" y1="1.7498228048648794" x2="-0.24972378022660677" y2="0.7494525114450242"/>
	<line stroke="green" stroke-width="0.02"  x1="-0.24972378022660677" y1="0.7494525114450242" x2="-0.3331494419567053" y2="-0.08354690263254988"/>
	<line stroke="green" stroke-width="0.02"  x1="-0.3331494419567053" y1="-0.08354690263254988" x2="0.16704337304835326" y2="0.0003276618249155039"/>
	<line stroke="green" stroke-width="0.02"  x1="-0.41664672715824214" y1="-1.4997539007887084" x2="0.8333811305720351" y2="-2.1667933551215866"/>
	<line stroke="green" stroke-width="0.02"  x1="0.16704337304835326" y1="0.0003276618249155039" x2="0.5835458371614569" y2="0.5001581040770785"/>
	<line stroke="green" stroke-width="0.02"  x1="0.5835458371614569" y1="0.5001581040770785" x2="1.2502856722263862" y2="0.5002567647623163"/>
	<line stroke="green" stroke-width="0.02"  x1="1.2502856722263862" y1="0.5002567647623163" x2="1.50048191760842" y2="0.00011671021784182089"/>
	<line stroke="green" stroke-width="0.02"  x1="0.5835003731196609" y1="2.66691227213081" x2="1.8335624469148" y2="2.3335789721308102"/>
	<line stroke="green" stroke-width="0.02"  x1="1.50048191760842" y1="0.00011671021784182089" x2="2.0835144348154366" y2="-0.4168780185037679"/>
	<line stroke="green" stroke-width="0.02"  x1="1.6666106145489703" y1="-0.9167730818567895" x2="2.2499397627841096" y2="-1.5835029238973561"/>
	<line stroke="green" stroke-width="0.02"  x1="1.6666106145489703" y1="-0.9167730818567895" x2="2.0835144348154366" y2="-0.4168780185037679"/>
	<line stroke="green" stroke-width="0.02"  x1="2.0835144348154366" y1="-0.4168780185037679" x2="2.6668435163839095" y2="0.7498922688766377"/>
	<line stroke="green" stroke-width="0.02"  x1="2.500346891300307" y1="1.6667685337400462" x2="1.8335624469148" y2="2.3335789721308102"/>
	<line stroke="green" stroke-width="0.02"  x1="2.500346891300307" y1="1.6667685337400462" x2="2.6668435163839095" y2="0.7498922688766377"/>
	<line stroke="green" stroke-width="0.02"  x1="2.6668435163839095" y1="0.7498922688766377" x2="3.166661267998581" y2="-0.08333616114305069"/>
	<line stroke="green" stroke-width="0.02"  x1="0.8333811305720351" y1="-2.1667933551215866" x2="2.2499397627841096" y2="-1.5835029238973561"/>
	<line stroke="green" stroke-width="0.02"  x1="2.2499397627841096" y1="-1.5835029238973561" x2="3.166661267998581" y2="-0.08333616114305069"/>
	<line stroke="black" stroke-width="0.02"  x1="-1.74968149530431" y1="3.0003733998079967" x2="-1.7496812953043102" y2="-2.5001265884549198"/>
	<line stroke="black" stroke-width="0.02"  x1="-1.74968149530431" y1="3.0003733998079967" x2="-0.74968139530431" y2="0.24910519801020387"/>
	<line stroke="black" stroke-width="0.02"  x1="-1.74968149530431" y1="3.0003733998079967" x2="0.00018811333137830122" y2="1.999989816776437"/>
	<line stroke="black" stroke-width="0.02"  x1="-1.74968149530431" y1="3.0003733998079967" x2="3.4999945013319143" y2="3.000373599807997"/>
	<line stroke="black" stroke-width="0.02"  x1="-1.7496812953043102" y1="-2.5001265884549198" x2="-0.74968139530431" y2="0.24910519801020387"/>
	<line stroke="black" stroke-width="0.02"  x1="-1.7496812953043102" y1="-2.5001265884549198" x2="-0.2500888718589173" y2="-0.4990084254562855"/>
	<line stroke="black" stroke-width="0.02"  x1="-1.7496812953043102" y1="-2.5001265884549198" x2="0.749829985688501" y2="-1.5001266884549196"/>
	<line stroke="black" stroke-width="0.02"  x1="-1.7496812953043102" y1="-2.5001265884549198" x2="3.4999947013319144" y2="-2.50012678845492"/>
	<line stroke="black" stroke-width="0.02"  x1="-0.74968139530431" y1="0.24910519801020387" x2="-0.2500888718589173" y2="-0.4990084254562855"/>
	<line stroke="black" stroke-width="0.02"  x1="-0.74968139530431" y1="0.24910519801020387" x2="0.00018811333137830122" y2="1.999989816776437"/>
	<line stroke="black" stroke-width="0.02"  x1="-0.74968139530431" y1="0.24910519801020387" x2="0.00032194129311145537" y2="-0.0007374804515680093"/>
	<line stroke="black" stroke-width="0.02"  x1="-0.2500888718589173" y1="-0.4990084254562855" x2="0.00032194129311145537" y2="-0.0007374804515680093"/>
	<line stroke="black" stroke-width="0.02"  x1="-0.2500888718589173" y1="-0.4990084254562855" x2="0.749829985688501" y2="-1.5001266884549196"/>
	<line stroke="black" stroke-width="0.02"  x1="-0.2500888718589173" y1="-0.4990084254562855" x2="0.7508970497108657" y2="0.5007288913826"/>
	<line stroke="black" stroke-width="0.02"  x1="0.00018811333137830122" y1="1.999989816776437" x2="0.00032194129311145537" y2="-0.0007374804515680093"/>
	<line stroke="black" stroke-width="0.02"  x1="0.00018811333137830122" y1="1.999989816776437" x2="3.4999945013319143" y2="3.000373599807997"/>
	<line stroke="black" stroke-width="0.02"  x1="0.00018811333137830122" y1="1.999989816776437" x2="2.0005047260811075" y2="2.0003734998079965"/>
	<line stroke="black" stroke-width="0.02"  x1="0.00032194129311145537" y1="-0.0007374804515680093" x2="0.7508970497108657" y2="0.5007288913826"/>
	<line stroke="black" stroke-width="0.02"  x1="0.00032194129311145537" y1="-0.0007374804515680093" x2="0.9994185204803935" y2="1.0004829013002035"/>
	<line stroke="black" stroke-width="0.02"  x1="0.749829985688501" y1="-1.5001266884549196" x2="1.750007256626496" y2="-0.49993726233322006"/>
	<line stroke="black" stroke-width="0.02"  x1="0.749829985688501" y1="-1.5001266884549196" x2="2.499994601331914" y2="-0.7502552947822291"/>
	<line stroke="black" stroke-width="0.02"  x1="0.749829985688501" y1="-1.5001266884549196" x2="3.4999947013319144" y2="-2.50012678845492"/>
	<line stroke="black" stroke-width="0.02"  x1="0.7508970497108657" y1="0.5007288913826" x2="0.9994185204803935" y2="1.0004829013002035"/>
	<line stroke="black" stroke-width="0.02"  x1="0.7508970497108657" y1="0.5007288913826" x2="2.000541446487899" y2="-0.0004414983958544978"/>
	<line stroke="black" stroke-width="0.02"  x1="0.7508970497108657" y1="0.5007288913826" x2="1.750007256626496" y2="-0.49993726233322006"/>
	<line stroke="black" stroke-width="0.02"  x1="0.9994185204803935" y1="1.0004829013002035" x2="2.000541446487899" y2="-0.0004414983958544978"/>
	<line stroke="black" stroke-width="0.02"  x1="1.750007256626496" y1="-0.49993726233322006" x2="2.000541446487899" y2="-0.0004414983958544978"/>
	<line stroke="black" stroke-width="0.02"  x1="1.750007256626496" y1="-0.49993726233322006" x2="2.499994601331914" y2="-0.7502552947822291"/>
	<line stroke="black" stroke-width="0.02"  x1="2.0005047260811075" y1="2.0003734998079965" x2="3.4999945013319143" y2="3.000373599807997"/>
	<line stroke="black" stroke-width="0.02"  x1="2.0005047260811075" y1="2.0003734998079965" x2="2.000541446487899" y2="-0.0004414983958544978"/>
	<line stroke="black" stroke-width="0.02"  x1="2.000541446487899" y1="-0.0004414983958544978" x2="2.499994601331914" y2="-0.7502552947822291"/>
	<line stroke="black" stroke-width="0.02"  x1="2.000541446487899" y1="-0.0004414983958544978" x2="3.4999945013319143" y2="3.000373599807997"/>
	<line stroke="black" stroke-width="0.02"  x1="2.499994601331914" y1="-0.7502552947822291" x2="3.4999945013319143" y2="3.000373599807997"/>
	<line stroke="black" stroke-width="0.02"  x1="2.499994601331914" y1="-0.7502552947822291" x2="3.4999947013319144" y2="-2.50012678845492"/>
	<line stroke="black" stroke-width="0.02"  x1="3.4999945013319143" y1="3.000373599807997" x2="3.4999947013319144" y2="-2.50012678845492"/>
	<rect fill="black"  x="-0.77" y="0.23" width="0.040000000000000036" height="0.04000000000000001"/>
	<rect fill="black"  x="2.48" y="-0.77" width="0.040000000000000036" height="0.040000000000000036"/>
<text fill="black"  x="-1.15" y="0.25" font-size="0.2">xstart</text>
<text fill="black"  x="2.55" y="-0.75" font-size="0.2">xgoal</text>
</svg>
