<svg width="400" height="412" viewBox="-7,-5.66,24,24.720000000000002" xmlns="http://www.w3.org/2000/svg" style="background: ">
	<polygon fill="#555555"  points="-5,1 2,2 0,7 -4,6 "/>
	<polygon fill="#555555"  points="9,-1 15,3 6,9 5,6 "/>
	<polygon fill="#555555"  points="-1,9 5,13 11,10 13,14 2,17 "/>
	<path fill="none" stroke="blue" stroke-width="0.2"  d="M 0 0 A 1.8 1.8 0 0 1 1.6131459618539215 1.0014011609359885"/>
	<line fill="none" stroke="blue" stroke-width="0.2"  x1="1.6131459618539215" y1="1.0014011609359885" x2="1.6131459618539215" y2="1.0014011609359885"/>
	<line fill="none" stroke="blue" stroke-width="0.2"  x1="1.6131459618539215" y1="1.0014011609359885" x2="1.6131459618539215" y2="1.0014011609359885"/>
	<line fill="none" stroke="blue" stroke-width="0.2"  x1="1.6131459618539215" y1="1.0014011609359885" x2="1.6131459618539215" y2="1.0014011609359885"/>
	<line fill="none" stroke="blue" stroke-width="0.2"  x1="1.6131459618539215" y1="1.0014011609359885" x2="1.6131459618539215" y2="1.0014011609359885"/>
	<path fill="none" stroke="blue" stroke-width="0.2"  d="M 1.6131459618539215 1.0014011609359885 A 1.8 1.8 0 0 0 1.7480190765396082 1.229792774274102"/>
	<line fill="none" stroke="blue" stroke-width="0.2"  x1="1.7480190765396082" y1="1.229792774274102" x2="2.7376482539442617" y2="2.6542869731256316"/>
	<line fill="none" stroke="blue" stroke-width="0.2"  x1="2.7376482539442617" y1="2.6542869731256316" x2="2.7376482539442617" y2="2.6542869731256316"/>
	<line fill="none" stroke="blue" stroke-width="0.2"  x1="2.7376482539442617" y1="2.6542869731256316" x2="2.7376482539442617" y2="2.6542869731256316"/>
	<line fill="none" stroke="blue" stroke-width="0.2"  x1="2.7376482539442617" y1="2.6542869731256316" x2="2.7376482539442617" y2="2.6542869731256316"/>
	<path fill="none" stroke="blue" stroke-width="0.2"  d="M 2.7376482539442617 2.6542869731256316 A 1.8 1.8 0 0 1 3.0559355282721414 3.7925057036312455"/>
	<line fill="none" stroke="blue" stroke-width="0.2"  x1="3.0559355282721414" y1="3.7925057036312455" x2="3.006761225791465" y2="4.5867694677162465"/>
	<line fill="none" stroke="blue" stroke-width="0.2"  x1="3.006761225791465" y1="4.5867694677162465" x2="3.006761225791465" y2="4.5867694677162465"/>
	<line fill="none" stroke="blue" stroke-width="0.2"  x1="3.006761225791465" y1="4.5867694677162465" x2="3.006761225791465" y2="4.5867694677162465"/>
	<line fill="none" stroke="blue" stroke-width="0.2"  x1="3.006761225791465" y1="4.5867694677162465" x2="3.006761225791465" y2="4.5867694677162465"/>
	<path fill="none" stroke="blue" stroke-width="0.2"  d="M 3.006761225791465 4.5867694677162465 A 1.8 1.8 0 0 0 3.436348362456724 5.869059169803388"/>
	<line fill="none" stroke="blue" stroke-width="0.2"  x1="3.436348362456724" y1="5.869059169803388" x2="3.835583781460071" y2="6.335084282737875"/>
	<line fill="none" stroke="blue" stroke-width="0.2"  x1="3.835583781460071" y1="6.335084282737875" x2="3.835583781460071" y2="6.335084282737875"/>
	<line fill="none" stroke="blue" stroke-width="0.2"  x1="3.835583781460071" y1="6.335084282737875" x2="3.835583781460071" y2="6.335084282737875"/>
	<line fill="none" stroke="blue" stroke-width="0.2"  x1="3.835583781460071" y1="6.335084282737875" x2="3.835583781460071" y2="6.335084282737875"/>
	<path fill="none" stroke="blue" stroke-width="0.2"  d="M 3.835583781460072 6.335084282737877 A 1.8 1.8 0 0 1 3.870646448014935 6.377298492859786"/>
	<line fill="none" stroke="blue" stroke-width="0.2"  x1="3.870646448014935" y1="6.377298492859786" x2="4.796154954062132" y2="7.526786134061364"/>
	<path fill="none" stroke="blue" stroke-width="0.2"  d="M 4.796154954062132 7.526786134061364 A 1.8 1.8 0 0 1 5.017399990335647 7.877841724753663"/>
	<line fill="none" stroke="blue" stroke-width="0.2"  x1="5.017399990335647" y1="7.877841724753663" x2="5.017399990335647" y2="7.877841724753663"/>
	<line fill="none" stroke="blue" stroke-width="0.2"  x1="5.017399990335647" y1="7.877841724753663" x2="5.017399990335647" y2="7.877841724753663"/>
	<path fill="none" stroke="blue" stroke-width="0.2"  d="M 5.017399990335648 7.877841724753663 A 1.8 1.8 0 0 1 5.1110598384636 8.115156524580234"/>
	<line fill="none" stroke="blue" stroke-width="0.2"  x1="5.1110598384636" y1="8.115156524580234" x2="5.210952047623773" y2="8.43248554908057"/>
	<path fill="none" stroke="blue" stroke-width="0.2"  d="M 5.210952047623773 8.43248554908057 A 1.8 1.8 0 0 0 6.011495756082109 9.441272052245367"/>
	<line fill="none" stroke="blue" stroke-width="0.2"  x1="6.011495756082109" y1="9.441272052245367" x2="6.011495756082109" y2="9.441272052245367"/>
	<line fill="none" stroke="blue" stroke-width="0.2"  x1="6.011495756082109" y1="9.441272052245367" x2="6.011495756082109" y2="9.441272052245367"/>
	<path fill="none" stroke="blue" stroke-width="0.2"  d="M 6.011495756082109 9.441272052245365 A 1.8 1.8 0 0 0 6.290373957211075 9.575329848176372"/>
	<line fill="none" stroke="blue" stroke-width="0.2"  x1="6.290373957211075" y1="9.575329848176372" x2="6.72166051485175" y2="9.738669575849503"/>
	<path fill="none" stroke="blue" stroke-width="0.2"  d="M 6.72166051485175 9.738669575849503 A 1.8 1.8 0 0 0 7.926679814280493 9.763547208206296"/>
	<line fill="none" stroke="blue" stroke-width="0.2"  x1="7.926679814280493" y1="9.763547208206296" x2="7.926679814280493" y2="9.763547208206296"/>
	<line fill="none" stroke="blue" stroke-width="0.2"  x1="7.926679814280493" y1="9.763547208206296" x2="7.926679814280493" y2="9.763547208206296"/>
	<path fill="none" stroke="blue" stroke-width="0.2"  d="M 7.926679814280493 9.763547208206296 A 1.8 1.8 0 0 0 8.288210429829565 9.59706855267386"/>
	<line fill="none" stroke="blue" stroke-width="0.2"  x1="8.288210429829565" y1="9.59706855267386" x2="8.423366670600146" y2="9.515624212284516"/>
	<path fill="none" stroke="blue" stroke-width="0.2"  d="M 8.423366670600146 9.515624212284516 A 1.8 1.8 0 0 1 8.457182222595302 9.495746160736505"/>
	<line fill="none" stroke="blue" stroke-width="0.2"  x1="8.457182222595302" y1="9.495746160736505" x2="8.457182222595302" y2="9.495746160736505"/>
	<line fill="none" stroke="blue" stroke-width="0.2"  x1="8.457182222595302" y1="9.495746160736505" x2="8.457182222595302" y2="9.495746160736505"/>
	<path fill="none" stroke="blue" stroke-width="0.2"  d="M 8.4571822225953 9.495746160736505 A 1.8 1.8 0 0 1 8.687674117505685 9.384579470320187"/>
	<line fill="none" stroke="blue" stroke-width="0.2"  x1="8.687674117505685" y1="9.384579470320187" x2="9.335276158127613" y2="9.127235158772635"/>
	<path fill="none" stroke="blue" stroke-width="0.2"  d="M 9.335276158127613 9.127235158772635 A 1.8 1.8 0 0 1 10 9"/>
	<line fill="none" stroke="blue" stroke-width="0.2"  x1="10" y1="9" x2="10" y2="9"/>
	<line fill="none" stroke="blue" stroke-width="0.2"  x1="10" y1="9" x2="10" y2="9"/>
	<path fill="none" stroke="green" stroke-width="0.2"  d="M 0 0 A 1.8 1.8 0 0 1 0.1921250282721191 0.010282711288892576"/>
	<line fill="none" stroke="green" stroke-width="0.2"  x1="0.1921250282721191" y1="0.010282711288892576" x2="0.1921250282721191" y2="0.010282711288892576"/>
	<line fill="none" stroke="green" stroke-width="0.2"  x1="0.1921250282721191" y1="0.010282711288892576" x2="0.1921250282721191" y2="0.010282711288892576"/>
	<line fill="none" stroke="green" stroke-width="0.2"  x1="0.1921250282721191" y1="0.010282711288892576" x2="0.1921250282721191" y2="0.010282711288892576"/>
	<line fill="none" stroke="green" stroke-width="0.2"  x1="0.1921250282721191" y1="0.010282711288892576" x2="0.1921250282721191" y2="0.010282711288892576"/>
	<path fill="none" stroke="green" stroke-width="0.2"  d="M 0.1921250282721191 0.010282711288892576 A 1.8 1.8 0 0 1 0.2923790187650167 0.0239047014909346"/>
	<line fill="none" stroke="green" stroke-width="0.2"  x1="0.2923790187650167" y1="0.0239047014909346" x2="0.2923790187650167" y2="0.0239047014909346"/>
	<line fill="none" stroke="green" stroke-width="0.2"  x1="0.2923790187650167" y1="0.0239047014909346" x2="0.2923790187650167" y2="0.0239047014909346"/>
	<line fill="none" stroke="green" stroke-width="0.2"  x1="0.2923790187650167" y1="0.0239047014909346" x2="0.2923790187650167" y2="0.0239047014909346"/>
	<line fill="none" stroke="green" stroke-width="0.2"  x1="0.2923790187650167" y1="0.0239047014909346" x2="0.2923790187650167" y2="0.0239047014909346"/>
	<path fill="none" stroke="green" stroke-width="0.2"  d="M 0.2923790187650167 0.0239047014909346 A 1.8 1.8 0 0 1 0.6417831896594762 0.11830016427707624"/>
	<line fill="none" stroke="green" stroke-width="0.2"  x1="0.6417831896594762" y1="0.11830016427707624" x2="0.6417831896594762" y2="0.11830016427707624"/>
	<line fill="none" stroke="green" stroke-width="0.2"  x1="0.6417831896594762" y1="0.11830016427707624" x2="0.6417831896594762" y2="0.11830016427707624"/>
	<line fill="none" stroke="green" stroke-width="0.2"  x1="0.6417831896594762" y1="0.11830016427707624" x2="0.6417831896594762" y2="0.11830016427707624"/>
	<line fill="none" stroke="green" stroke-width="0.2"  x1="0.6417831896594762" y1="0.11830016427707624" x2="0.6417831896594762" y2="0.11830016427707624"/>
	<path fill="none" stroke="green" stroke-width="0.2"  d="M 0.6417831896594762 0.11830016427707624 A 1.8 1.8 0 0 1 1.470733189545557 0.7622409310590665"/>
	<line fill="none" stroke="green" stroke-width="0.2"  x1="1.470733189545557" y1="0.7622409310590665" x2="1.470733189545557" y2="0.7622409310590665"/>
	<line fill="none" stroke="green" stroke-width="0.2"  x1="1.470733189545557" y1="0.7622409310590665" x2="1.470733189545557" y2="0.7622409310590665"/>
	<line fill="none" stroke="green" stroke-width="0.2"  x1="1.470733189545557" y1="0.7622409310590665" x2="1.470733189545557" y2="0.7622409310590665"/>
	<line fill="none" stroke="green" stroke-width="0.2"  x1="1.470733189545557" y1="0.7622409310590665" x2="1.470733189545557" y2="0.7622409310590665"/>
	<path fill="none" stroke="green" stroke-width="0.2"  d="M 1.470733189545557 0.7622409310590665 A 1.8 1.8 0 0 1 1.4720883868643957 0.7641642112482394"/>
	<line fill="none" stroke="green" stroke-width="0.2"  x1="1.4720883868643957" y1="0.7641642112482394" x2="1.4720883868643957" y2="0.7641642112482394"/>
	<line fill="none" stroke="green" stroke-width="0.2"  x1="1.4720883868643957" y1="0.7641642112482394" x2="1.4720883868643957" y2="0.7641642112482394"/>
	<line fill="none" stroke="green" stroke-width="0.2"  x1="1.4720883868643957" y1="0.7641642112482394" x2="1.4720883868643957" y2="0.7641642112482394"/>
	<line fill="none" stroke="green" stroke-width="0.2"  x1="1.4720883868643957" y1="0.7641642112482394" x2="1.4720883868643957" y2="0.7641642112482394"/>
	<path fill="none" stroke="green" stroke-width="0.2"  d="M 1.4720883868643957 0.7641642112482394 A 1.8 1.8 0 0 1 1.5868055219305377 0.9502657853359353"/>
	<line fill="none" stroke="green" stroke-width="0.2"  x1="1.5868055219305377" y1="0.9502657853359353" x2="1.889509464680516" y2="1.5155393492063816"/>
	<line fill="none" stroke="green" stroke-width="0.2"  x1="1.889509464680516" y1="1.5155393492063816" x2="1.889509464680516" y2="1.5155393492063816"/>
	<line fill="none" stroke="green" stroke-width="0.2"  x1="1.889509464680516" y1="1.5155393492063816" x2="1.889509464680516" y2="1.5155393492063816"/>
	<line fill="none" stroke="green" stroke-width="0.2"  x1="1.889509464680516" y1="1.5155393492063816" x2="1.889509464680516" y2="1.5155393492063816"/>
	<line fill="none" stroke="green" stroke-width="0.2"  x1="1.8895094646805222" y1="1.5155393492063935" x2="1.8895094646805222" y2="1.5155393492063935"/>
	<line fill="none" stroke="green" stroke-width="0.2"  x1="1.8895094646805222" y1="1.5155393492063935" x2="2.4613419965600487" y2="2.5833873933912415"/>
	<line fill="none" stroke="green" stroke-width="0.2"  x1="2.4613419965600487" y1="2.5833873933912415" x2="2.4613419965600487" y2="2.5833873933912415"/>
	<line fill="none" stroke="green" stroke-width="0.2"  x1="2.4613419965600487" y1="2.5833873933912415" x2="2.4613419965600487" y2="2.5833873933912415"/>
	<line fill="none" stroke="green" stroke-width="0.2"  x1="2.4613419965600487" y1="2.5833873933912415" x2="2.4613419965600487" y2="2.5833873933912415"/>
	<line fill="none" stroke="green" stroke-width="0.2"  x1="2.4613419965600487" y1="2.5833873933912415" x2="2.4613419965600487" y2="2.5833873933912415"/>
	<line fill="none" stroke="green" stroke-width="0.2"  x1="2.4613419965600487" y1="2.5833873933912415" x2="2.7203716353240015" y2="3.0671029529639684"/>
	<line fill="none" stroke="green" stroke-width="0.2"  x1="2.7203716353240015" y1="3.0671029529639684" x2="2.7203716353240015" y2="3.0671029529639684"/>
	<line fill="none" stroke="green" stroke-width="0.2"  x1="2.7203716353240015" y1="3.0671029529639684" x2="2.7203716353240015" y2="3.0671029529639684"/>
	<line fill="none" stroke="green" stroke-width="0.2"  x1="2.7203716353240015" y1="3.0671029529639684" x2="2.7203716353240015" y2="3.0671029529639684"/>
	<line fill="none" stroke="green" stroke-width="0.2"  x1="2.7203716353240015" y1="3.0671029529639684" x2="2.7203716353240015" y2="3.0671029529639684"/>
	<line fill="none" stroke="green" stroke-width="0.2"  x1="2.7203716353240015" y1="3.0671029529639684" x2="2.838498650075621" y2="3.2876949875816965"/>
	<line fill="none" stroke="green" stroke-width="0.2"  x1="2.838498650075621" y1="3.2876949875816965" x2="2.838498650075621" y2="3.2876949875816965"/>
	<line fill="none" stroke="green" stroke-width="0.2"  x1="2.838498650075621" y1="3.2876949875816965" x2="2.838498650075621" y2="3.2876949875816965"/>
	<line fill="none" stroke="green" stroke-width="0.2"  x1="2.838498650075621" y1="3.2876949875816965" x2="2.838498650075621" y2="3.2876949875816965"/>
	<line fill="none" stroke="green" stroke-width="0.2"  x1="2.838498650075627" y1="3.287694987581709" x2="2.838498650075627" y2="3.287694987581709"/>
	<line fill="none" stroke="green" stroke-width="0.2"  x1="2.838498650075627" y1="3.287694987581709" x2="4.24266367373924" y2="5.909852333725597"/>
	<line fill="none" stroke="green" stroke-width="0.2"  x1="4.24266367373924" y1="5.909852333725597" x2="4.24266367373924" y2="5.909852333725597"/>
	<line fill="none" stroke="green" stroke-width="0.2"  x1="4.24266367373924" y1="5.909852333725597" x2="4.24266367373924" y2="5.909852333725597"/>
	<line fill="none" stroke="green" stroke-width="0.2"  x1="4.24266367373924" y1="5.909852333725597" x2="4.24266367373924" y2="5.909852333725597"/>
	<line fill="none" stroke="green" stroke-width="0.2"  x1="4.24266367373924" y1="5.909852333725597" x2="4.24266367373924" y2="5.909852333725597"/>
	<line fill="none" stroke="green" stroke-width="0.2"  x1="4.24266367373924" y1="5.909852333725597" x2="4.681433713203846" y2="6.729217624030383"/>
	<line fill="none" stroke="green" stroke-width="0.2"  x1="4.681433713203846" y1="6.729217624030383" x2="4.681433713203846" y2="6.729217624030383"/>
	<line fill="none" stroke="green" stroke-width="0.2"  x1="4.681433713203846" y1="6.729217624030383" x2="4.681433713203846" y2="6.729217624030383"/>
	<line fill="none" stroke="green" stroke-width="0.2"  x1="4.681433713203846" y1="6.729217624030383" x2="4.681433713203846" y2="6.729217624030383"/>
	<line fill="none" stroke="green" stroke-width="0.2"  x1="4.681433713203846" y1="6.729217624030383" x2="4.681433713203846" y2="6.729217624030383"/>
	<line fill="none" stroke="green" stroke-width="0.2"  x1="4.681433713203846" y1="6.729217624030383" x2="4.8899422515418935" y2="7.11858937615559"/>
	<line fill="none" stroke="green" stroke-width="0.2"  x1="4.8899422515418935" y1="7.11858937615559" x2="4.8899422515418935" y2="7.11858937615559"/>
	<line fill="none" stroke="green" stroke-width="0.2"  x1="4.8899422515418935" y1="7.11858937615559" x2="4.8899422515418935" y2="7.11858937615559"/>
	<line fill="none" stroke="green" stroke-width="0.2"  x1="4.8899422515418935" y1="7.11858937615559" x2="4.8899422515418935" y2="7.11858937615559"/>
	<line fill="none" stroke="green" stroke-width="0.2"  x1="4.889942251541894" y1="7.118589376155592" x2="4.889942251541894" y2="7.118589376155592"/>
	<line fill="none" stroke="green" stroke-width="0.2"  x1="4.889942251541894" y1="7.118589376155592" x2="5.254482269316693" y2="7.7993364888258805"/>
	<line fill="none" stroke="green" stroke-width="0.2"  x1="5.254482269316693" y1="7.7993364888258805" x2="5.254482269316693" y2="7.7993364888258805"/>
	<line fill="none" stroke="green" stroke-width="0.2"  x1="5.254482269316693" y1="7.7993364888258805" x2="5.254482269316693" y2="7.7993364888258805"/>
	<line fill="none" stroke="green" stroke-width="0.2"  x1="5.254482269316693" y1="7.7993364888258805" x2="5.254482269316693" y2="7.7993364888258805"/>
	<line fill="none" stroke="green" stroke-width="0.2"  x1="5.254482269316693" y1="7.7993364888258805" x2="5.254482269316693" y2="7.7993364888258805"/>
	<line fill="none" stroke="green" stroke-width="0.2"  x1="5.254482269316693" y1="7.7993364888258805" x2="5.673506665078305" y2="8.581828488728476"/>
	<line fill="none" stroke="green" stroke-width="0.2"  x1="5.673506665078305" y1="8.581828488728476" x2="5.673506665078305" y2="8.581828488728476"/>
	<line fill="none" stroke="green" stroke-width="0.2"  x1="5.673506665078305" y1="8.581828488728476" x2="5.673506665078305" y2="8.581828488728476"/>
	<line fill="none" stroke="green" stroke-width="0.2"  x1="5.673506665078305" y1="8.581828488728476" x2="5.673506665078305" y2="8.581828488728476"/>
	<path fill="none" stroke="green" stroke-width="0.2"  d="M 5.673506665078305 8.581828488728476 A 1.8 1.8 0 0 0 6.951924406525883 9.505480012376534"/>
	<line fill="none" stroke="green" stroke-width="0.2"  x1="6.951924406525883" y1="9.505480012376534" x2="6.951924406525883" y2="9.505480012376534"/>
	<line fill="none" stroke="green" stroke-width="0.2"  x1="6.951924406525883" y1="9.505480012376534" x2="6.951924406525883" y2="9.505480012376534"/>
	<line fill="none" stroke="green" stroke-width="0.2"  x1="6.951924406525883" y1="9.505480012376534" x2="6.951924406525883" y2="9.505480012376534"/>
	<line fill="none" stroke="green" stroke-width="0.2"  x1="6.951924406525883" y1="9.505480012376534" x2="6.951924406525883" y2="9.505480012376534"/>
	<path fill="none" stroke="green" stroke-width="0.2"  d="M 6.951924406525883 9.505480012376534 A 1.8 1.8 0 0 0 7.545449025809345 9.509366617617559"/>
	<line fill="none" stroke="green" stroke-width="0.2"  x1="7.545449025809345" y1="9.509366617617559" x2="7.923656341486363" y2="9.448688894929447"/>
	<path fill="none" stroke="green" stroke-width="0.2"  d="M 7.923656341486363 9.448688894929447 A 1.8 1.8 0 0 0 8.06611128776645 9.419891677116336"/>
	<line fill="none" stroke="green" stroke-width="0.2"  x1="8.06611128776645" y1="9.419891677116336" x2="8.06611128776645" y2="9.419891677116336"/>
	<line fill="none" stroke="green" stroke-width="0.2"  x1="8.06611128776645" y1="9.419891677116336" x2="8.06611128776645" y2="9.419891677116336"/>
	<line fill="none" stroke="green" stroke-width="0.2"  x1="8.06611128776645" y1="9.419891677116338" x2="8.06611128776645" y2="9.419891677116338"/>
	<line fill="none" stroke="green" stroke-width="0.2"  x1="8.06611128776645" y1="9.419891677116338" x2="8.245039914927485" y2="9.376134456917152"/>
	<line fill="none" stroke="green" stroke-width="0.2"  x1="8.245039914927485" y1="9.376134456917152" x2="8.245039914927485" y2="9.376134456917152"/>
	<line fill="none" stroke="green" stroke-width="0.2"  x1="8.245039914927485" y1="9.376134456917152" x2="8.245039914927485" y2="9.376134456917152"/>
	<line fill="none" stroke="green" stroke-width="0.2"  x1="8.245039914927485" y1="9.376134456917152" x2="8.245039914927485" y2="9.376134456917152"/>
	<line fill="none" stroke="green" stroke-width="0.2"  x1="8.245039914927485" y1="9.376134456917152" x2="8.245039914927485" y2="9.376134456917152"/>
	<line fill="none" stroke="green" stroke-width="0.2"  x1="8.245039914927485" y1="9.376134456917152" x2="8.38387609394432" y2="9.342181895198866"/>
	<line fill="none" stroke="green" stroke-width="0.2"  x1="8.38387609394432" y1="9.342181895198866" x2="8.38387609394432" y2="9.342181895198866"/>
	<line fill="none" stroke="green" stroke-width="0.2"  x1="8.38387609394432" y1="9.342181895198866" x2="8.38387609394432" y2="9.342181895198866"/>
	<line fill="none" stroke="green" stroke-width="0.2"  x1="8.38387609394432" y1="9.342181895198866" x2="8.38387609394432" y2="9.342181895198866"/>
	<line fill="none" stroke="green" stroke-width="0.2"  x1="8.383876093944345" y1="9.34218189519886" x2="8.383876093944345" y2="9.34218189519886"/>
	<line fill="none" stroke="green" stroke-width="0.2"  x1="8.383876093944345" y1="9.34218189519886" x2="8.559415394374913" y2="9.299253539102782"/>
	<line fill="none" stroke="green" stroke-width="0.2"  x1="8.559415394374913" y1="9.299253539102782" x2="8.559415394374913" y2="9.299253539102782"/>
	<line fill="none" stroke="green" stroke-width="0.2"  x1="8.559415394374913" y1="9.299253539102782" x2="8.559415394374913" y2="9.299253539102782"/>
	<line fill="none" stroke="green" stroke-width="0.2"  x1="8.559415394374913" y1="9.299253539102782" x2="8.559415394374913" y2="9.299253539102782"/>
	<line fill="none" stroke="green" stroke-width="0.2"  x1="8.559415394374913" y1="9.299253539102782" x2="8.559415394374913" y2="9.299253539102782"/>
	<line fill="none" stroke="green" stroke-width="0.2"  x1="8.559415394374913" y1="9.299253539102782" x2="8.653654669908713" y2="9.276207206068365"/>
	<line fill="none" stroke="green" stroke-width="0.2"  x1="8.653654669908713" y1="9.276207206068365" x2="8.653654669908713" y2="9.276207206068365"/>
	<line fill="none" stroke="green" stroke-width="0.2"  x1="8.653654669908713" y1="9.276207206068365" x2="8.653654669908713" y2="9.276207206068365"/>
	<line fill="none" stroke="green" stroke-width="0.2"  x1="8.653654669908713" y1="9.276207206068365" x2="8.653654669908713" y2="9.276207206068365"/>
	<line fill="none" stroke="green" stroke-width="0.2"  x1="8.653654669908759" y1="9.276207206068353" x2="8.653654669908759" y2="9.276207206068353"/>
	<line fill="none" stroke="green" stroke-width="0.2"  x1="8.653654669908759" y1="9.276207206068353" x2="8.882292640533898" y2="9.220293503575487"/>
	<line fill="none" stroke="green" stroke-width="0.2"  x1="8.882292640533898" y1="9.220293503575487" x2="8.882292640533898" y2="9.220293503575487"/>
	<line fill="none" stroke="green" stroke-width="0.2"  x1="8.882292640533898" y1="9.220293503575487" x2="8.882292640533898" y2="9.220293503575487"/>
	<line fill="none" stroke="green" stroke-width="0.2"  x1="8.882292640533898" y1="9.220293503575487" x2="8.882292640533898" y2="9.220293503575487"/>
	<line fill="none" stroke="green" stroke-width="0.2"  x1="8.882292640533898" y1="9.220293503575487" x2="8.882292640533898" y2="9.220293503575487"/>
	<line fill="none" stroke="green" stroke-width="0.2"  x1="8.882292640533898" y1="9.220293503575487" x2="8.887573669992912" y2="9.219002021197385"/>
	<line fill="none" stroke="green" stroke-width="0.2"  x1="8.887573669992912" y1="9.219002021197385" x2="8.887573669992912" y2="9.219002021197385"/>
	<line fill="none" stroke="green" stroke-width="0.2"  x1="8.887573669992912" y1="9.219002021197385" x2="8.887573669992912" y2="9.219002021197385"/>
	<line fill="none" stroke="green" stroke-width="0.2"  x1="8.887573669992912" y1="9.219002021197385" x2="8.887573669992912" y2="9.219002021197385"/>
	<line fill="none" stroke="green" stroke-width="0.2"  x1="8.887573669992912" y1="9.219002021197385" x2="8.887573669992912" y2="9.219002021197385"/>
	<line fill="none" stroke="green" stroke-width="0.2"  x1="8.887573669992912" y1="9.219002021197385" x2="9.254419665338498" y2="9.129289372907298"/>
	<line fill="none" stroke="green" stroke-width="0.2"  x1="9.254419665338498" y1="9.129289372907298" x2="9.254419665338498" y2="9.129289372907298"/>
	<line fill="none" stroke="green" stroke-width="0.2"  x1="9.254419665338498" y1="9.129289372907298" x2="9.254419665338498" y2="9.129289372907298"/>
	<line fill="none" stroke="green" stroke-width="0.2"  x1="9.254419665338498" y1="9.129289372907298" x2="9.254419665338498" y2="9.129289372907298"/>
	<line fill="none" stroke="green" stroke-width="0.2"  x1="9.254419665338498" y1="9.129289372907298" x2="9.254419665338498" y2="9.129289372907298"/>
	<line fill="none" stroke="green" stroke-width="0.2"  x1="9.254419665338498" y1="9.129289372907298" x2="9.3439354713704" y2="9.107398170264133"/>
	<line fill="none" stroke="green" stroke-width="0.2"  x1="9.3439354713704" y1="9.107398170264133" x2="9.3439354713704" y2="9.107398170264133"/>
	<line fill="none" stroke="green" stroke-width="0.2"  x1="9.3439354713704" y1="9.107398170264133" x2="9.3439354713704" y2="9.107398170264133"/>
	<line fill="none" stroke="green" stroke-width="0.2"  x1="9.3439354713704" y1="9.107398170264133" x2="9.3439354713704" y2="9.107398170264133"/>
	<line fill="none" stroke="green" stroke-width="0.2"  x1="9.343935471370449" y1="9.107398170264123" x2="9.343935471370449" y2="9.107398170264123"/>
	<line fill="none" stroke="green" stroke-width="0.2"  x1="9.343935471370449" y1="9.107398170264123" x2="9.491078309809964" y2="9.071414204565126"/>
	<line fill="none" stroke="green" stroke-width="0.2"  x1="9.491078309809964" y1="9.071414204565126" x2="9.491078309809964" y2="9.071414204565126"/>
	<line fill="none" stroke="green" stroke-width="0.2"  x1="9.491078309809964" y1="9.071414204565126" x2="9.491078309809964" y2="9.071414204565126"/>
	<line fill="none" stroke="green" stroke-width="0.2"  x1="9.491078309809964" y1="9.071414204565126" x2="9.491078309809964" y2="9.071414204565126"/>
	<line fill="none" stroke="green" stroke-width="0.2"  x1="9.491078309809964" y1="9.071414204565126" x2="9.491078309809964" y2="9.071414204565126"/>
	<line fill="none" stroke="green" stroke-width="0.2"  x1="9.491078309809964" y1="9.071414204565126" x2="9.551049703077808" y2="9.056748125120437"/>
	<line fill="none" stroke="green" stroke-width="0.2"  x1="9.551049703077808" y1="9.056748125120437" x2="9.551049703077808" y2="9.056748125120437"/>
	<line fill="none" stroke="green" stroke-width="0.2"  x1="9.551049703077808" y1="9.056748125120437" x2="9.551049703077808" y2="9.056748125120437"/>
	<line fill="none" stroke="green" stroke-width="0.2"  x1="9.551049703077808" y1="9.056748125120437" x2="9.551049703077808" y2="9.056748125120437"/>
	<line fill="none" stroke="green" stroke-width="0.2"  x1="9.551049703077808" y1="9.056748125120437" x2="9.551049703077808" y2="9.056748125120437"/>
	<line fill="none" stroke="green" stroke-width="0.2"  x1="9.551049703077808" y1="9.056748125120437" x2="9.57240821491917" y2="9.051524874260036"/>
	<path fill="none" stroke="green" stroke-width="0.2"  d="M 9.57240821491917 9.051524874260036 A 1.8 1.8 0 0 1 9.744237449117346 9.01826334225119"/>
	<line fill="none" stroke="green" stroke-width="0.2"  x1="9.744237449117346" y1="9.01826334225119" x2="9.744237449117346" y2="9.01826334225119"/>
	<line fill="none" stroke="green" stroke-width="0.2"  x1="9.744237449117346" y1="9.01826334225119" x2="9.744237449117346" y2="9.01826334225119"/>
	<line fill="none" stroke="green" stroke-width="0.2"  x1="9.74423744911749" y1="9.018263342251142" x2="9.74423744911749" y2="9.018263342251142"/>
	<line fill="none" stroke="green" stroke-width="0.2"  x1="9.74423744911749" y1="9.018263342251142" x2="9.74423744911749" y2="9.018263342251142"/>
	<path fill="none" stroke="green" stroke-width="0.2"  d="M 9.74423744911749 9.018263342251142 A 1.8 1.8 0 0 1 9.91080819874585 9.002211129584722"/>
	<line fill="none" stroke="green" stroke-width="0.2"  x1="9.91080819874585" y1="9.002211129584722" x2="9.91080819874585" y2="9.002211129584722"/>
	<line fill="none" stroke="green" stroke-width="0.2"  x1="9.91080819874585" y1="9.002211129584722" x2="9.91080819874585" y2="9.002211129584722"/>
	<line fill="none" stroke="green" stroke-width="0.2"  x1="9.91080819874585" y1="9.002211129584722" x2="9.91080819874585" y2="9.002211129584722"/>
	<line fill="none" stroke="green" stroke-width="0.2"  x1="9.91080819874585" y1="9.002211129584722" x2="9.91080819874585" y2="9.002211129584722"/>
	<path fill="none" stroke="green" stroke-width="0.2"  d="M 9.91080819874585 9.002211129584722 A 1.8 1.8 0 0 1 9.9245268492937 9.001582972855722"/>
	<line fill="none" stroke="green" stroke-width="0.2"  x1="9.9245268492937" y1="9.001582972855722" x2="9.9245268492937" y2="9.001582972855722"/>
	<line fill="none" stroke="green" stroke-width="0.2"  x1="9.9245268492937" y1="9.001582972855722" x2="9.9245268492937" y2="9.001582972855722"/>
	<line fill="none" stroke="green" stroke-width="0.2"  x1="9.9245268492937" y1="9.001582972855722" x2="9.9245268492937" y2="9.001582972855722"/>
	<line fill="none" stroke="green" stroke-width="0.2"  x1="9.9245268492937" y1="9.001582972855722" x2="9.9245268492937" y2="9.001582972855722"/>
	<path fill="none" stroke="green" stroke-width="0.2"  d="M 9.9245268492937 9.001582972855722 A 1.8 1.8 0 0 1 9.927569158881484 9.00145787559622"/>
	<line fill="none" stroke="green" stroke-width="0.2"  x1="9.927569158881484" y1="9.00145787559622" x2="9.927569158881484" y2="9.00145787559622"/>
	<line fill="none" stroke="green" stroke-width="0.2"  x1="9.927569158881484" y1="9.00145787559622" x2="9.927569158881484" y2="9.00145787559622"/>
	<line fill="none" stroke="green" stroke-width="0.2"  x1="9.927569158881486" y1="9.00145787559622" x2="9.927569158881486" y2="9.00145787559622"/>
	<line fill="none" stroke="green" stroke-width="0.2"  x1="9.927569158881486" y1="9.00145787559622" x2="9.927569158881486" y2="9.00145787559622"/>
	<path fill="none" stroke="green" stroke-width="0.2"  d="M 9.927569158881486 9.00145787559622 A 1.8 1.8 0 0 1 10 9"/>
	<line fill="none" stroke="green" stroke-width="0.2"  x1="10" y1="9" x2="10" y2="9"/>
	<line fill="none" stroke="green" stroke-width="0.2"  x1="10" y1="9" x2="10" y2="9"/>
</svg>
