<svg width="105.9936299060862" height="110.01000776525834" viewBox="-2.279649644834741,-3.0501768272812115,6.359617794365172,6.6006004659155" xmlns="http://www.w3.org/2000/svg" style="background: #FFFFFF">
	<polygon fill="#777777"  points="0.9994185204803935,1.0004829013002035 2.000541446487899,-0.0004414983958544978 2.0005047260811075,2.0003734998079965 0.00018811333137830122,1.999989816776437 0.00032194129311145537,-0.0007374804515680093 "/>
	<polygon fill="#777777"  points="0.749829985688501,-1.5001266884549196 1.750007256626496,-0.49993726233322006 0.7508970497108657,0.5007288913826 -0.2500888718589173,-0.4990084254562855 "/>
	<polygon fill="#777777"  points=""/>
	<polygon fill="#777777"  points="-0.74968139530431,0.24910519801020387 "/>
	<polygon fill="#777777"  points="2.499994601331914,-0.7502552947822291 "/>
	<polygon fill="#1BC9EDFF"  points="-0.74968139530431,0.24910519801020387 -0.74968139530431,0.24910519801020387 -1.7496812953043102,-2.5001265884549198 "/>
	<polygon fill="#2BE825FF"  points="2.0005047260811075,2.0003734998079965 3.4999945013319143,3.000373599807997 0.00018811333137830122,1.999989816776437 "/>
	<polygon fill="#4CD2C9FF"  points="0.7508970497108657,0.5007288913826 2.499994601331914,-0.7502552947822291 2.000541446487899,-0.0004414983958544978 "/>
	<polygon fill="#1BC9EDFF"  points="-1.7496812953043102,-2.5001265884549198 0.4883274355717014,-1.6047481502403114 -0.74968139530431,0.24910519801020387 "/>
	<polygon fill="#4B32EDFF"  points="0.4883274355717014,-1.6047481502403114 0.749829985688501,-1.5001266884549196 -0.2500888718589173,-0.4990084254562855 "/>
	<polygon fill="#4CD2C9FF"  points="0.7508970497108657,0.5007288913826 1.750007256626496,-0.49993726233322006 0.7508970497108657,0.5007288913826 "/>
	<polygon fill="#4B32EDFF"  points="-0.2500888718589173,-0.4990084254562855 0.749829985688501,-1.5001266884549196 -0.2500888718589173,-0.4990084254562855 "/>
	<polygon fill="#2BE825FF"  points="0.00018811333137830122,1.999989816776437 2.0005047260811075,2.0003734998079965 0.00018811333137830122,1.999989816776437 "/>
	<polygon fill="#CEBC37FF"  points="0.00032194129311145537,-0.0007374804515680093 0.9994185204803935,1.0004829013002035 0.00032194129311145537,-0.0007374804515680093 "/>
	<polygon fill="#1BC9EDFF"  points="-0.2500888718589173,-0.4990084254562855 0.18665514917057002,-0.06280918796380675 -0.74968139530431,0.24910519801020387 "/>
	<polygon fill="#CEBC37FF"  points="0.18665514917057002,-0.06280918796380675 0.7508970497108657,0.5007288913826 0.00032194129311145537,-0.0007374804515680093 "/>
	<polygon fill="#1BC9EDFF"  points="-0.74968139530431,0.24910519801020387 0.00018811333137830122,1.999989816776437 -1.74968149530431,3.0003733998079967 "/>
	<polygon fill="#4CD2C9FF"  points="1.750007256626496,-0.49993726233322006 2.000541446487899,-0.0004414983958544978 0.7508970497108657,0.5007288913826 "/>
	<polygon fill="#4CD2C9FF"  points="0.7508970497108657,0.5007288913826 2.775111804092122,-1.2316749971693162 2.499994601331914,-0.7502552947822291 "/>
	<polygon fill="#53CBFAFF"  points="0.749829985688501,-1.5001266884549196 3.4999947013319144,-2.50012678845492 2.775111804092122,-1.2316749971693162 "/>
	<polygon fill="#CEBC37FF"  points="0.00032194129311145537,-0.0007374804515680093 0.7508970497108657,0.5007288913826 0.00032194129311145537,-0.0007374804515680093 "/>
	<polygon fill="#1BC9EDFF"  points="-1.74968149530431,3.0003733998079967 -1.7496812953043102,-2.5001265884549198 -0.74968139530431,0.24910519801020387 "/>
	<polygon fill="#CEBC37FF"  points="0.00032194129311145537,-0.0007374804515680093 1.19949778623121,0.8004433119943019 0.9994185204803935,1.0004829013002035 "/>
	<polygon fill="#4CD2C9FF"  points="0.7508970497108657,0.5007288913826 2.000541446487899,-0.0004414983958544978 1.19949778623121,0.8004433119943019 "/>
	<polygon fill="#53CBFAFF"  points="0.749829985688501,-1.5001266884549196 1.9614957413522727,-0.9809792432695764 0.749829985688501,-1.5001266884549196 "/>
	<polygon fill="#2FF181FF"  points="1.9614957413522727,-0.9809792432695764 2.149762398880794,-0.9003149562641444 1.750007256626496,-0.49993726233322006 "/>
	<polygon fill="#4CD2C9FF"  points="2.149762398880794,-0.9003149562641444 2.499994601331914,-0.7502552947822291 0.7508970497108657,0.5007288913826 "/>
	<polygon fill="#1BC9EDFF"  points="-0.74968139530431,0.24910519801020387 0.00032194129311145537,-0.0007374804515680093 0.00018811333137830122,1.999989816776437 "/>
	<polygon fill="#4CD2C9FF"  points="1.750007256626496,-0.49993726233322006 2.499994601331914,-0.7502552947822291 0.7508970497108657,0.5007288913826 "/>
	<polygon fill="#53CBFAFF"  points="0.749829985688501,-1.5001266884549196 1.5301854798455254,-0.7197617106146902 0.749829985688501,-1.5001266884549196 "/>
	<polygon fill="#2FF181FF"  points="1.750007256626496,-0.49993726233322006 1.750007256626496,-0.49993726233322006 1.5301854798455254,-0.7197617106146902 "/>
	<polygon fill="#1BC9EDFF"  points="-0.74968139530431,0.24910519801020387 -0.2500888718589173,-0.4990084254562855 -0.74968139530431,0.24910519801020387 "/>
	<polygon fill="#1BC9EDFF"  points="-0.74968139530431,0.24910519801020387 0.42863279783277575,3.00037348279652 -1.74968149530431,3.0003733998079967 "/>
	<polygon fill="#2BE825FF"  points="0.00018811333137830122,1.999989816776437 3.4999945013319143,3.000373599807997 0.42863279783277575,3.00037348279652 "/>
	<polygon fill="#CEBC37FF"  points="0.7508970497108657,0.5007288913826 0.9994185204803935,1.0004829013002035 0.00032194129311145537,-0.0007374804515680093 "/>
	<polygon fill="#1BC9EDFF"  points="-0.74968139530431,0.24910519801020387 0.00032194129311145537,-0.0007374804515680093 -0.74968139530431,0.24910519801020387 "/>
	<polygon fill="#1BC9EDFF"  points="-1.7496812953043102,-2.5001265884549198 -0.2500888718589173,-0.4990084254562855 -0.74968139530431,0.24910519801020387 "/>
	<polygon fill="#2BE825FF"  points="0.00018811333137830122,1.999989816776437 3.4999945013319143,3.000373599807997 0.00018811333137830122,1.999989816776437 "/>
	<polygon fill="#1BC9EDFF"  points="-1.7496812953043102,-2.5001265884549198 1.0862639165180097,-2.5001266964975954 -0.74968139530431,0.24910519801020387 "/>
	<polygon fill="#4B32EDFF"  points="1.0862639165180097,-2.5001266964975954 1.748631953227259,-2.5001267217322214 -0.2500888718589173,-0.4990084254562855 "/>
	<polygon fill="#53CBFAFF"  points="1.748631953227259,-2.5001267217322214 3.4999947013319144,-2.50012678845492 0.749829985688501,-1.5001266884549196 "/>
	<polygon fill="#2BE825FF"  points="0.00018811333137830122,1.999989816776437 3.499994537681788,2.00066111867445 3.4999945013319143,3.000373599807997 "/>
	<polygon fill="#1EFDE0FF"  points="2.0005047260811075,2.0003734998079965 3.4999945517761613,1.6130306028465968 3.4999945376817885,2.0006611186744494 "/>
	<polygon fill="#4CD2C9FF"  points="0.7508970497108657,0.5007288913826 3.499994663214205,-1.4517944137208993 3.4999946323080495,-0.6017978038617777 "/>
	<polygon fill="#53CBFAFF"  points="0.749829985688501,-1.5001266884549196 3.4999947013319144,-2.50012678845492 3.499994663214205,-1.4517944137208993 "/>
	<polygon fill="#1BC9EDFF"  points="-0.2500888718589173,-0.4990084254562855 0.00032194129311145537,-0.0007374804515680093 -0.74968139530431,0.24910519801020387 "/>
	<polygon fill="#4CD2C9FF"  points="0.7508970497108657,0.5007288913826 2.000541446487899,-0.0004414983958544978 0.7508970497108657,0.5007288913826 "/>
	<polygon fill="#53CBFAFF"  points="0.749829985688501,-1.5001266884549196 3.4999947013319144,-2.50012678845492 0.749829985688501,-1.5001266884549196 "/>
	<polygon fill="#1BC9EDFF"  points="-1.74968149530431,3.0003733998079967 -0.74968139530431,0.24910519801020387 -0.74968139530431,0.24910519801020387 "/>
	<polygon fill="#34E161FF"  points="2.000541446487899,-0.0004414983958544978 2.7873611458862975,1.574199618837756 2.000541446487899,-0.0004414983958544978 "/>
	<polygon fill="#1EFDE0FF"  points="2.7873611458862975,1.574199618837756 3.000408365023438,2.0005652924757227 2.0005047260811075,2.0003734998079965 "/>
	<polygon fill="#2BE825FF"  points="3.000408365023438,2.0005652924757227 3.4999945013319143,3.000373599807997 0.00018811333137830122,1.999989816776437 "/>
	<polygon fill="#1EFDE0FF"  points="2.0005047260811075,2.0003734998079965 2.0005151448550986,1.432677194535404 2.0005047260811075,2.0003734998079965 "/>
	<polygon fill="#34E161FF"  points="2.0005151448550986,1.432677194535404 2.000541446487899,-0.0004414983958544978 2.000541446487899,-0.0004414983958544978 "/>
	<polygon fill="#1BC9EDFF"  points="-0.74968139530431,0.24910519801020387 0.00018811333137830122,1.999989816776437 -0.74968139530431,0.24910519801020387 "/>
	<polygon fill="#4CD2C9FF"  points="2.499994601331914,-0.7502552947822291 2.6323525745515837,-0.25382960635256846 0.7508970497108657,0.5007288913826 "/>
	<polygon fill="#34E161FF"  points="2.6323525745515837,-0.25382960635256846 3.1539326987995477,1.7024240741211738 2.000541446487899,-0.0004414983958544978 "/>
	<polygon fill="#1EFDE0FF"  points="3.1539326987995477,1.7024240741211738 3.2334356019496155,2.000609989698217 2.0005047260811075,2.0003734998079965 "/>
	<polygon fill="#2BE825FF"  points="3.2334356019496155,2.000609989698217 3.4999945013319143,3.000373599807997 0.00018811333137830122,1.999989816776437 "/>
	<line stroke="green" stroke-width="0.02"  x1="-1.4163480619709767" y1="0.2497840031210936" x2="-0.9164838541558459" y2="-0.9166766053003338"/>
	<line stroke="green" stroke-width="0.02"  x1="-1.4163480619709767" y1="0.2497840031210936" x2="-0.8330582590924139" y2="1.7498228048648794"/>
	<line stroke="green" stroke-width="0.02"  x1="-0.9164838541558459" y1="-0.9166766053003338" x2="-0.41664672715824214" y2="-1.4997539007887084"/>
	<line stroke="green" stroke-width="0.02"  x1="-0.9164838541558459" y1="-0.9166766053003338" x2="-0.3331494419567053" y2="-0.08354690263254988"/>
	<line stroke="green" stroke-width="0.02"  x1="-0.8330582590924139" y1="1.7498228048648794" x2="0.5835003731196609" y2="2.66691227213081"/>
	<line stroke="green" stroke-width="0.02"  x1="-0.8330582590924139" y1="1.7498228048648794" x2="-0.24972378022660677" y2="0.7494525114450242"/>
	<line stroke="green" stroke-width="0.02"  x1="-0.24972378022660677" y1="0.7494525114450242" x2="-0.3331494419567053" y2="-0.08354690263254988"/>
	<line stroke="green" stroke-width="0.02"  x1="-0.3331494419567053" y1="-0.08354690263254988" x2="0.16704337304835326" y2="0.0003276618249155039"/>
	<line stroke="green" stroke-width="0.02"  x1="-0.41664672715824214" y1="-1.4997539007887084" x2="0.8333811305720351" y2="-2.1667933551215866"/>
	<line stroke="green" stroke-width="0.02"  x1="0.16704337304835326" y1="0.0003276618249155039" x2="0.5835458371614569" y2="0.5001581040770785"/>
	<line stroke="green" stroke-width="0.02"  x1="0.5835458371614569" y1="0.5001581040770785" x2="1.2502856722263862" y2="0.5002567647623163"/>
	<line stroke="green" stroke-width="0.02"  x1="1.2502856722263862" y1="0.5002567647623163" x2="1.50048191760842" y2="0.00011671021784182089"/>
	<line stroke="green" stroke-width="0.02"  x1="0.5835003731196609" y1="2.66691227213081" x2="1.8335624469148" y2="2.3335789721308102"/>
	<line stroke="green" stroke-width="0.02"  x1="1.50048191760842" y1="0.00011671021784182089" x2="2.0835144348154366" y2="-0.4168780185037679"/>
	<line stroke="green" stroke-width="0.02"  x1="1.6666106145489703" y1="-0.9167730818567895" x2="2.2499397627841096" y2="-1.5835029238973561"/>
	<line stroke="green" stroke-width="0.02"  x1="1.6666106145489703" y1="-0.9167730818567895" x2="2.0835144348154366" y2="-0.4168780185037679"/>
	<line stroke="green" stroke-width="0.02"  x1="2.0835144348154366" y1="-0.4168780185037679" x2="2.6668435163839095" y2="0.7498922688766377"/>
	<line stroke="green" stroke-width="0.02"  x1="2.500346891300307" y1="1.6667685337400462" x2="1.8335624469148" y2="2.3335789721308102"/>
	<line stroke="green" stroke-width="0.02"  x1="2.500346891300307" y1="1.6667685337400462" x2="2.6668435163839095" y2="0.7498922688766377"/>
	<line stroke="green" stroke-width="0.02"  x1="2.6668435163839095" y1="0.7498922688766377" x2="3.166661267998581" y2="-0.08333616114305069"/>
	<line stroke="green" stroke-width="0.02"  x1="0.8333811305720351" y1="-2.1667933551215866" x2="2.2499397627841096" y2="-1.5835029238973561"/>
	<line stroke="green" stroke-width="0.02"  x1="2.2499397627841096" y1="-1.5835029238973561" x2="3.166661267998581" y2="-0.08333616114305069"/>
	<line stroke="black" stroke-width="0.02"  x1="-1.74968149530431" y1="3.0003733998079967" x2="-1.7496812953043102" y2="-2.5001265884549198"/>
	<line stroke="black" stroke-width="0.02"  x1="-1.74968149530431" y1="3.0003733998079967" x2="-0.74968139530431" y2="0.24910519801020387"/>
	<line stroke="black" stroke-width="0.02"  x1="-1.74968149530431" y1="3.0003733998079967" x2="0.00018811333137830122" y2="1.999989816776437"/>
	<line stroke="black" stroke-width="0.02"  x1="-1.74968149530431" y1="3.0003733998079967" x2="3.4999945013319143" y2="3.000373599807997"/>
	<line stroke="black" stroke-width="0.02"  x1="-1.7496812953043102" y1="-2.5001265884549198" x2="-0.74968139530431" y2="0.24910519801020387"/>
	<line stroke="black" stroke-width="0.02"  x1="-1.7496812953043102" y1="-2.5001265884549198" x2="-0.2500888718589173" y2="-0.4990084254562855"/>
	<line stroke="black" stroke-width="0.02"  x1="-1.7496812953043102" y1="-2.5001265884549198" x2="0.749829985688501" y2="-1.5001266884549196"/>
	<line stroke="black" stroke-width="0.02"  x1="-1.7496812953043102" y1="-2.5001265884549198" x2="3.4999947013319144" y2="-2.50012678845492"/>
	<line stroke="black" stroke-width="0.02"  x1="-0.74968139530431" y1="0.24910519801020387" x2="-0.2500888718589173" y2="-0.4990084254562855"/>
	<line stroke="black" stroke-width="0.02"  x1="-0.74968139530431" y1="0.24910519801020387" x2="0.00018811333137830122" y2="1.999989816776437"/>
	<line stroke="black" stroke-width="0.02"  x1="-0.74968139530431" y1="0.24910519801020387" x2="0.00032194129311145537" y2="-0.0007374804515680093"/>
	<line stroke="black" stroke-width="0.02"  x1="-0.2500888718589173" y1="-0.4990084254562855" x2="0.00032194129311145537" y2="-0.0007374804515680093"/>
	<line stroke="black" stroke-width="0.02"  x1="-0.2500888718589173" y1="-0.4990084254562855" x2="0.749829985688501" y2="-1.5001266884549196"/>
	<line stroke="black" stroke-width="0.02"  x1="-0.2500888718589173" y1="-0.4990084254562855" x2="0.7508970497108657" y2="0.5007288913826"/>
	<line stroke="black" stroke-width="0.02"  x1="0.00018811333137830122" y1="1.999989816776437" x2="0.00032194129311145537" y2="-0.0007374804515680093"/>
	<line stroke="black" stroke-width="0.02"  x1="0.00018811333137830122" y1="1.999989816776437" x2="3.4999945013319143" y2="3.000373599807997"/>
	<line stroke="black" stroke-width="0.02"  x1="0.00018811333137830122" y1="1.999989816776437" x2="2.0005047260811075" y2="2.0003734998079965"/>
	<line stroke="black" stroke-width="0.02"  x1="0.00032194129311145537" y1="-0.0007374804515680093" x2="0.7508970497108657" y2="0.5007288913826"/>
	<line stroke="black" stroke-width="0.02"  x1="0.00032194129311145537" y1="-0.0007374804515680093" x2="0.9994185204803935" y2="1.0004829013002035"/>
	<line stroke="black" stroke-width="0.02"  x1="0.749829985688501" y1="-1.5001266884549196" x2="1.750007256626496" y2="-0.49993726233322006"/>
	<line stroke="black" stroke-width="0.02"  x1="0.749829985688501" y1="-1.5001266884549196" x2="2.499994601331914" y2="-0.7502552947822291"/>
	<line stroke="black" stroke-width="0.02"  x1="0.749829985688501" y1="-1.5001266884549196" x2="3.4999947013319144" y2="-2.50012678845492"/>
	<line stroke="black" stroke-width="0.02"  x1="0.7508970497108657" y1="0.5007288913826" x2="0.9994185204803935" y2="1.0004829013002035"/>
	<line stroke="black" stroke-width="0.02"  x1="0.7508970497108657" y1="0.5007288913826" x2="2.000541446487899" y2="-0.0004414983958544978"/>
	<line stroke="black" stroke-width="0.02"  x1="0.7508970497108657" y1="0.5007288913826" x2="1.750007256626496" y2="-0.49993726233322006"/>
	<line stroke="black" stroke-width="0.02"  x1="0.9994185204803935" y1="1.0004829013002035" x2="2.000541446487899" y2="-0.0004414983958544978"/>
	<line stroke="black" stroke-width="0.02"  x1="1.750007256626496" y1="-0.49993726233322006" x2="2.000541446487899" y2="-0.0004414983958544978"/>
	<line stroke="black" stroke-width="0.02"  x1="1.750007256626496" y1="-0.49993726233322006" x2="2.499994601331914" y2="-0.7502552947822291"/>
	<line stroke="black" stroke-width="0.02"  x1="2.0005047260811075" y1="2.0003734998079965" x2="3.4999945013319143" y2="3.000373599807997"/>
	<line stroke="black" stroke-width="0.02"  x1="2.0005047260811075" y1="2.0003734998079965" x2="2.000541446487899" y2="-0.0004414983958544978"/>
	<line stroke="black" stroke-width="0.02"  x1="2.000541446487899" y1="-0.0004414983958544978" x2="2.499994601331914" y2="-0.7502552947822291"/>
	<line stroke="black" stroke-width="0.02"  x1="2.000541446487899" y1="-0.0004414983958544978" x2="3.4999945013319143" y2="3.000373599807997"/>
	<line stroke="black" stroke-width="0.02"  x1="2.499994601331914" y1="-0.7502552947822291" x2="3.4999945013319143" y2="3.000373599807997"/>
	<line stroke="black" stroke-width="0.02"  x1="2.499994601331914" y1="-0.7502552947822291" x2="3.4999947013319144" y2="-2.50012678845492"/>
	<line stroke="black" stroke-width="0.02"  x1="3.4999945013319143" y1="3.000373599807997" x2="3.4999947013319144" y2="-2.50012678845492"/>
	<polyline fill="none" stroke="red" stroke-width="0.05"  points="-0.74968139530431,0.24910519801020387 0.00032194129311145537,-0.0007374804515680093 0.7508970497108657,0.5007288913826 2.499994601331914,-0.7502552947822291 "/>
	<rect fill="black"  x="-0.77" y="0.23" width="0.040000000000000036" height="0.04000000000000001"/>
	<rect fill="black"  x="2.48" y="-0.77" width="0.040000000000000036" height="0.040000000000000036"/>
<text fill="black"  x="-1.15" y="0.25" font-size="0.2">xstart</text>
<text fill="black"  x="2.55" y="-0.75" font-size="0.2">xgoal</text>
</svg>
