<svg width="105.9936299060862" height="110.01000776525834" viewBox="-2.279649644834741,-3.0501768272812115,6.359617794365172,6.6006004659155" xmlns="http://www.w3.org/2000/svg" style="background: #FFFFFF">
	<polygon fill="#777777"  points="0.9994185204803935,1.0004829013002035 2.000541446487899,-0.0004414983958544978 2.0005047260811075,2.0003734998079965 0.00018811333137830122,1.999989816776437 0.00032194129311145537,-0.0007374804515680093 "/>
	<polygon fill="#777777"  points="0.749829985688501,-1.5001266884549196 1.750007256626496,-0.49993726233322006 0.7508970497108657,0.5007288913826 -0.2500888718589173,-0.4990084254562855 "/>
	<polygon fill="#777777"  points=""/>
	<polygon fill="#777777"  points="-0.74968139530431,0.24910519801020387 "/>
	<polygon fill="#777777"  points="2.499994601331914,-0.7502552947822291 "/>
	<polygon fill="#3378DFFF"  points="0.749829985688501,-1.5001266884549196 1.5301854798455254,-0.7197617106146902 0.749829985688501,-1.5001266884549196 "/>
	<polygon fill="#B8DB60FF"  points="1.750007256626496,-0.49993726233322006 1.750007256626496,-0.49993726233322006 1.5301854798455254,-0.7197617106146902 "/>
	<polygon fill="#4AF8A9FF"  points="0.00032194129311145537,-0.0007374804515680093 0.9994185204803935,1.0004829013002035 0.00032194129311145537,-0.0007374804515680093 "/>
	<polygon fill="#1F84D2FF"  points="-1.74968149530431,3.0003733998079967 -1.7496812953043102,-2.5001265884549198 -0.74968139530431,0.24910519801020387 "/>
	<polygon fill="#4AF8A9FF"  points="0.7508970497108657,0.5007288913826 0.9994185204803935,1.0004829013002035 0.00032194129311145537,-0.0007374804515680093 "/>
	<polygon fill="#1F84D2FF"  points="-1.7496812953043102,-2.5001265884549198 -0.2500888718589173,-0.4990084254562855 -0.74968139530431,0.24910519801020387 "/>
	<polygon fill="#3378DFFF"  points="0.749829985688501,-1.5001266884549196 1.9614957413522727,-0.9809792432695764 0.749829985688501,-1.5001266884549196 "/>
	<polygon fill="#B8DB60FF"  points="1.9614957413522727,-0.9809792432695764 2.149762398880794,-0.9003149562641444 1.750007256626496,-0.49993726233322006 "/>
	<polygon fill="#D1F22EFF"  points="2.149762398880794,-0.9003149562641444 2.499994601331914,-0.7502552947822291 0.7508970497108657,0.5007288913826 "/>
	<polygon fill="#FAF160FF"  points="-0.2500888718589173,-0.4990084254562855 0.749829985688501,-1.5001266884549196 -0.2500888718589173,-0.4990084254562855 "/>
	<polygon fill="#4AF8A9FF"  points="0.00032194129311145537,-0.0007374804515680093 1.19949778623121,0.8004433119943017 0.9994185204803935,1.0004829013002035 "/>
	<polygon fill="#D1F22EFF"  points="0.7508970497108657,0.5007288913826 2.000541446487899,-0.0004414983958544978 1.19949778623121,0.8004433119943017 "/>
	<polygon fill="#25B1FEFF"  points="0.00018811333137830122,1.999989816776437 3.4999945376817885,2.00066111867445 3.4999945013319143,3.000373599807997 "/>
	<polygon fill="#62CF4EFF"  points="2.0005047260811075,2.0003734998079965 3.4999945517761613,1.6130306028465968 3.4999945376817885,2.00066111867445 "/>
	<polygon fill="#D1F22EFF"  points="0.7508970497108657,0.5007288913826 3.499994663214205,-1.4517944137208993 3.4999946323080495,-0.6017978038617782 "/>
	<polygon fill="#3378DFFF"  points="0.749829985688501,-1.5001266884549196 3.4999947013319144,-2.50012678845492 3.499994663214205,-1.4517944137208993 "/>
	<polygon fill="#D1F22EFF"  points="0.7508970497108657,0.5007288913826 1.750007256626496,-0.49993726233322006 0.7508970497108657,0.5007288913826 "/>
	<polygon fill="#3378DFFF"  points="0.749829985688501,-1.5001266884549196 3.4999947013319144,-2.50012678845492 0.749829985688501,-1.5001266884549196 "/>
	<polygon fill="#D1F22EFF"  points="2.499994601331914,-0.7502552947822291 2.632352574551584,-0.25382960635256874 0.7508970497108657,0.5007288913826 "/>
	<polygon fill="#F01EEEFF"  points="2.632352574551584,-0.25382960635256874 3.1539326987995477,1.7024240741211738 2.000541446487899,-0.0004414983958544978 "/>
	<polygon fill="#62CF4EFF"  points="3.1539326987995477,1.7024240741211738 3.2334356019496155,2.0006099896982175 2.0005047260811075,2.0003734998079965 "/>
	<polygon fill="#25B1FEFF"  points="3.2334356019496155,2.0006099896982175 3.4999945013319143,3.000373599807997 0.00018811333137830122,1.999989816776437 "/>
	<polygon fill="#1F84D2FF"  points="-1.7496812953043102,-2.5001265884549198 1.0862639165180097,-2.5001266964975954 -0.74968139530431,0.24910519801020387 "/>
	<polygon fill="#FAF160FF"  points="1.0862639165180097,-2.5001266964975954 1.748631953227259,-2.5001267217322214 -0.2500888718589173,-0.4990084254562855 "/>
	<polygon fill="#3378DFFF"  points="1.748631953227259,-2.5001267217322214 3.4999947013319144,-2.50012678845492 0.749829985688501,-1.5001266884549196 "/>
	<polygon fill="#D1F22EFF"  points="1.750007256626496,-0.49993726233322006 2.000541446487899,-0.0004414983958544978 0.7508970497108657,0.5007288913826 "/>
	<polygon fill="#D1F22EFF"  points="0.7508970497108657,0.5007288913826 2.499994601331914,-0.7502552947822291 2.000541446487899,-0.0004414983958544978 "/>
	<polygon fill="#1F84D2FF"  points="-0.2500888718589173,-0.4990084254562855 0.18665514917057002,-0.06280918796380675 -0.74968139530431,0.24910519801020387 "/>
	<polygon fill="#4AF8A9FF"  points="0.18665514917057002,-0.06280918796380675 0.7508970497108657,0.5007288913826 0.00032194129311145537,-0.0007374804515680093 "/>
	<polygon fill="#1F84D2FF"  points="-0.74968139530431,0.24910519801020387 -0.74968139530431,0.24910519801020387 -1.7496812953043102,-2.5001265884549198 "/>
	<polygon fill="#1F84D2FF"  points="-0.74968139530431,0.24910519801020387 0.4286327978327753,3.00037348279652 -1.74968149530431,3.0003733998079967 "/>
	<polygon fill="#25B1FEFF"  points="0.00018811333137830122,1.999989816776437 3.4999945013319143,3.000373599807997 0.4286327978327753,3.00037348279652 "/>
	<polygon fill="#62CF4EFF"  points="2.0005047260811075,2.0003734998079965 2.0005151448550986,1.432677194535404 2.0005047260811075,2.0003734998079965 "/>
	<polygon fill="#F01EEEFF"  points="2.0005151448550986,1.432677194535404 2.000541446487899,-0.0004414983958544978 2.000541446487899,-0.0004414983958544978 "/>
	<polygon fill="#1F84D2FF"  points="-1.74968149530431,3.0003733998079967 -0.74968139530431,0.24910519801020387 -0.74968139530431,0.24910519801020387 "/>
	<polygon fill="#1F84D2FF"  points="-0.74968139530431,0.24910519801020387 0.00018811333137830122,1.999989816776437 -1.74968149530431,3.0003733998079967 "/>
	<polygon fill="#4AF8A9FF"  points="0.00032194129311145537,-0.0007374804515680093 1.124541080635901,0.7503640237552351 0.9994185204803935,1.0004829013002035 "/>
	<polygon fill="#D1F22EFF"  points="0.7508970497108657,0.5007288913826 1.750007256626496,-0.49993726233322006 1.124541080635901,0.7503640237552351 "/>
	<polygon fill="#1F84D2FF"  points="-0.2500888718589173,-0.4990084254562855 0.00018811333137830122,1.999989816776437 -0.74968139530431,0.24910519801020387 "/>
	<polygon fill="#1F84D2FF"  points="-1.7496812953043102,-2.5001265884549198 0.4883274355717014,-1.6047481502403114 -0.74968139530431,0.24910519801020387 "/>
	<polygon fill="#FAF160FF"  points="0.4883274355717014,-1.6047481502403114 0.749829985688501,-1.5001266884549196 -0.2500888718589173,-0.4990084254562855 "/>
	<polygon fill="#1F84D2FF"  points="-0.74968139530431,0.24910519801020387 0.00032194129311145537,-0.0007374804515680093 0.00018811333137830122,1.999989816776437 "/>
	<polygon fill="#4AF8A9FF"  points="0.00032194129311145537,-0.0007374804515680093 0.7508970497108657,0.5007288913826 0.00032194129311145537,-0.0007374804515680093 "/>
	<polygon fill="#25B1FEFF"  points="0.00018811333137830122,1.999989816776437 2.0005047260811075,2.0003734998079965 0.00018811333137830122,1.999989816776437 "/>
	<polygon fill="#D1F22EFF"  points="1.750007256626496,-0.49993726233322006 2.499994601331914,-0.7502552947822291 0.7508970497108657,0.5007288913826 "/>
	<polygon fill="#D1F22EFF"  points="0.7508970497108657,0.5007288913826 2.775111804092122,-1.2316749971693162 2.499994601331914,-0.7502552947822291 "/>
	<polygon fill="#3378DFFF"  points="0.749829985688501,-1.5001266884549196 3.4999947013319144,-2.50012678845492 2.775111804092122,-1.2316749971693162 "/>
	<polygon fill="#1F84D2FF"  points="-0.74968139530431,0.24910519801020387 0.20536206526930822,2.479054390655694 -1.74968149530431,3.0003733998079967 "/>
	<polygon fill="#25B1FEFF"  points="0.00018811333137830122,1.999989816776437 2.0005047260811075,2.0003734998079965 0.20536206526930822,2.479054390655694 "/>
	<polygon fill="#25B1FEFF"  points="2.0005047260811075,2.0003734998079965 3.4999945013319143,3.000373599807997 0.00018811333137830122,1.999989816776437 "/>
	<polygon fill="#1F84D2FF"  points="-0.74968139530431,0.24910519801020387 -0.2500888718589173,-0.4990084254562855 -1.74968149530431,3.0003733998079967 "/>
	<polygon fill="#1F84D2FF"  points="-0.74968139530431,0.24910519801020387 -0.2500888718589173,-0.4990084254562855 -0.74968139530431,0.24910519801020387 "/>
	<polygon fill="#62CF4EFF"  points="2.0005047260811075,2.0003734998079965 2.1030865837565536,1.4354679321366681 2.0005047260811075,2.0003734998079965 "/>
	<polygon fill="#F01EEEFF"  points="2.000541446487899,-0.0004414983958544978 2.392370888150347,-0.15758485414658757 2.1030865837565536,1.4354679321366681 "/>
	<polygon fill="#D1F22EFF"  points="0.7508970497108657,0.5007288913826 2.499994601331914,-0.7502552947822291 2.392370888150347,-0.15758485414658757 "/>
	<polygon fill="#1F84D2FF"  points="-0.2500888718589173,-0.4990084254562855 0.00032194129311145537,-0.0007374804515680093 -0.74968139530431,0.24910519801020387 "/>
	<line stroke="green" stroke-width="0.02"  x1="-1.4163480619709767" y1="0.2497840031210936" x2="-0.9164838541558459" y2="-0.9166766053003338"/>
	<line stroke="green" stroke-width="0.02"  x1="-1.4163480619709767" y1="0.2497840031210936" x2="-0.9164839208225125" y2="0.916823390787305"/>
	<line stroke="green" stroke-width="0.02"  x1="-0.9164838541558459" y1="-0.9166766053003338" x2="-0.41664672715824214" y2="-1.4997539007887084"/>
	<line stroke="green" stroke-width="0.02"  x1="-0.9164838541558459" y1="-0.9166766053003338" x2="-0.9164839208225125" y2="0.916823390787305"/>
	<line stroke="green" stroke-width="0.02"  x1="-0.9164839208225125" y1="0.916823390787305" x2="-0.6665274179439497" y2="1.500451597042716"/>
	<line stroke="green" stroke-width="0.02"  x1="-0.6665274179439497" y1="1.500451597042716" x2="-0.08319293907814253" y2="0.5000813036228612"/>
	<line stroke="green" stroke-width="0.02"  x1="-0.6665274179439497" y1="1.500451597042716" x2="0.08367044803605861" y2="2.3335789054641434"/>
	<line stroke="green" stroke-width="0.02"  x1="-0.08319293907814253" y1="0.5000813036228612" x2="0.16704337304835326" y2="0.0003276618249155039"/>
	<line stroke="green" stroke-width="0.02"  x1="-0.41664672715824214" y1="-1.4997539007887084" x2="0.8333811305720351" y2="-2.1667933551215866"/>
	<line stroke="green" stroke-width="0.02"  x1="0.16704337304835326" y1="0.0003276618249155039" x2="0.5835458371614569" y2="0.5001581040770785"/>
	<line stroke="green" stroke-width="0.02"  x1="0.5835458371614569" y1="0.5001581040770785" x2="1.1667742756059185" y2="0.33375817678319447"/>
	<line stroke="green" stroke-width="0.02"  x1="1.1667742756059185" y1="0.33375817678319447" x2="1.5833224078649295" y2="0.16670138019037628"/>
	<line stroke="green" stroke-width="0.02"  x1="0.08367044803605861" y1="2.3335789054641434" x2="1.2502725773695706" y2="2.6670401664746635"/>
	<line stroke="green" stroke-width="0.02"  x1="1.5833224078649295" y1="0.16670138019037628" x2="2.0835144348154366" y2="-0.4168780185037679"/>
	<line stroke="green" stroke-width="0.02"  x1="1.6666106145489703" y1="-0.9167730818567895" x2="2.2499397627841096" y2="-1.5835029238973561"/>
	<line stroke="green" stroke-width="0.02"  x1="1.6666106145489703" y1="-0.9167730818567895" x2="2.0835144348154366" y2="-0.4168780185037679"/>
	<line stroke="green" stroke-width="0.02"  x1="2.0835144348154366" y1="-0.4168780185037679" x2="2.167013591300307" y2="0.41655890220997094"/>
	<line stroke="green" stroke-width="0.02"  x1="2.167013591300307" y1="0.41655890220997094" x2="2.666831276248312" y2="1.4168306016112548"/>
	<line stroke="green" stroke-width="0.02"  x1="1.2502725773695706" y1="2.6670401664746635" x2="2.666831276248312" y2="1.4168306016112548"/>
	<line stroke="green" stroke-width="0.02"  x1="2.666831276248312" y1="1.4168306016112548" x2="3.166661267998581" y2="-0.08333616114305069"/>
	<line stroke="green" stroke-width="0.02"  x1="0.8333811305720351" y1="-2.1667933551215866" x2="2.2499397627841096" y2="-1.5835029238973561"/>
	<line stroke="green" stroke-width="0.02"  x1="2.2499397627841096" y1="-1.5835029238973561" x2="3.166661267998581" y2="-0.08333616114305069"/>
	<line stroke="black" stroke-width="0.02"  x1="-1.74968149530431" y1="3.0003733998079967" x2="-1.7496812953043102" y2="-2.5001265884549198"/>
	<line stroke="black" stroke-width="0.02"  x1="-1.74968149530431" y1="3.0003733998079967" x2="-0.74968139530431" y2="0.24910519801020387"/>
	<line stroke="black" stroke-width="0.02"  x1="-1.74968149530431" y1="3.0003733998079967" x2="-0.2500888718589173" y2="-0.4990084254562855"/>
	<line stroke="black" stroke-width="0.02"  x1="-1.74968149530431" y1="3.0003733998079967" x2="0.00018811333137830122" y2="1.999989816776437"/>
	<line stroke="black" stroke-width="0.02"  x1="-1.74968149530431" y1="3.0003733998079967" x2="2.0005047260811075" y2="2.0003734998079965"/>
	<line stroke="black" stroke-width="0.02"  x1="-1.74968149530431" y1="3.0003733998079967" x2="3.4999945013319143" y2="3.000373599807997"/>
	<line stroke="black" stroke-width="0.02"  x1="-1.7496812953043102" y1="-2.5001265884549198" x2="-0.74968139530431" y2="0.24910519801020387"/>
	<line stroke="black" stroke-width="0.02"  x1="-1.7496812953043102" y1="-2.5001265884549198" x2="-0.2500888718589173" y2="-0.4990084254562855"/>
	<line stroke="black" stroke-width="0.02"  x1="-1.7496812953043102" y1="-2.5001265884549198" x2="0.749829985688501" y2="-1.5001266884549196"/>
	<line stroke="black" stroke-width="0.02"  x1="-1.7496812953043102" y1="-2.5001265884549198" x2="3.4999947013319144" y2="-2.50012678845492"/>
	<line stroke="black" stroke-width="0.02"  x1="-0.74968139530431" y1="0.24910519801020387" x2="-0.2500888718589173" y2="-0.4990084254562855"/>
	<line stroke="black" stroke-width="0.02"  x1="-0.2500888718589173" y1="-0.4990084254562855" x2="0.00018811333137830122" y2="1.999989816776437"/>
	<line stroke="black" stroke-width="0.02"  x1="-0.2500888718589173" y1="-0.4990084254562855" x2="0.00032194129311145537" y2="-0.0007374804515680093"/>
	<line stroke="black" stroke-width="0.02"  x1="-0.2500888718589173" y1="-0.4990084254562855" x2="0.749829985688501" y2="-1.5001266884549196"/>
	<line stroke="black" stroke-width="0.02"  x1="-0.2500888718589173" y1="-0.4990084254562855" x2="0.7508970497108657" y2="0.5007288913826"/>
	<line stroke="black" stroke-width="0.02"  x1="0.00018811333137830122" y1="1.999989816776437" x2="0.00032194129311145537" y2="-0.0007374804515680093"/>
	<line stroke="black" stroke-width="0.02"  x1="0.00018811333137830122" y1="1.999989816776437" x2="2.0005047260811075" y2="2.0003734998079965"/>
	<line stroke="black" stroke-width="0.02"  x1="0.00032194129311145537" y1="-0.0007374804515680093" x2="0.7508970497108657" y2="0.5007288913826"/>
	<line stroke="black" stroke-width="0.02"  x1="0.00032194129311145537" y1="-0.0007374804515680093" x2="0.9994185204803935" y2="1.0004829013002035"/>
	<line stroke="black" stroke-width="0.02"  x1="0.749829985688501" y1="-1.5001266884549196" x2="1.750007256626496" y2="-0.49993726233322006"/>
	<line stroke="black" stroke-width="0.02"  x1="0.749829985688501" y1="-1.5001266884549196" x2="2.499994601331914" y2="-0.7502552947822291"/>
	<line stroke="black" stroke-width="0.02"  x1="0.749829985688501" y1="-1.5001266884549196" x2="3.4999947013319144" y2="-2.50012678845492"/>
	<line stroke="black" stroke-width="0.02"  x1="0.7508970497108657" y1="0.5007288913826" x2="0.9994185204803935" y2="1.0004829013002035"/>
	<line stroke="black" stroke-width="0.02"  x1="0.7508970497108657" y1="0.5007288913826" x2="1.750007256626496" y2="-0.49993726233322006"/>
	<line stroke="black" stroke-width="0.02"  x1="0.9994185204803935" y1="1.0004829013002035" x2="1.750007256626496" y2="-0.49993726233322006"/>
	<line stroke="black" stroke-width="0.02"  x1="0.9994185204803935" y1="1.0004829013002035" x2="2.000541446487899" y2="-0.0004414983958544978"/>
	<line stroke="black" stroke-width="0.02"  x1="1.750007256626496" y1="-0.49993726233322006" x2="2.000541446487899" y2="-0.0004414983958544978"/>
	<line stroke="black" stroke-width="0.02"  x1="1.750007256626496" y1="-0.49993726233322006" x2="2.499994601331914" y2="-0.7502552947822291"/>
	<line stroke="black" stroke-width="0.02"  x1="2.0005047260811075" y1="2.0003734998079965" x2="2.000541446487899" y2="-0.0004414983958544978"/>
	<line stroke="black" stroke-width="0.02"  x1="2.0005047260811075" y1="2.0003734998079965" x2="2.499994601331914" y2="-0.7502552947822291"/>
	<line stroke="black" stroke-width="0.02"  x1="2.0005047260811075" y1="2.0003734998079965" x2="3.4999945013319143" y2="3.000373599807997"/>
	<line stroke="black" stroke-width="0.02"  x1="2.000541446487899" y1="-0.0004414983958544978" x2="2.499994601331914" y2="-0.7502552947822291"/>
	<line stroke="black" stroke-width="0.02"  x1="2.499994601331914" y1="-0.7502552947822291" x2="3.4999945013319143" y2="3.000373599807997"/>
	<line stroke="black" stroke-width="0.02"  x1="2.499994601331914" y1="-0.7502552947822291" x2="3.4999947013319144" y2="-2.50012678845492"/>
	<line stroke="black" stroke-width="0.02"  x1="3.4999945013319143" y1="3.000373599807997" x2="3.4999947013319144" y2="-2.50012678845492"/>
	<polyline fill="none" stroke="red" stroke-width="0.05"  points="-0.74968139530431,0.24910519801020387 0.00032194129311145537,-0.0007374804515680093 0.7508970497108657,0.5007288913826 2.499994601331914,-0.7502552947822291 "/>
	<rect fill="black"  x="-0.77" y="0.23" width="0.040000000000000036" height="0.04000000000000001"/>
	<rect fill="black"  x="2.48" y="-0.77" width="0.040000000000000036" height="0.040000000000000036"/>
<text fill="black"  x="-1.15" y="0.25" font-size="0.2">xstart</text>
<text fill="black"  x="2.55" y="-0.75" font-size="0.2">xgoal</text>
</svg>
