<svg width="2993.1079536606103" height="3394.460388572434" viewBox="-7.387075946350304,-14.698633605847782,179.5864772196366,203.66762331434606" xmlns="http://www.w3.org/2000/svg">
	<rect fill="none" stroke="black" stroke-width="0.6"  x="7.578463821952749" y="2.2736683370143895" width="149.65539768303051" height="169.7230194286217"/>
	<rect fill="none" stroke="black" stroke-width="0.6"  x="39.259300495699186" y="2.2736683370143895" width="27.952198535633165" height="27.42577988507887"/>
	<rect fill="none" stroke="black" stroke-width="0.6"  x="39.259300495699186" y="2.2736683370143895" width="11.879803120262196" height="13.947001152268644"/>
	<rect fill="none" stroke="black" stroke-width="0.6"  x="56.38608796373408" y="17.84897353939649" width="10.825411067598274" height="11.85047468269677"/>
	<rect fill="none" stroke="black" stroke-width="0.6"  x="7.578463821952749" y="26.304337822431783" width="92.22183216598539" height="125.85285483217149"/>
	<rect fill="none" stroke="black" stroke-width="0.6"  x="18.512611385317097" y="26.304337822431783" width="11.606047348570698" height="13.847701480576674"/>
	<rect fill="none" stroke="black" stroke-width="0.6"  x="87.8286362457174" y="47.241133044864085" width="11.971659742220737" height="12.93716304259236"/>
	<rect fill="none" stroke="black" stroke-width="0.6"  x="7.578463821952749" y="137.72191029220951" width="10.28931053848881" height="14.435282362393764"/>
	<rect fill="none" stroke="black" stroke-width="0.6"  x="133.15378559281712" y="5.600115278220992" width="24.080075912166137" height="16.30490913016383"/>
	<rect fill="none" stroke="black" stroke-width="0.6"  x="133.15378559281712" y="5.600115278220992" width="12.053886875809184" height="10.308496742636505"/>
	<rect fill="none" stroke="black" stroke-width="0.6"  x="145.42671470745728" y="11.423613165602589" width="11.807146797525974" height="10.48141124278223"/>
	<rect fill="none" stroke="black" stroke-width="0.6"  x="124.6643335216234" y="32.32511624594632" width="31.566036126013415" height="139.6715715196898"/>
	<rect fill="none" stroke="black" stroke-width="0.6"  x="129.5987826365893" y="32.32511624594632" width="14.231117078277975" height="12.558479459985179"/>
	<rect fill="none" stroke="black" stroke-width="0.6"  x="124.6643335216234" y="109.53153167799299" width="12.236487174345257" height="11.121383757209912"/>
	<rect fill="none" stroke="black" stroke-width="0.6"  x="143.51050020219853" y="159.76853407946393" width="12.719869445438292" height="12.228153686172163"/>
	<rect fill="red"  x="39.259300495699186" y="2.2736683370143895" width="11.879803120262196" height="13.947001152268644"/>
	<rect fill="red"  x="56.38608796373408" y="17.84897353939649" width="10.825411067598274" height="11.85047468269677"/>
	<rect fill="red"  x="18.512611385317097" y="26.304337822431783" width="11.606047348570698" height="13.847701480576674"/>
	<rect fill="red"  x="87.8286362457174" y="47.241133044864085" width="11.971659742220737" height="12.93716304259236"/>
	<rect fill="red"  x="7.578463821952749" y="137.72191029220951" width="10.28931053848881" height="14.435282362393764"/>
	<rect fill="red"  x="133.15378559281712" y="5.600115278220992" width="12.053886875809184" height="10.308496742636505"/>
	<rect fill="red"  x="145.42671470745728" y="11.423613165602589" width="11.807146797525974" height="10.48141124278223"/>
	<rect fill="red"  x="129.5987826365893" y="32.32511624594632" width="14.231117078277975" height="12.558479459985179"/>
	<rect fill="red"  x="124.6643335216234" y="109.53153167799299" width="12.236487174345257" height="11.121383757209912"/>
	<rect fill="red"  x="143.51050020219853" y="159.76853407946393" width="12.719869445438292" height="12.228153686172163"/>
</svg>
