<svg width="2980.543521611093" height="3061.515827933044" viewBox="6.594755220175495,-1.8654157714413753,178.8326112966656,183.69094967598264" xmlns="http://www.w3.org/2000/svg">
	<rect fill="none" stroke="black" stroke-width="0.1"  x="21.49747282823096" y="13.442163368223845" width="9.935145072036981" height="9.567236962290764"/>
	<rect fill="none" stroke="black" stroke-width="0.1"  x="31.43261790026794" y="13.442163368223845" width="9.935145072036978" height="9.567236962290764"/>
	<rect fill="none" stroke="black" stroke-width="0.1"  x="41.367762972304924" y="13.442163368223845" width="9.935145072036974" height="9.567236962290764"/>
	<rect fill="none" stroke="black" stroke-width="0.1"  x="51.3029080443419" y="13.442163368223845" width="9.935145072036974" height="9.567236962290764"/>
	<rect fill="#AAAAAA"  x="61.238053116378886" y="13.442163368223845" width="9.935145072036981" height="9.567236962290764"/>
	<rect fill="#AAAAAA"  x="71.17319818841585" y="13.442163368223845" width="9.935145072036988" height="9.567236962290764"/>
	<rect fill="#AAAAAA"  x="81.10834326045283" y="13.442163368223845" width="9.935145072036988" height="9.567236962290764"/>
	<rect fill="none" stroke="black" stroke-width="0.1"  x="91.04348833248982" y="13.442163368223845" width="9.935145072036988" height="9.567236962290764"/>
	<rect fill="none" stroke="black" stroke-width="0.1"  x="100.97863340452678" y="13.442163368223845" width="9.935145072036988" height="9.567236962290764"/>
	<rect fill="none" stroke="black" stroke-width="0.1"  x="110.91377847656376" y="13.442163368223845" width="9.935145072036988" height="9.567236962290764"/>
	<rect fill="none" stroke="black" stroke-width="0.1"  x="120.84892354860072" y="13.442163368223845" width="9.935145072036974" height="9.567236962290764"/>
	<rect fill="none" stroke="black" stroke-width="0.1"  x="130.78406862063775" y="13.442163368223845" width="9.93514507203696" height="9.567236962290764"/>
	<rect fill="none" stroke="black" stroke-width="0.1"  x="140.7192136926747" y="13.442163368223845" width="9.93514507203696" height="9.567236962290764"/>
	<rect fill="none" stroke="black" stroke-width="0.1"  x="150.6543587647117" y="13.442163368223845" width="9.93514507203696" height="9.567236962290764"/>
	<rect fill="none" stroke="black" stroke-width="0.1"  x="160.58950383674866" y="13.442163368223845" width="9.93514507203696" height="9.567236962290764"/>
	<rect fill="none" stroke="black" stroke-width="0.1"  x="21.49747282823096" y="23.009400330514605" width="9.935145072036981" height="9.56723696229076"/>
	<rect fill="none" stroke="black" stroke-width="0.1"  x="31.43261790026794" y="23.009400330514605" width="9.935145072036978" height="9.56723696229076"/>
	<rect fill="#AAAAAA"  x="41.367762972304924" y="23.009400330514605" width="9.935145072036974" height="9.56723696229076"/>
	<rect fill="#AAAAAA"  x="51.3029080443419" y="23.009400330514605" width="9.935145072036974" height="9.56723696229076"/>
	<rect fill="#AAAAAA"  x="61.238053116378886" y="23.009400330514605" width="9.935145072036981" height="9.56723696229076"/>
	<rect fill="#AAAAAA"  x="71.17319818841585" y="23.009400330514605" width="9.935145072036988" height="9.56723696229076"/>
	<rect fill="#AAAAAA"  x="81.10834326045283" y="23.009400330514605" width="9.935145072036988" height="9.56723696229076"/>
	<rect fill="none" stroke="black" stroke-width="0.1"  x="91.04348833248982" y="23.009400330514605" width="9.935145072036988" height="9.56723696229076"/>
	<rect fill="none" stroke="black" stroke-width="0.1"  x="100.97863340452678" y="23.009400330514605" width="9.935145072036988" height="9.56723696229076"/>
	<rect fill="none" stroke="black" stroke-width="0.1"  x="110.91377847656376" y="23.009400330514605" width="9.935145072036988" height="9.56723696229076"/>
	<rect fill="none" stroke="black" stroke-width="0.1"  x="120.84892354860072" y="23.009400330514605" width="9.935145072036974" height="9.56723696229076"/>
	<rect fill="#AAAAAA"  x="130.78406862063775" y="23.009400330514605" width="9.93514507203696" height="9.56723696229076"/>
	<rect fill="#AAAAAA"  x="140.7192136926747" y="23.009400330514605" width="9.93514507203696" height="9.56723696229076"/>
	<rect fill="#AAAAAA"  x="150.6543587647117" y="23.009400330514605" width="9.93514507203696" height="9.56723696229076"/>
	<rect fill="#AAAAAA"  x="160.58950383674866" y="23.009400330514605" width="9.93514507203696" height="9.56723696229076"/>
	<rect fill="none" stroke="black" stroke-width="0.1"  x="21.49747282823096" y="32.57663729280537" width="9.935145072036981" height="9.567236962290764"/>
	<rect fill="none" stroke="black" stroke-width="0.1"  x="31.43261790026794" y="32.57663729280537" width="9.935145072036978" height="9.567236962290764"/>
	<rect fill="#AAAAAA"  x="41.367762972304924" y="32.57663729280537" width="9.935145072036974" height="9.567236962290764"/>
	<rect fill="#AAAAAA"  x="51.3029080443419" y="32.57663729280537" width="9.935145072036974" height="9.567236962290764"/>
	<rect fill="#AAAAAA"  x="61.238053116378886" y="32.57663729280537" width="9.935145072036981" height="9.567236962290764"/>
	<rect fill="#AAAAAA"  x="71.17319818841585" y="32.57663729280537" width="9.935145072036988" height="9.567236962290764"/>
	<rect fill="#AAAAAA"  x="81.10834326045283" y="32.57663729280537" width="9.935145072036988" height="9.567236962290764"/>
	<rect fill="none" stroke="black" stroke-width="0.1"  x="91.04348833248982" y="32.57663729280537" width="9.935145072036988" height="9.567236962290764"/>
	<rect fill="none" stroke="black" stroke-width="0.1"  x="100.97863340452678" y="32.57663729280537" width="9.935145072036988" height="9.567236962290764"/>
	<rect fill="none" stroke="black" stroke-width="0.1"  x="110.91377847656376" y="32.57663729280537" width="9.935145072036988" height="9.567236962290764"/>
	<rect fill="none" stroke="black" stroke-width="0.1"  x="120.84892354860072" y="32.57663729280537" width="9.935145072036974" height="9.567236962290764"/>
	<rect fill="#AAAAAA"  x="130.78406862063775" y="32.57663729280537" width="9.93514507203696" height="9.567236962290764"/>
	<rect fill="#AAAAAA"  x="140.7192136926747" y="32.57663729280537" width="9.93514507203696" height="9.567236962290764"/>
	<rect fill="#AAAAAA"  x="150.6543587647117" y="32.57663729280537" width="9.93514507203696" height="9.567236962290764"/>
	<rect fill="#AAAAAA"  x="160.58950383674866" y="32.57663729280537" width="9.93514507203696" height="9.567236962290764"/>
	<rect fill="none" stroke="black" stroke-width="0.1"  x="21.49747282823096" y="42.14387425509613" width="9.935145072036981" height="9.567236962290764"/>
	<rect fill="none" stroke="black" stroke-width="0.1"  x="31.43261790026794" y="42.14387425509613" width="9.935145072036978" height="9.567236962290764"/>
	<rect fill="#AAAAAA"  x="41.367762972304924" y="42.14387425509613" width="9.935145072036974" height="9.567236962290764"/>
	<rect fill="#AAAAAA"  x="51.3029080443419" y="42.14387425509613" width="9.935145072036974" height="9.567236962290764"/>
	<rect fill="#AAAAAA"  x="61.238053116378886" y="42.14387425509613" width="9.935145072036981" height="9.567236962290764"/>
	<rect fill="none" stroke="black" stroke-width="0.1"  x="71.17319818841585" y="42.14387425509613" width="9.935145072036988" height="9.567236962290764"/>
	<rect fill="none" stroke="black" stroke-width="0.1"  x="81.10834326045283" y="42.14387425509613" width="9.935145072036988" height="9.567236962290764"/>
	<rect fill="none" stroke="black" stroke-width="0.1"  x="91.04348833248982" y="42.14387425509613" width="9.935145072036988" height="9.567236962290764"/>
	<rect fill="none" stroke="black" stroke-width="0.1"  x="100.97863340452678" y="42.14387425509613" width="9.935145072036988" height="9.567236962290764"/>
	<rect fill="none" stroke="black" stroke-width="0.1"  x="110.91377847656376" y="42.14387425509613" width="9.935145072036988" height="9.567236962290764"/>
	<rect fill="none" stroke="black" stroke-width="0.1"  x="120.84892354860072" y="42.14387425509613" width="9.935145072036974" height="9.567236962290764"/>
	<rect fill="#AAAAAA"  x="130.78406862063775" y="42.14387425509613" width="9.93514507203696" height="9.567236962290764"/>
	<rect fill="#AAAAAA"  x="140.7192136926747" y="42.14387425509613" width="9.93514507203696" height="9.567236962290764"/>
	<rect fill="#AAAAAA"  x="150.6543587647117" y="42.14387425509613" width="9.93514507203696" height="9.567236962290764"/>
	<rect fill="#AAAAAA"  x="160.58950383674866" y="42.14387425509613" width="9.93514507203696" height="9.567236962290764"/>
	<rect fill="none" stroke="black" stroke-width="0.1"  x="21.49747282823096" y="51.71111121738689" width="9.935145072036981" height="9.567236962290764"/>
	<rect fill="none" stroke="black" stroke-width="0.1"  x="31.43261790026794" y="51.71111121738689" width="9.935145072036978" height="9.567236962290764"/>
	<rect fill="#AAAAAA"  x="41.367762972304924" y="51.71111121738689" width="9.935145072036974" height="9.567236962290764"/>
	<rect fill="#AAAAAA"  x="51.3029080443419" y="51.71111121738689" width="9.935145072036974" height="9.567236962290764"/>
	<rect fill="#AAAAAA"  x="61.238053116378886" y="51.71111121738689" width="9.935145072036981" height="9.567236962290764"/>
	<rect fill="none" stroke="black" stroke-width="0.1"  x="71.17319818841585" y="51.71111121738689" width="9.935145072036988" height="9.567236962290764"/>
	<rect fill="none" stroke="black" stroke-width="0.1"  x="81.10834326045283" y="51.71111121738689" width="9.935145072036988" height="9.567236962290764"/>
	<rect fill="none" stroke="black" stroke-width="0.1"  x="91.04348833248982" y="51.71111121738689" width="9.935145072036988" height="9.567236962290764"/>
	<rect fill="none" stroke="black" stroke-width="0.1"  x="100.97863340452678" y="51.71111121738689" width="9.935145072036988" height="9.567236962290764"/>
	<rect fill="none" stroke="black" stroke-width="0.1"  x="110.91377847656376" y="51.71111121738689" width="9.935145072036988" height="9.567236962290764"/>
	<rect fill="none" stroke="black" stroke-width="0.1"  x="120.84892354860072" y="51.71111121738689" width="9.935145072036974" height="9.567236962290764"/>
	<rect fill="none" stroke="black" stroke-width="0.1"  x="130.78406862063775" y="51.71111121738689" width="9.93514507203696" height="9.567236962290764"/>
	<rect fill="none" stroke="black" stroke-width="0.1"  x="140.7192136926747" y="51.71111121738689" width="9.93514507203696" height="9.567236962290764"/>
	<rect fill="#AAAAAA"  x="150.6543587647117" y="51.71111121738689" width="9.93514507203696" height="9.567236962290764"/>
	<rect fill="#AAAAAA"  x="160.58950383674866" y="51.71111121738689" width="9.93514507203696" height="9.567236962290764"/>
	<rect fill="none" stroke="black" stroke-width="0.1"  x="21.49747282823096" y="61.27834817967765" width="9.935145072036981" height="9.567236962290764"/>
	<rect fill="none" stroke="black" stroke-width="0.1"  x="31.43261790026794" y="61.27834817967765" width="9.935145072036978" height="9.567236962290764"/>
	<rect fill="#AAAAAA"  x="41.367762972304924" y="61.27834817967765" width="9.935145072036974" height="9.567236962290764"/>
	<rect fill="#AAAAAA"  x="51.3029080443419" y="61.27834817967765" width="9.935145072036974" height="9.567236962290764"/>
	<rect fill="#AAAAAA"  x="61.238053116378886" y="61.27834817967765" width="9.935145072036981" height="9.567236962290764"/>
	<rect fill="none" stroke="black" stroke-width="0.1"  x="71.17319818841585" y="61.27834817967765" width="9.935145072036988" height="9.567236962290764"/>
	<rect fill="none" stroke="black" stroke-width="0.1"  x="81.10834326045283" y="61.27834817967765" width="9.935145072036988" height="9.567236962290764"/>
	<rect fill="none" stroke="black" stroke-width="0.1"  x="91.04348833248982" y="61.27834817967765" width="9.935145072036988" height="9.567236962290764"/>
	<rect fill="none" stroke="black" stroke-width="0.1"  x="100.97863340452678" y="61.27834817967765" width="9.935145072036988" height="9.567236962290764"/>
	<rect fill="none" stroke="black" stroke-width="0.1"  x="110.91377847656376" y="61.27834817967765" width="9.935145072036988" height="9.567236962290764"/>
	<rect fill="none" stroke="black" stroke-width="0.1"  x="120.84892354860072" y="61.27834817967765" width="9.935145072036974" height="9.567236962290764"/>
	<rect fill="none" stroke="black" stroke-width="0.1"  x="130.78406862063775" y="61.27834817967765" width="9.93514507203696" height="9.567236962290764"/>
	<rect fill="none" stroke="black" stroke-width="0.1"  x="140.7192136926747" y="61.27834817967765" width="9.93514507203696" height="9.567236962290764"/>
	<rect fill="#AAAAAA"  x="150.6543587647117" y="61.27834817967765" width="9.93514507203696" height="9.567236962290764"/>
	<rect fill="#AAAAAA"  x="160.58950383674866" y="61.27834817967765" width="9.93514507203696" height="9.567236962290764"/>
	<rect fill="none" stroke="black" stroke-width="0.1"  x="21.49747282823096" y="70.84558514196841" width="9.935145072036981" height="9.567236962290764"/>
	<rect fill="none" stroke="black" stroke-width="0.1"  x="31.43261790026794" y="70.84558514196841" width="9.935145072036978" height="9.567236962290764"/>
	<rect fill="none" stroke="black" stroke-width="0.1"  x="41.367762972304924" y="70.84558514196841" width="9.935145072036974" height="9.567236962290764"/>
	<rect fill="none" stroke="black" stroke-width="0.1"  x="51.3029080443419" y="70.84558514196841" width="9.935145072036974" height="9.567236962290764"/>
	<rect fill="none" stroke="black" stroke-width="0.1"  x="61.238053116378886" y="70.84558514196841" width="9.935145072036981" height="9.567236962290764"/>
	<rect fill="none" stroke="black" stroke-width="0.1"  x="71.17319818841585" y="70.84558514196841" width="9.935145072036988" height="9.567236962290764"/>
	<rect fill="none" stroke="black" stroke-width="0.1"  x="81.10834326045283" y="70.84558514196841" width="9.935145072036988" height="9.567236962290764"/>
	<rect fill="none" stroke="black" stroke-width="0.1"  x="91.04348833248982" y="70.84558514196841" width="9.935145072036988" height="9.567236962290764"/>
	<rect fill="#AAAAAA"  x="100.97863340452678" y="70.84558514196841" width="9.935145072036988" height="9.567236962290764"/>
	<rect fill="#AAAAAA"  x="110.91377847656376" y="70.84558514196841" width="9.935145072036988" height="9.567236962290764"/>
	<rect fill="#AAAAAA"  x="120.84892354860072" y="70.84558514196841" width="9.935145072036974" height="9.567236962290764"/>
	<rect fill="none" stroke="black" stroke-width="0.1"  x="130.78406862063775" y="70.84558514196841" width="9.93514507203696" height="9.567236962290764"/>
	<rect fill="none" stroke="black" stroke-width="0.1"  x="140.7192136926747" y="70.84558514196841" width="9.93514507203696" height="9.567236962290764"/>
	<rect fill="#AAAAAA"  x="150.6543587647117" y="70.84558514196841" width="9.93514507203696" height="9.567236962290764"/>
	<rect fill="#AAAAAA"  x="160.58950383674866" y="70.84558514196841" width="9.93514507203696" height="9.567236962290764"/>
	<rect fill="#AAAAAA"  x="21.49747282823096" y="80.41282210425918" width="9.935145072036981" height="9.567236962290764"/>
	<rect fill="#AAAAAA"  x="31.43261790026794" y="80.41282210425918" width="9.935145072036978" height="9.567236962290764"/>
	<rect fill="#AAAAAA"  x="41.367762972304924" y="80.41282210425918" width="9.935145072036974" height="9.567236962290764"/>
	<rect fill="#AAAAAA"  x="51.3029080443419" y="80.41282210425918" width="9.935145072036974" height="9.567236962290764"/>
	<rect fill="none" stroke="black" stroke-width="0.1"  x="61.238053116378886" y="80.41282210425918" width="9.935145072036981" height="9.567236962290764"/>
	<rect fill="none" stroke="black" stroke-width="0.1"  x="71.17319818841585" y="80.41282210425918" width="9.935145072036988" height="9.567236962290764"/>
	<rect fill="none" stroke="black" stroke-width="0.1"  x="81.10834326045283" y="80.41282210425918" width="9.935145072036988" height="9.567236962290764"/>
	<rect fill="none" stroke="black" stroke-width="0.1"  x="91.04348833248982" y="80.41282210425918" width="9.935145072036988" height="9.567236962290764"/>
	<rect fill="#AAAAAA"  x="100.97863340452678" y="80.41282210425918" width="9.935145072036988" height="9.567236962290764"/>
	<rect fill="#AAAAAA"  x="110.91377847656376" y="80.41282210425918" width="9.935145072036988" height="9.567236962290764"/>
	<rect fill="#AAAAAA"  x="120.84892354860072" y="80.41282210425918" width="9.935145072036974" height="9.567236962290764"/>
	<rect fill="none" stroke="black" stroke-width="0.1"  x="130.78406862063775" y="80.41282210425918" width="9.93514507203696" height="9.567236962290764"/>
	<rect fill="none" stroke="black" stroke-width="0.1"  x="140.7192136926747" y="80.41282210425918" width="9.93514507203696" height="9.567236962290764"/>
	<rect fill="#AAAAAA"  x="150.6543587647117" y="80.41282210425918" width="9.93514507203696" height="9.567236962290764"/>
	<rect fill="#AAAAAA"  x="160.58950383674866" y="80.41282210425918" width="9.93514507203696" height="9.567236962290764"/>
	<rect fill="#AAAAAA"  x="21.49747282823096" y="89.98005906654994" width="9.935145072036981" height="9.567236962290764"/>
	<rect fill="#AAAAAA"  x="31.43261790026794" y="89.98005906654994" width="9.935145072036978" height="9.567236962290764"/>
	<rect fill="#AAAAAA"  x="41.367762972304924" y="89.98005906654994" width="9.935145072036974" height="9.567236962290764"/>
	<rect fill="#AAAAAA"  x="51.3029080443419" y="89.98005906654994" width="9.935145072036974" height="9.567236962290764"/>
	<rect fill="none" stroke="black" stroke-width="0.1"  x="61.238053116378886" y="89.98005906654994" width="9.935145072036981" height="9.567236962290764"/>
	<rect fill="none" stroke="black" stroke-width="0.1"  x="71.17319818841585" y="89.98005906654994" width="9.935145072036988" height="9.567236962290764"/>
	<rect fill="#AAAAAA"  x="81.10834326045283" y="89.98005906654994" width="9.935145072036988" height="9.567236962290764"/>
	<rect fill="#AAAAAA"  x="91.04348833248982" y="89.98005906654994" width="9.935145072036988" height="9.567236962290764"/>
	<rect fill="#AAAAAA"  x="100.97863340452678" y="89.98005906654994" width="9.935145072036988" height="9.567236962290764"/>
	<rect fill="#AAAAAA"  x="110.91377847656376" y="89.98005906654994" width="9.935145072036988" height="9.567236962290764"/>
	<rect fill="#AAAAAA"  x="120.84892354860072" y="89.98005906654994" width="9.935145072036974" height="9.567236962290764"/>
	<rect fill="none" stroke="black" stroke-width="0.1"  x="130.78406862063775" y="89.98005906654994" width="9.93514507203696" height="9.567236962290764"/>
	<rect fill="none" stroke="black" stroke-width="0.1"  x="140.7192136926747" y="89.98005906654994" width="9.93514507203696" height="9.567236962290764"/>
	<rect fill="none" stroke="black" stroke-width="0.1"  x="150.6543587647117" y="89.98005906654994" width="9.93514507203696" height="9.567236962290764"/>
	<rect fill="none" stroke="black" stroke-width="0.1"  x="160.58950383674866" y="89.98005906654994" width="9.93514507203696" height="9.567236962290764"/>
	<rect fill="#AAAAAA"  x="21.49747282823096" y="99.5472960288407" width="9.935145072036981" height="9.567236962290764"/>
	<rect fill="#AAAAAA"  x="31.43261790026794" y="99.5472960288407" width="9.935145072036978" height="9.567236962290764"/>
	<rect fill="#AAAAAA"  x="41.367762972304924" y="99.5472960288407" width="9.935145072036974" height="9.567236962290764"/>
	<rect fill="#AAAAAA"  x="51.3029080443419" y="99.5472960288407" width="9.935145072036974" height="9.567236962290764"/>
	<rect fill="none" stroke="black" stroke-width="0.1"  x="61.238053116378886" y="99.5472960288407" width="9.935145072036981" height="9.567236962290764"/>
	<rect fill="none" stroke="black" stroke-width="0.1"  x="71.17319818841585" y="99.5472960288407" width="9.935145072036988" height="9.567236962290764"/>
	<rect fill="#AAAAAA"  x="81.10834326045283" y="99.5472960288407" width="9.935145072036988" height="9.567236962290764"/>
	<rect fill="#AAAAAA"  x="91.04348833248982" y="99.5472960288407" width="9.935145072036988" height="9.567236962290764"/>
	<rect fill="#AAAAAA"  x="100.97863340452678" y="99.5472960288407" width="9.935145072036988" height="9.567236962290764"/>
	<rect fill="#AAAAAA"  x="110.91377847656376" y="99.5472960288407" width="9.935145072036988" height="9.567236962290764"/>
	<rect fill="none" stroke="black" stroke-width="0.1"  x="120.84892354860072" y="99.5472960288407" width="9.935145072036974" height="9.567236962290764"/>
	<rect fill="none" stroke="black" stroke-width="0.1"  x="130.78406862063775" y="99.5472960288407" width="9.93514507203696" height="9.567236962290764"/>
	<rect fill="none" stroke="black" stroke-width="0.1"  x="140.7192136926747" y="99.5472960288407" width="9.93514507203696" height="9.567236962290764"/>
	<rect fill="none" stroke="black" stroke-width="0.1"  x="150.6543587647117" y="99.5472960288407" width="9.93514507203696" height="9.567236962290764"/>
	<rect fill="none" stroke="black" stroke-width="0.1"  x="160.58950383674866" y="99.5472960288407" width="9.93514507203696" height="9.567236962290764"/>
	<rect fill="#AAAAAA"  x="21.49747282823096" y="109.11453299113147" width="9.935145072036981" height="9.567236962290764"/>
	<rect fill="#AAAAAA"  x="31.43261790026794" y="109.11453299113147" width="9.935145072036978" height="9.567236962290764"/>
	<rect fill="#AAAAAA"  x="41.367762972304924" y="109.11453299113147" width="9.935145072036974" height="9.567236962290764"/>
	<rect fill="#AAAAAA"  x="51.3029080443419" y="109.11453299113147" width="9.935145072036974" height="9.567236962290764"/>
	<rect fill="#AAAAAA"  x="61.238053116378886" y="109.11453299113147" width="9.935145072036981" height="9.567236962290764"/>
	<rect fill="none" stroke="black" stroke-width="0.1"  x="71.17319818841585" y="109.11453299113147" width="9.935145072036988" height="9.567236962290764"/>
	<rect fill="#AAAAAA"  x="81.10834326045283" y="109.11453299113147" width="9.935145072036988" height="9.567236962290764"/>
	<rect fill="#AAAAAA"  x="91.04348833248982" y="109.11453299113147" width="9.935145072036988" height="9.567236962290764"/>
	<rect fill="#AAAAAA"  x="100.97863340452678" y="109.11453299113147" width="9.935145072036988" height="9.567236962290764"/>
	<rect fill="#AAAAAA"  x="110.91377847656376" y="109.11453299113147" width="9.935145072036988" height="9.567236962290764"/>
	<rect fill="none" stroke="black" stroke-width="0.1"  x="120.84892354860072" y="109.11453299113147" width="9.935145072036974" height="9.567236962290764"/>
	<rect fill="none" stroke="black" stroke-width="0.1"  x="130.78406862063775" y="109.11453299113147" width="9.93514507203696" height="9.567236962290764"/>
	<rect fill="none" stroke="black" stroke-width="0.1"  x="140.7192136926747" y="109.11453299113147" width="9.93514507203696" height="9.567236962290764"/>
	<rect fill="none" stroke="black" stroke-width="0.1"  x="150.6543587647117" y="109.11453299113147" width="9.93514507203696" height="9.567236962290764"/>
	<rect fill="none" stroke="black" stroke-width="0.1"  x="160.58950383674866" y="109.11453299113147" width="9.93514507203696" height="9.567236962290764"/>
	<rect fill="#AAAAAA"  x="21.49747282823096" y="118.68176995342223" width="9.935145072036981" height="9.56723696229075"/>
	<rect fill="#AAAAAA"  x="31.43261790026794" y="118.68176995342223" width="9.935145072036978" height="9.56723696229075"/>
	<rect fill="#AAAAAA"  x="41.367762972304924" y="118.68176995342223" width="9.935145072036974" height="9.56723696229075"/>
	<rect fill="#AAAAAA"  x="51.3029080443419" y="118.68176995342223" width="9.935145072036974" height="9.56723696229075"/>
	<rect fill="#AAAAAA"  x="61.238053116378886" y="118.68176995342223" width="9.935145072036981" height="9.56723696229075"/>
	<rect fill="none" stroke="black" stroke-width="0.1"  x="71.17319818841585" y="118.68176995342223" width="9.935145072036988" height="9.56723696229075"/>
	<rect fill="none" stroke="black" stroke-width="0.1"  x="81.10834326045283" y="118.68176995342223" width="9.935145072036988" height="9.56723696229075"/>
	<rect fill="none" stroke="black" stroke-width="0.1"  x="91.04348833248982" y="118.68176995342223" width="9.935145072036988" height="9.56723696229075"/>
	<rect fill="none" stroke="black" stroke-width="0.1"  x="100.97863340452678" y="118.68176995342223" width="9.935145072036988" height="9.56723696229075"/>
	<rect fill="none" stroke="black" stroke-width="0.1"  x="110.91377847656376" y="118.68176995342223" width="9.935145072036988" height="9.56723696229075"/>
	<rect fill="none" stroke="black" stroke-width="0.1"  x="120.84892354860072" y="118.68176995342223" width="9.935145072036974" height="9.56723696229075"/>
	<rect fill="none" stroke="black" stroke-width="0.1"  x="130.78406862063775" y="118.68176995342223" width="9.93514507203696" height="9.56723696229075"/>
	<rect fill="none" stroke="black" stroke-width="0.1"  x="140.7192136926747" y="118.68176995342223" width="9.93514507203696" height="9.56723696229075"/>
	<rect fill="none" stroke="black" stroke-width="0.1"  x="150.6543587647117" y="118.68176995342223" width="9.93514507203696" height="9.56723696229075"/>
	<rect fill="none" stroke="black" stroke-width="0.1"  x="160.58950383674866" y="118.68176995342223" width="9.93514507203696" height="9.56723696229075"/>
	<rect fill="none" stroke="black" stroke-width="0.1"  x="21.49747282823096" y="128.24900691571298" width="9.935145072036981" height="9.567236962290735"/>
	<rect fill="#AAAAAA"  x="31.43261790026794" y="128.24900691571298" width="9.935145072036978" height="9.567236962290735"/>
	<rect fill="#AAAAAA"  x="41.367762972304924" y="128.24900691571298" width="9.935145072036974" height="9.567236962290735"/>
	<rect fill="#AAAAAA"  x="51.3029080443419" y="128.24900691571298" width="9.935145072036974" height="9.567236962290735"/>
	<rect fill="#AAAAAA"  x="61.238053116378886" y="128.24900691571298" width="9.935145072036981" height="9.567236962290735"/>
	<rect fill="none" stroke="black" stroke-width="0.1"  x="71.17319818841585" y="128.24900691571298" width="9.935145072036988" height="9.567236962290735"/>
	<rect fill="none" stroke="black" stroke-width="0.1"  x="81.10834326045283" y="128.24900691571298" width="9.935145072036988" height="9.567236962290735"/>
	<rect fill="none" stroke="black" stroke-width="0.1"  x="91.04348833248982" y="128.24900691571298" width="9.935145072036988" height="9.567236962290735"/>
	<rect fill="none" stroke="black" stroke-width="0.1"  x="100.97863340452678" y="128.24900691571298" width="9.935145072036988" height="9.567236962290735"/>
	<rect fill="none" stroke="black" stroke-width="0.1"  x="110.91377847656376" y="128.24900691571298" width="9.935145072036988" height="9.567236962290735"/>
	<rect fill="none" stroke="black" stroke-width="0.1"  x="120.84892354860072" y="128.24900691571298" width="9.935145072036974" height="9.567236962290735"/>
	<rect fill="none" stroke="black" stroke-width="0.1"  x="130.78406862063775" y="128.24900691571298" width="9.93514507203696" height="9.567236962290735"/>
	<rect fill="none" stroke="black" stroke-width="0.1"  x="140.7192136926747" y="128.24900691571298" width="9.93514507203696" height="9.567236962290735"/>
	<rect fill="none" stroke="black" stroke-width="0.1"  x="150.6543587647117" y="128.24900691571298" width="9.93514507203696" height="9.567236962290735"/>
	<rect fill="none" stroke="black" stroke-width="0.1"  x="160.58950383674866" y="128.24900691571298" width="9.93514507203696" height="9.567236962290735"/>
	<rect fill="none" stroke="black" stroke-width="0.1"  x="21.49747282823096" y="137.81624387800377" width="9.935145072036981" height="9.567236962290735"/>
	<rect fill="#AAAAAA"  x="31.43261790026794" y="137.81624387800377" width="9.935145072036978" height="9.567236962290735"/>
	<rect fill="#AAAAAA"  x="41.367762972304924" y="137.81624387800377" width="9.935145072036974" height="9.567236962290735"/>
	<rect fill="#AAAAAA"  x="51.3029080443419" y="137.81624387800377" width="9.935145072036974" height="9.567236962290735"/>
	<rect fill="#AAAAAA"  x="61.238053116378886" y="137.81624387800377" width="9.935145072036981" height="9.567236962290735"/>
	<rect fill="none" stroke="black" stroke-width="0.1"  x="71.17319818841585" y="137.81624387800377" width="9.935145072036988" height="9.567236962290735"/>
	<rect fill="none" stroke="black" stroke-width="0.1"  x="81.10834326045283" y="137.81624387800377" width="9.935145072036988" height="9.567236962290735"/>
	<rect fill="none" stroke="black" stroke-width="0.1"  x="91.04348833248982" y="137.81624387800377" width="9.935145072036988" height="9.567236962290735"/>
	<rect fill="none" stroke="black" stroke-width="0.1"  x="100.97863340452678" y="137.81624387800377" width="9.935145072036988" height="9.567236962290735"/>
	<rect fill="none" stroke="black" stroke-width="0.1"  x="110.91377847656376" y="137.81624387800377" width="9.935145072036988" height="9.567236962290735"/>
	<rect fill="none" stroke="black" stroke-width="0.1"  x="120.84892354860072" y="137.81624387800377" width="9.935145072036974" height="9.567236962290735"/>
	<rect fill="none" stroke="black" stroke-width="0.1"  x="130.78406862063775" y="137.81624387800377" width="9.93514507203696" height="9.567236962290735"/>
	<rect fill="none" stroke="black" stroke-width="0.1"  x="140.7192136926747" y="137.81624387800377" width="9.93514507203696" height="9.567236962290735"/>
	<rect fill="none" stroke="black" stroke-width="0.1"  x="150.6543587647117" y="137.81624387800377" width="9.93514507203696" height="9.567236962290735"/>
	<rect fill="none" stroke="black" stroke-width="0.1"  x="160.58950383674866" y="137.81624387800377" width="9.93514507203696" height="9.567236962290735"/>
	<rect fill="#AAAAAA"  x="21.49747282823096" y="147.38348084029454" width="9.935145072036981" height="9.567236962290735"/>
	<rect fill="#AAAAAA"  x="31.43261790026794" y="147.38348084029454" width="9.935145072036978" height="9.567236962290735"/>
	<rect fill="#AAAAAA"  x="41.367762972304924" y="147.38348084029454" width="9.935145072036974" height="9.567236962290735"/>
	<rect fill="#AAAAAA"  x="51.3029080443419" y="147.38348084029454" width="9.935145072036974" height="9.567236962290735"/>
	<rect fill="#AAAAAA"  x="61.238053116378886" y="147.38348084029454" width="9.935145072036981" height="9.567236962290735"/>
	<rect fill="none" stroke="black" stroke-width="0.1"  x="71.17319818841585" y="147.38348084029454" width="9.935145072036988" height="9.567236962290735"/>
	<rect fill="none" stroke="black" stroke-width="0.1"  x="81.10834326045283" y="147.38348084029454" width="9.935145072036988" height="9.567236962290735"/>
	<rect fill="none" stroke="black" stroke-width="0.1"  x="91.04348833248982" y="147.38348084029454" width="9.935145072036988" height="9.567236962290735"/>
	<rect fill="none" stroke="black" stroke-width="0.1"  x="100.97863340452678" y="147.38348084029454" width="9.935145072036988" height="9.567236962290735"/>
	<rect fill="none" stroke="black" stroke-width="0.1"  x="110.91377847656376" y="147.38348084029454" width="9.935145072036988" height="9.567236962290735"/>
	<rect fill="none" stroke="black" stroke-width="0.1"  x="120.84892354860072" y="147.38348084029454" width="9.935145072036974" height="9.567236962290735"/>
	<rect fill="none" stroke="black" stroke-width="0.1"  x="130.78406862063775" y="147.38348084029454" width="9.93514507203696" height="9.567236962290735"/>
	<rect fill="none" stroke="black" stroke-width="0.1"  x="140.7192136926747" y="147.38348084029454" width="9.93514507203696" height="9.567236962290735"/>
	<rect fill="none" stroke="black" stroke-width="0.1"  x="150.6543587647117" y="147.38348084029454" width="9.93514507203696" height="9.567236962290735"/>
	<rect fill="none" stroke="black" stroke-width="0.1"  x="160.58950383674866" y="147.38348084029454" width="9.93514507203696" height="9.567236962290735"/>
	<rect fill="#AAAAAA"  x="21.49747282823096" y="156.9507178025853" width="9.935145072036981" height="9.567236962290735"/>
	<rect fill="#AAAAAA"  x="31.43261790026794" y="156.9507178025853" width="9.935145072036978" height="9.567236962290735"/>
	<rect fill="none" stroke="black" stroke-width="0.1"  x="41.367762972304924" y="156.9507178025853" width="9.935145072036974" height="9.567236962290735"/>
	<rect fill="none" stroke="black" stroke-width="0.1"  x="51.3029080443419" y="156.9507178025853" width="9.935145072036974" height="9.567236962290735"/>
	<rect fill="none" stroke="black" stroke-width="0.1"  x="61.238053116378886" y="156.9507178025853" width="9.935145072036981" height="9.567236962290735"/>
	<rect fill="none" stroke="black" stroke-width="0.1"  x="71.17319818841585" y="156.9507178025853" width="9.935145072036988" height="9.567236962290735"/>
	<rect fill="none" stroke="black" stroke-width="0.1"  x="81.10834326045283" y="156.9507178025853" width="9.935145072036988" height="9.567236962290735"/>
	<rect fill="none" stroke="black" stroke-width="0.1"  x="91.04348833248982" y="156.9507178025853" width="9.935145072036988" height="9.567236962290735"/>
	<rect fill="none" stroke="black" stroke-width="0.1"  x="100.97863340452678" y="156.9507178025853" width="9.935145072036988" height="9.567236962290735"/>
	<rect fill="none" stroke="black" stroke-width="0.1"  x="110.91377847656376" y="156.9507178025853" width="9.935145072036988" height="9.567236962290735"/>
	<rect fill="none" stroke="black" stroke-width="0.1"  x="120.84892354860072" y="156.9507178025853" width="9.935145072036974" height="9.567236962290735"/>
	<rect fill="none" stroke="black" stroke-width="0.1"  x="130.78406862063775" y="156.9507178025853" width="9.93514507203696" height="9.567236962290735"/>
	<rect fill="none" stroke="black" stroke-width="0.1"  x="140.7192136926747" y="156.9507178025853" width="9.93514507203696" height="9.567236962290735"/>
	<rect fill="none" stroke="black" stroke-width="0.1"  x="150.6543587647117" y="156.9507178025853" width="9.93514507203696" height="9.567236962290735"/>
	<rect fill="none" stroke="black" stroke-width="0.1"  x="160.58950383674866" y="156.9507178025853" width="9.93514507203696" height="9.567236962290735"/>
	<rect fill="red"  x="39.81228664538303" y="117.34518985132048" width="25.453538922901977" height="30.69660717985424"/>
	<rect fill="red"  x="25.98624957215442" y="153.1588095416468" width="13.959280058495906" height="13.35914512322924"/>
	<rect fill="red"  x="107.40829065827936" y="78.89941965881746" width="14.982516201671402" height="18.43147690545311"/>
	<rect fill="red"  x="47.325067716115186" y="25.175353788076684" width="21.186449078459987" height="37.28806529458951"/>
	<rect fill="red"  x="63.995899721918406" y="13.442163368223845" width="22.756562068773547" height="21.44712970151391"/>
	<rect fill="red"  x="155.48736744844888" y="56.829129535914724" width="10.119314778956635" height="30.755785994292616"/>
	<rect fill="red"  x="139.3619372368915" y="26.06220236946669" width="31.162711571894164" height="17.272266843935157"/>
	<rect fill="red"  x="98.00393075247615" y="97.81181237612213" width="12.98892172228787" height="18.40263472279551"/>
	<rect fill="red"  x="21.49747282823096" y="89.51619345642442" width="35.34002000346708" height="30.790942587989164"/>
	<rect fill="red"  x="88.28079555918012" y="90.72345888423428" width="28.969738631561796" height="25.59050659615599"/>
	<rect fill="#00AA00"  x="21.49747282823096" y="13.442163368223845" width="9.935145072036981" height="9.567236962290764"/>
	<rect fill="#00AA00"  x="21.49747282823096" y="23.009400330514605" width="9.935145072036981" height="9.56723696229076"/>
	<rect fill="#00AA00"  x="31.43261790026794" y="23.009400330514605" width="9.935145072036978" height="9.56723696229076"/>
	<rect fill="#00AA00"  x="31.43261790026794" y="32.57663729280537" width="9.935145072036978" height="9.567236962290764"/>
	<rect fill="#00AA00"  x="31.43261790026794" y="42.14387425509613" width="9.935145072036978" height="9.567236962290764"/>
	<rect fill="#00AA00"  x="31.43261790026794" y="51.71111121738689" width="9.935145072036978" height="9.567236962290764"/>
	<rect fill="#00AA00"  x="31.43261790026794" y="61.27834817967765" width="9.935145072036978" height="9.567236962290764"/>
	<rect fill="#00AA00"  x="31.43261790026794" y="70.84558514196841" width="9.935145072036978" height="9.567236962290764"/>
	<rect fill="#00AA00"  x="41.367762972304924" y="70.84558514196841" width="9.935145072036974" height="9.567236962290764"/>
	<rect fill="#00AA00"  x="51.3029080443419" y="70.84558514196841" width="9.935145072036974" height="9.567236962290764"/>
	<rect fill="#00AA00"  x="61.238053116378886" y="70.84558514196841" width="9.935145072036981" height="9.567236962290764"/>
	<rect fill="#00AA00"  x="61.238053116378886" y="80.41282210425918" width="9.935145072036981" height="9.567236962290764"/>
	<rect fill="#00AA00"  x="61.238053116378886" y="89.98005906654994" width="9.935145072036981" height="9.567236962290764"/>
	<rect fill="#00AA00"  x="71.17319818841585" y="89.98005906654994" width="9.935145072036988" height="9.567236962290764"/>
	<rect fill="#00AA00"  x="71.17319818841585" y="99.5472960288407" width="9.935145072036988" height="9.567236962290764"/>
	<rect fill="#00AA00"  x="71.17319818841585" y="109.11453299113147" width="9.935145072036988" height="9.567236962290764"/>
	<rect fill="#00AA00"  x="71.17319818841585" y="118.68176995342223" width="9.935145072036988" height="9.56723696229075"/>
	<rect fill="#00AA00"  x="81.10834326045283" y="118.68176995342223" width="9.935145072036988" height="9.56723696229075"/>
	<rect fill="#00AA00"  x="91.04348833248982" y="118.68176995342223" width="9.935145072036988" height="9.56723696229075"/>
	<rect fill="#00AA00"  x="100.97863340452678" y="118.68176995342223" width="9.935145072036988" height="9.56723696229075"/>
	<rect fill="#00AA00"  x="110.91377847656376" y="118.68176995342223" width="9.935145072036988" height="9.56723696229075"/>
	<rect fill="#00AA00"  x="110.91377847656376" y="128.24900691571298" width="9.935145072036988" height="9.567236962290735"/>
	<rect fill="#00AA00"  x="110.91377847656376" y="137.81624387800377" width="9.935145072036988" height="9.567236962290735"/>
	<rect fill="#00AA00"  x="120.84892354860072" y="137.81624387800377" width="9.935145072036974" height="9.567236962290735"/>
	<rect fill="#00AA00"  x="130.78406862063775" y="137.81624387800377" width="9.93514507203696" height="9.567236962290735"/>
	<rect fill="#00AA00"  x="140.7192136926747" y="137.81624387800377" width="9.93514507203696" height="9.567236962290735"/>
	<rect fill="#00AA00"  x="150.6543587647117" y="137.81624387800377" width="9.93514507203696" height="9.567236962290735"/>
	<rect fill="#00AA00"  x="150.6543587647117" y="147.38348084029454" width="9.93514507203696" height="9.567236962290735"/>
	<rect fill="#00AA00"  x="160.58950383674866" y="147.38348084029454" width="9.93514507203696" height="9.567236962290735"/>
	<rect fill="#00AA00"  x="160.58950383674866" y="156.9507178025853" width="9.93514507203696" height="9.567236962290735"/>
</svg>
