<svg width="224.96158120458722" height="220.94754189265296" viewBox="-6.448135614531387,-7.079308207386801,13.497694872275234,13.256852513559176" xmlns="http://www.w3.org/2000/svg" style="background: ">
	<rect fill="white"  x="-0.1" y="-0.1" width="0.2" height="0.2"/>
	<rect fill="black"  x="1.5733852823614192" y="-2.415545322921846" width="0.20000000000000018" height="0.20000000000000018"/>
	<rect fill="green"  x="-0.1" y="-0.1" width="0.2" height="0.2"/>
	<rect fill="green"  x="0.028473231692997036" y="-0.10828702300597207" width="0.2" height="0.2"/>
	<rect fill="green"  x="0.1548171421326129" y="-0.1330107425232855" width="0.20000000000000004" height="0.2"/>
	<rect fill="green"  x="0.2769377015338874" y="-0.17376138648707276" width="0.19999999999999996" height="0.2"/>
	<rect fill="green"  x="0.3928108781263061" y="-0.2298635518492637" width="0.19999999999999996" height="0.2"/>
	<rect fill="green"  x="0.5005161845494711" y="-0.30038739873977394" width="0.19999999999999996" height="0.19999999999999998"/>
	<rect fill="green"  x="0.5982685080989962" y="-0.38416406167530126" width="0.19999999999999996" height="0.19999999999999998"/>
	<rect fill="green"  x="0.6872434562763018" y="-0.4773198092625107" width="0.19999999999999996" height="0.19999999999999996"/>
	<rect fill="green"  x="0.7755751344777679" y="-0.5710988204757114" width="0.19999999999999996" height="0.20000000000000007"/>
	<rect fill="green"  x="0.8639068126792343" y="-0.6648778316889121" width="0.20000000000000007" height="0.19999999999999996"/>
	<rect fill="green"  x="0.9522384908807008" y="-0.7586568429021131" width="0.20000000000000007" height="0.19999999999999996"/>
	<rect fill="green"  x="1.0405701690821667" y="-0.8524358541153138" width="0.20000000000000018" height="0.19999999999999996"/>
	<rect fill="green"  x="1.1289018472836332" y="-0.9462148653285145" width="0.20000000000000018" height="0.19999999999999996"/>
	<rect fill="green"  x="1.2172335254850997" y="-1.0399938765417154" width="0.20000000000000018" height="0.20000000000000007"/>
	<rect fill="green"  x="1.305565203686566" y="-1.1337728877549162" width="0.20000000000000018" height="0.20000000000000007"/>
	<rect fill="green"  x="1.3938968818880322" y="-1.227551898968117" width="0.20000000000000018" height="0.20000000000000018"/>
	<rect fill="green"  x="1.4792190762833686" y="-1.3240003606814692" width="0.20000000000000018" height="0.20000000000000018"/>
	<rect fill="green"  x="1.5520570808963212" y="-1.4301543577609384" width="0.20000000000000018" height="0.20000000000000018"/>
	<rect fill="green"  x="1.6106535282274081" y="-1.544786388067128" width="0.20000000000000018" height="0.20000000000000018"/>
	<rect fill="green"  x="1.6540372380624282" y="-1.665996535055302" width="0.20000000000000018" height="0.20000000000000018"/>
	<rect fill="green"  x="1.6814891667984075" y="-1.7917758561721662" width="0.20000000000000018" height="0.20000000000000018"/>
	<rect fill="green"  x="1.692554324905358" y="-1.9200396791621728" width="0.20000000000000018" height="0.20000000000000018"/>
	<rect fill="green"  x="1.6870493179436872" y="-2.0486621535214247" width="0.20000000000000018" height="0.20000000000000018"/>
	<rect fill="green"  x="1.6650653861520728" y="-2.1755114844417163" width="0.20000000000000018" height="0.20000000000000018"/>
	<rect fill="green"  x="1.6269668922275533" y="-2.2984852652757923" width="0.20000000000000018" height="0.20000000000000018"/>
	<rect fill="white"  x="-0.1" y="-0.1" width="0.2" height="0.2"/>
	<rect fill="black"  x="-0.16033546253090095" y="0.9882049229680053" width="0.2" height="0.20000000000000007"/>
	<rect fill="green"  x="-0.1" y="-0.1" width="0.2" height="0.2"/>
	<rect fill="green"  x="0.17724493912086128" y="-0.13920072661774466" width="0.20000000000000004" height="0.2"/>
	<rect fill="green"  x="0.4327534721124623" y="-0.2537295125362602" width="0.19999999999999996" height="0.19999999999999998"/>
	<rect fill="green"  x="0.6464933586741936" y="-0.43460713450223887" width="0.19999999999999996" height="0.19999999999999998"/>
	<rect fill="green"  x="0.8017070810852267" y="-0.6676525240957685" width="0.19999999999999996" height="0.19999999999999996"/>
	<rect fill="green"  x="0.8862256579464467" y="-0.9345945841028837" width="0.19999999999999996" height="0.19999999999999996"/>
	<rect fill="green"  x="0.8934227100065394" y="-1.214504669089355" width="0.20000000000000007" height="0.20000000000000018"/>
	<rect fill="green"  x="0.8227339779249815" y="-1.4854374216169721" width="0.20000000000000007" height="0.20000000000000018"/>
	<rect fill="green"  x="0.6797015610243411" y="-1.7261513201584786" width="0.19999999999999996" height="0.20000000000000018"/>
	<rect fill="green"  x="0.4755394086494129" y="-1.91777404525424" width="0.19999999999999996" height="0.20000000000000018"/>
	<rect fill="green"  x="0.22625413024207666" y="-2.0452820967838043" width="0.20000000000000004" height="0.19999999999999996"/>
	<rect fill="green"  x="-0.04860994610031902" y="-2.0986786582080286" width="0.2" height="0.20000000000000018"/>
	<rect fill="green"  x="-0.3275030773502998" y="-2.0737773615134745" width="0.19999999999999998" height="0.20000000000000018"/>
	<rect fill="green"  x="-0.5885596367204712" y="-1.9725305045484436" width="0.19999999999999996" height="0.20000000000000018"/>
	<rect fill="green"  x="-0.811312410579555" y="-1.8028759880345202" width="0.19999999999999996" height="0.20000000000000018"/>
	<rect fill="green"  x="-0.9782972577447623" y="-1.5781149726143608" width="0.19999999999999996" height="0.20000000000000018"/>
	<rect fill="green"  x="-1.076422323530036" y="-1.315869048527588" width="0.20000000000000007" height="0.20000000000000018"/>
	<rect fill="green"  x="-1.0979944601789815" y="-1.0366986773276903" width="0.20000000000000007" height="0.19999999999999996"/>
	<rect fill="green"  x="-1.0413223808289274" y="-0.7624912218170314" width="0.19999999999999996" height="0.19999999999999996"/>
	<rect fill="green"  x="-0.9264076393139009" y="-0.5062533642503454" width="0.19999999999999996" height="0.19999999999999996"/>
	<rect fill="green"  x="-0.8075590397014558" y="-0.25170647468618434" width="0.19999999999999996" height="0.19999999999999998"/>
	<rect fill="green"  x="-0.6887104400890111" y="0.0028404148779758998" width="0.19999999999999996" height="0.2"/>
	<rect fill="green"  x="-0.5698618404765656" y="0.25738730444213787" width="0.19999999999999996" height="0.19999999999999996"/>
	<rect fill="green"  x="-0.45101324086412053" y="0.5119341940062989" width="0.19999999999999996" height="0.19999999999999996"/>
	<rect fill="green"  x="-0.32979541810538826" y="0.7653041004208866" width="0.19999999999999998" height="0.19999999999999996"/>
	<rect fill="white"  x="-0.1" y="-0.1" width="0.2" height="0.2"/>
	<rect fill="black"  x="1.608498934584771" y="-0.19042276619392276" width="0.20000000000000018" height="0.2"/>
	<rect fill="green"  x="-0.1" y="-0.1" width="0.2" height="0.2"/>
	<rect fill="green"  x="0.17084972685056918" y="-0.06262164190556821" width="0.19999999999999998" height="0.2"/>
	<rect fill="green"  x="0.42145161754113925" y="0.04671914907005589" width="0.19999999999999996" height="0.2"/>
	<rect fill="green"  x="0.6330714976529626" y="0.2198484144480418" width="0.19999999999999996" height="0.19999999999999998"/>
	<rect fill="green"  x="0.8128714989112781" y="0.42696058127579317" width="0.20000000000000007" height="0.19999999999999996"/>
	<rect fill="green"  x="0.9922044486247482" y="0.6344860538714746" width="0.20000000000000007" height="0.19999999999999996"/>
	<rect fill="green"  x="1.1715373983382178" y="0.8420115264671557" width="0.20000000000000018" height="0.19999999999999996"/>
	<rect fill="green"  x="1.3508703480516877" y="1.0495369990628372" width="0.20000000000000018" height="0.20000000000000018"/>
	<rect fill="green"  x="1.5309274721188362" y="1.2564178696898443" width="0.20000000000000018" height="0.20000000000000018"/>
	<rect fill="green"  x="1.7440484936691147" y="1.4276958494835974" width="0.20000000000000018" height="0.20000000000000018"/>
	<rect fill="green"  x="1.9955939954010913" y="1.5348479691419215" width="0.20000000000000018" height="0.20000000000000018"/>
	<rect fill="green"  x="2.2667592616332026" y="1.5698638880664841" width="0.20000000000000018" height="0.20000000000000018"/>
	<rect fill="green"  x="2.537272867517458" y="1.5301259311441497" width="0.20000000000000018" height="0.20000000000000018"/>
	<rect fill="green"  x="2.7869121041935414" y="1.4186047775424864" width="0.20000000000000018" height="0.20000000000000018"/>
	<rect fill="green"  x="2.997014762095655" y="1.2436373824903482" width="0.20000000000000018" height="0.20000000000000018"/>
	<rect fill="green"  x="3.1518742564564843" y="1.0183037338819527" width="0.20000000000000018" height="0.20000000000000018"/>
	<rect fill="green"  x="3.239913800006945" y="0.7594490353341207" width="0.20000000000000018" height="0.19999999999999996"/>
	<rect fill="green"  x="3.2545518455764406" y="0.486424414080341" width="0.20000000000000018" height="0.19999999999999996"/>
	<rect fill="green"  x="3.1946941009467706" y="0.2196402942442611" width="0.20000000000000018" height="0.19999999999999998"/>
	<rect fill="green"  x="3.0648153345449205" y="-0.020959419443843857" width="0.20000000000000018" height="0.2"/>
	<rect fill="green"  x="2.874624856449754" y="-0.21738828247266553" width="0.20000000000000018" height="0.2"/>
	<rect fill="green"  x="2.638340682254056" y="-0.3549619180774589" width="0.20000000000000018" height="0.19999999999999998"/>
	<rect fill="green"  x="2.3736266409080944" y="-0.4233957730262462" width="0.20000000000000018" height="0.19999999999999998"/>
	<rect fill="green"  x="2.100271884871975" y="-0.41757395704691147" width="0.20000000000000018" height="0.19999999999999998"/>
	<rect fill="green"  x="1.838711518061567" y="-0.3379316899843253" width="0.20000000000000018" height="0.19999999999999998"/>
	<rect fill="white"  x="-0.1" y="-0.1" width="0.2" height="0.2"/>
	<rect fill="black"  x="1.022592198261806" y="-2.7882029888345365" width="0.20000000000000018" height="0.20000000000000018"/>
	<rect fill="green"  x="-0.1" y="-0.1" width="0.2" height="0.2"/>
	<rect fill="green"  x="0.24895077810584051" y="-0.037141053662322704" width="0.19999999999999998" height="0.2"/>
	<rect fill="green"  x="0.5540321997407897" y="0.14353329108134302" width="0.19999999999999996" height="0.19999999999999998"/>
	<rect fill="green"  x="0.7768900714825" y="0.41930903634932326" width="0.19999999999999996" height="0.19999999999999996"/>
	<rect fill="green"  x="0.9484887391344473" y="0.7306728046577925" width="0.20000000000000007" height="0.19999999999999996"/>
	<rect fill="green"  x="1.2102644133726848" y="0.9698200167520813" width="0.20000000000000018" height="0.20000000000000007"/>
	<rect fill="green"  x="1.539035750293616" y="1.1025878618599159" width="0.20000000000000018" height="0.20000000000000018"/>
	<rect fill="green"  x="1.8934703102474828" y="1.1122850462792917" width="0.19999999999999996" height="0.20000000000000018"/>
	<rect fill="green"  x="2.229009327265569" y="0.9976924604201202" width="0.20000000000000018" height="0.20000000000000007"/>
	<rect fill="green"  x="2.5034695432179985" y="0.7732164426928367" width="0.20000000000000018" height="0.19999999999999996"/>
	<rect fill="green"  x="2.682346398132012" y="0.46707764500226945" width="0.20000000000000018" height="0.19999999999999996"/>
	<rect fill="green"  x="2.743151870759423" y="0.11776319186024381" width="0.20000000000000018" height="0.2"/>
	<rect fill="green"  x="2.6782416252183845" y="-0.23081183980317874" width="0.20000000000000018" height="0.2"/>
	<rect fill="green"  x="2.4957760407913567" y="-0.5348253315680296" width="0.20000000000000018" height="0.19999999999999996"/>
	<rect fill="green"  x="2.2186943062382807" y="-0.7560573479047566" width="0.20000000000000018" height="0.19999999999999996"/>
	<rect fill="green"  x="1.8818305533260027" y="-0.866695065927185" width="0.20000000000000018" height="0.19999999999999996"/>
	<rect fill="green"  x="1.5275345831893654" y="-0.8528293448751255" width="0.20000000000000018" height="0.19999999999999996"/>
	<rect fill="green"  x="1.1748028011182243" y="-0.8150507643906048" width="0.20000000000000018" height="0.19999999999999996"/>
	<rect fill="green"  x="0.830929850311202" y="-0.9014757976774082" width="0.20000000000000007" height="0.19999999999999996"/>
	<rect fill="green"  x="0.5388304734791894" y="-1.1024629781882669" width="0.19999999999999996" height="0.20000000000000007"/>
	<rect fill="green"  x="0.3352267887292921" y="-1.392744621134595" width="0.19999999999999996" height="0.20000000000000018"/>
	<rect fill="green"  x="0.24571542224920526" y="-1.7358271300828385" width="0.19999999999999998" height="0.20000000000000018"/>
	<rect fill="green"  x="0.2815495544032962" y="-2.088578894994254" width="0.19999999999999996" height="0.20000000000000018"/>
	<rect fill="green"  x="0.4382241936113025" y="-2.406652707346663" width="0.19999999999999996" height="0.20000000000000018"/>
	<rect fill="green"  x="0.6960425343963214" y="-2.6500609977359058" width="0.19999999999999996" height="0.20000000000000018"/>
	<rect fill="white"  x="-0.1" y="-0.1" width="0.2" height="0.2"/>
	<rect fill="black"  x="-1.3067673381158547" y="2.56254112030016" width="0.20000000000000018" height="0.20000000000000018"/>
	<rect fill="green"  x="-0.1" y="-0.1" width="0.2" height="0.2"/>
	<rect fill="green"  x="0.11634893491721748" y="-0.07631610575683204" width="0.2" height="0.2"/>
	<rect fill="green"  x="0.3224498992460322" y="-0.006386276720371203" width="0.19999999999999996" height="0.2"/>
	<rect fill="green"  x="0.5085403461012868" y="0.10647706575869773" width="0.19999999999999996" height="0.19999999999999998"/>
	<rect fill="green"  x="0.6658055825570142" y="0.25692783474596537" width="0.19999999999999996" height="0.19999999999999996"/>
	<rect fill="green"  x="0.7867963021565254" y="0.43783951003843624" width="0.19999999999999996" height="0.19999999999999996"/>
	<rect fill="green"  x="0.8657814420850215" y="0.6406427056661478" width="0.20000000000000007" height="0.19999999999999996"/>
	<rect fill="green"  x="0.8990196509408058" y="0.8557310827542537" width="0.20000000000000007" height="0.19999999999999996"/>
	<rect fill="green"  x="0.8849365082771329" y="1.0729163805509752" width="0.20000000000000007" height="0.20000000000000018"/>
	<rect fill="green"  x="0.8315457980262395" y="1.2842566441891388" width="0.19999999999999996" height="0.20000000000000018"/>
	<rect fill="green"  x="0.7738744166108483" y="1.4945658589573194" width="0.19999999999999996" height="0.20000000000000018"/>
	<rect fill="green"  x="0.7162030351954572" y="1.7048750737255003" width="0.19999999999999996" height="0.20000000000000018"/>
	<rect fill="green"  x="0.6585316537800662" y="1.915184288493681" width="0.19999999999999996" height="0.20000000000000018"/>
	<rect fill="green"  x="0.600860272364675" y="2.1254935032618616" width="0.19999999999999996" height="0.20000000000000018"/>
	<rect fill="green"  x="0.5431888909492838" y="2.3358027180300422" width="0.19999999999999996" height="0.20000000000000018"/>
	<rect fill="green"  x="0.46667648810654094" y="2.5395689347789268" width="0.19999999999999996" height="0.20000000000000018"/>
	<rect fill="green"  x="0.34803914849174233" y="2.7220325479610046" width="0.19999999999999996" height="0.20000000000000018"/>
	<rect fill="green"  x="0.19273579470858102" y="2.8745076501581783" width="0.19999999999999998" height="0.20000000000000018"/>
	<rect fill="green"  x="0.008122803170278553" y="2.9897718329801384" width="0.2" height="0.20000000000000018"/>
	<rect fill="green"  x="-0.19705511698815126" y="3.0623652869949254" width="0.2" height="0.20000000000000018"/>
	<rect fill="green"  x="-0.41307914144257674" y="3.0888494208272737" width="0.19999999999999998" height="0.20000000000000018"/>
	<rect fill="green"  x="-0.6297166898946737" y="3.0679697396275687" width="0.19999999999999996" height="0.20000000000000018"/>
	<rect fill="green"  x="-0.8367061207711649" y="3.0007152677185407" width="0.19999999999999996" height="0.20000000000000018"/>
	<rect fill="green"  x="-1.0242428024913854" y="2.890271700700336" width="0.19999999999999996" height="0.20000000000000018"/>
	<rect fill="green"  x="-1.1834435371821828" y="2.74187050609515" width="0.20000000000000007" height="0.20000000000000018"/>
	<rect fill="white"  x="-0.1" y="-0.1" width="0.2" height="0.2"/>
	<rect fill="black"  x="3.2960018459114386" y="-4.074570497923537" width="0.20000000000000018" height="0.19999999999999973"/>
	<rect fill="green"  x="-0.1" y="-0.1" width="0.2" height="0.2"/>
	<rect fill="green"  x="0.11331782172521604" y="-0.12301714092088148" width="0.2" height="0.2"/>
	<rect fill="green"  x="0.31681571072326264" y="-0.19100898613118225" width="0.19999999999999996" height="0.2"/>
	<rect fill="green"  x="0.5011257878177998" y="-0.30084557986554983" width="0.19999999999999996" height="0.19999999999999998"/>
	<rect fill="green"  x="0.6577634709735819" y="-0.4474706734114786" width="0.19999999999999996" height="0.19999999999999998"/>
	<rect fill="green"  x="0.7912689425541641" y="-0.6159418350317127" width="0.19999999999999996" height="0.19999999999999996"/>
	<rect fill="green"  x="0.923964946198755" y="-0.7850682396339885" width="0.20000000000000007" height="0.19999999999999996"/>
	<rect fill="green"  x="1.0566609498433457" y="-0.9541946442362644" width="0.20000000000000018" height="0.19999999999999996"/>
	<rect fill="green"  x="1.1893569534879365" y="-1.1233210488385401" width="0.20000000000000018" height="0.20000000000000007"/>
	<rect fill="green"  x="1.3220529571325272" y="-1.2924474534408157" width="0.20000000000000018" height="0.20000000000000018"/>
	<rect fill="green"  x="1.454748960777118" y="-1.4615738580430917" width="0.20000000000000018" height="0.20000000000000018"/>
	<rect fill="green"  x="1.587444964421709" y="-1.6307002626453675" width="0.20000000000000018" height="0.20000000000000018"/>
	<rect fill="green"  x="1.7201409680662998" y="-1.799826667247643" width="0.20000000000000018" height="0.20000000000000018"/>
	<rect fill="green"  x="1.8528369717108903" y="-1.9689530718499189" width="0.20000000000000018" height="0.20000000000000018"/>
	<rect fill="green"  x="1.9855329753554813" y="-2.138079476452195" width="0.20000000000000018" height="0.20000000000000018"/>
	<rect fill="green"  x="2.1182289790000723" y="-2.3072058810544704" width="0.20000000000000018" height="0.20000000000000018"/>
	<rect fill="green"  x="2.250924982644663" y="-2.476332285656746" width="0.20000000000000018" height="0.20000000000000018"/>
	<rect fill="green"  x="2.383620986289254" y="-2.645458690259022" width="0.20000000000000018" height="0.20000000000000018"/>
	<rect fill="green"  x="2.5163169899338445" y="-2.814585094861297" width="0.20000000000000018" height="0.20000000000000018"/>
	<rect fill="green"  x="2.6490129935784354" y="-2.983711499463573" width="0.20000000000000018" height="0.20000000000000018"/>
	<rect fill="green"  x="2.7817089972230264" y="-3.1528379040658487" width="0.20000000000000018" height="0.20000000000000018"/>
	<rect fill="green"  x="2.914405000867617" y="-3.3219643086681248" width="0.20000000000000018" height="0.20000000000000018"/>
	<rect fill="green"  x="3.0471010045122084" y="-3.4910907132704008" width="0.20000000000000018" height="0.20000000000000018"/>
	<rect fill="green"  x="3.170423460207779" y="-3.6668352390772756" width="0.20000000000000018" height="0.20000000000000018"/>
	<rect fill="green"  x="3.255210111676464" y="-3.8639278710412595" width="0.20000000000000018" height="0.20000000000000018"/>
	<rect fill="white"  x="-0.1" y="-0.1" width="0.2" height="0.2"/>
	<rect fill="black"  x="0.2900543819123037" y="-1.3733311155045027" width="0.19999999999999996" height="0.20000000000000018"/>
	<rect fill="green"  x="-0.1" y="-0.1" width="0.2" height="0.2"/>
	<rect fill="green"  x="0.19544724114212705" y="-0.05535905695267576" width="0.19999999999999998" height="0.2"/>
	<rect fill="green"  x="0.46451639535362466" y="0.07457814459698828" width="0.19999999999999996" height="0.19999999999999998"/>
	<rect fill="green"  x="0.683184461056598" y="0.27821056622077744" width="0.19999999999999996" height="0.19999999999999996"/>
	<rect fill="green"  x="0.8319283409164178" y="0.5373575212460994" width="0.19999999999999996" height="0.19999999999999996"/>
	<rect fill="green"  x="0.8974679007941629" y="0.8288818807526083" width="0.20000000000000007" height="0.20000000000000007"/>
	<rect fill="green"  x="0.8739516451701353" y="1.1267558000810274" width="0.20000000000000007" height="0.20000000000000018"/>
	<rect fill="green"  x="0.7634791497003319" y="1.4043845338953127" width="0.19999999999999996" height="0.20000000000000018"/>
	<rect fill="green"  x="0.5759136071418797" y="1.6369808652064535" width="0.19999999999999996" height="0.20000000000000018"/>
	<rect fill="green"  x="0.3280012229007635" y="1.803778154856296" width="0.20000000000000007" height="0.19999999999999996"/>
	<rect fill="green"  x="0.04187608222824954" y="1.8898844262294274" width="0.2" height="0.19999999999999996"/>
	<rect fill="green"  x="-0.2569160226573204" y="1.8876119490130763" width="0.20000000000000004" height="0.20000000000000018"/>
	<rect fill="green"  x="-0.5416983690815741" y="1.797163614259226" width="0.19999999999999996" height="0.20000000000000018"/>
	<rect fill="green"  x="-0.7870450520292961" y="1.6266148198888195" width="0.19999999999999996" height="0.20000000000000018"/>
	<rect fill="green"  x="-0.9710510568998457" y="1.3911924839344159" width="0.19999999999999996" height="0.20000000000000018"/>
	<rect fill="green"  x="-1.0772879805256397" y="1.111915556578833" width="0.19999999999999996" height="0.20000000000000018"/>
	<rect fill="green"  x="-1.0962707899924746" y="0.813718408639094" width="0.20000000000000007" height="0.20000000000000007"/>
	<rect fill="green"  x="-1.0263046642677756" y="0.5232246439113044" width="0.19999999999999996" height="0.19999999999999996"/>
	<rect fill="green"  x="-0.9008517155884048" y="0.2508182886230985" width="0.19999999999999996" height="0.19999999999999996"/>
	<rect fill="green"  x="-0.7742877531180502" y="-0.021092990499172043" width="0.19999999999999996" height="0.2"/>
	<rect fill="green"  x="-0.6477237906476956" y="-0.29300426962144255" width="0.19999999999999996" height="0.19999999999999998"/>
	<rect fill="green"  x="-0.5211598281773414" y="-0.5649155487437124" width="0.20000000000000007" height="0.19999999999999996"/>
	<rect fill="green"  x="-0.39440802466636493" y="-0.8367378371063355" width="0.19999999999999998" height="0.19999999999999996"/>
	<rect fill="green"  x="-0.2242189729736335" y="-1.0823341985992891" width="0.2" height="0.20000000000000007"/>
	<rect fill="green"  x="0.010933446392841578" y="-1.266685021110993" width="0.2" height="0.20000000000000018"/>
	<rect fill="white"  x="-0.1" y="-0.1" width="0.2" height="0.2"/>
	<rect fill="black"  x="-0.011736107268925627" y="-0.672742939110535" width="0.2" height="0.19999999999999996"/>
	<rect fill="green"  x="-0.1" y="-0.1" width="0.2" height="0.2"/>
	<rect fill="green"  x="0.1586954280579808" y="-0.1340410591014243" width="0.20000000000000004" height="0.2"/>
	<rect fill="green"  x="0.39977832340438" y="-0.23384664899620303" width="0.20000000000000007" height="0.2"/>
	<rect fill="green"  x="0.6074750816971943" y="-0.3919434973270899" width="0.19999999999999996" height="0.20000000000000004"/>
	<rect fill="green"  x="0.8003882339575119" y="-0.5687384170890609" width="0.19999999999999996" height="0.19999999999999996"/>
	<rect fill="green"  x="0.9933013862178296" y="-0.7455333368510321" width="0.20000000000000007" height="0.19999999999999996"/>
	<rect fill="green"  x="1.180737136337918" y="-0.9278279560117192" width="0.20000000000000018" height="0.19999999999999996"/>
	<rect fill="green"  x="1.322311049692102" y="-1.1470058409828785" width="0.20000000000000018" height="0.20000000000000007"/>
	<rect fill="green"  x="1.4023653203211188" y="-1.3953472027350113" width="0.20000000000000018" height="0.20000000000000018"/>
	<rect fill="green"  x="1.4154496839093624" y="-1.6559444353226564" width="0.20000000000000018" height="0.20000000000000018"/>
	<rect fill="green"  x="1.3606733292684088" y="-1.9110555271534433" width="0.20000000000000018" height="0.20000000000000018"/>
	<rect fill="green"  x="1.2417655466496444" y="-2.1433119747184923" width="0.20000000000000018" height="0.20000000000000018"/>
	<rect fill="green"  x="1.0668218297645589" y="-2.336901267101306" width="0.20000000000000018" height="0.20000000000000018"/>
	<rect fill="green"  x="0.8477527174249664" y="-2.4786434352150737" width="0.19999999999999996" height="0.20000000000000018"/>
	<rect fill="green"  x="0.5994728988317669" y="-2.5588883720159434" width="0.19999999999999996" height="0.20000000000000018"/>
	<rect fill="green"  x="0.33888578994180274" y="-2.5721728322314594" width="0.19999999999999996" height="0.20000000000000018"/>
	<rect fill="green"  x="0.08373271310465721" y="-2.5175923816709678" width="0.19999999999999998" height="0.20000000000000018"/>
	<rect fill="green"  x="-0.14861496974261937" y="-2.398862973021093" width="0.2" height="0.20000000000000018"/>
	<rect fill="green"  x="-0.34233853619226284" y="-2.224067955915689" width="0.19999999999999998" height="0.20000000000000018"/>
	<rect fill="green"  x="-0.4842488754945712" y="-2.0051077453705966" width="0.19999999999999996" height="0.20000000000000018"/>
	<rect fill="green"  x="-0.564684431154959" y="-1.7568896163218641" width="0.19999999999999996" height="0.20000000000000018"/>
	<rect fill="green"  x="-0.5781689801652429" y="-1.4963127847714803" width="0.19999999999999996" height="0.20000000000000018"/>
	<rect fill="green"  x="-0.5237844658657931" y="-1.2411178733659813" width="0.19999999999999996" height="0.20000000000000018"/>
	<rect fill="green"  x="-0.4052335011875491" y="-1.0086790922284399" width="0.19999999999999998" height="0.20000000000000007"/>
	<rect fill="green"  x="-0.23058728692079725" y="-0.8148213659311899" width="0.2" height="0.19999999999999996"/>
	<rect fill="white"  x="-0.1" y="-0.1" width="0.2" height="0.2"/>
	<rect fill="black"  x="3.8247513517209106" y="-1.3007418313906887" width="0.19999999999999973" height="0.20000000000000018"/>
	<rect fill="green"  x="-0.1" y="-0.1" width="0.2" height="0.2"/>
	<rect fill="green"  x="0.07015503549951821" y="-0.11458115817722844" width="0.20000000000000004" height="0.2"/>
	<rect fill="green"  x="0.23869872055537253" y="-0.14338203386945014" width="0.19999999999999998" height="0.2"/>
	<rect fill="green"  x="0.40724240561122693" y="-0.17218290956167187" width="0.19999999999999996" height="0.2"/>
	<rect fill="green"  x="0.5757860906670813" y="-0.20098378525389354" width="0.19999999999999996" height="0.2"/>
	<rect fill="green"  x="0.7443297757229357" y="-0.22978466094611527" width="0.19999999999999996" height="0.2"/>
	<rect fill="green"  x="0.91287346077879" y="-0.25858553663833694" width="0.20000000000000007" height="0.19999999999999998"/>
	<rect fill="green"  x="1.0814171458346442" y="-0.2873864123305587" width="0.20000000000000018" height="0.20000000000000004"/>
	<rect fill="green"  x="1.2499608308904984" y="-0.3161872880227804" width="0.20000000000000018" height="0.2"/>
	<rect fill="green"  x="1.4185045159463527" y="-0.34498816371500207" width="0.20000000000000018" height="0.19999999999999998"/>
	<rect fill="green"  x="1.5870482010022071" y="-0.37378903940722386" width="0.20000000000000018" height="0.20000000000000004"/>
	<rect fill="green"  x="1.7555918860580615" y="-0.40258991509944553" width="0.20000000000000018" height="0.20000000000000004"/>
	<rect fill="green"  x="1.9241355711139159" y="-0.4313907907916672" width="0.20000000000000018" height="0.19999999999999998"/>
	<rect fill="green"  x="2.0926792561697702" y="-0.4601916664838889" width="0.20000000000000018" height="0.19999999999999996"/>
	<rect fill="green"  x="2.261222941225625" y="-0.48899254217611066" width="0.20000000000000018" height="0.19999999999999996"/>
	<rect fill="green"  x="2.429766626281479" y="-0.5177934178683323" width="0.20000000000000018" height="0.19999999999999996"/>
	<rect fill="green"  x="2.5983103113373334" y="-0.546594293560554" width="0.20000000000000018" height="0.19999999999999996"/>
	<rect fill="green"  x="2.7668539963931877" y="-0.5753951692527758" width="0.20000000000000018" height="0.19999999999999996"/>
	<rect fill="green"  x="2.935397681449042" y="-0.6041960449449975" width="0.20000000000000018" height="0.19999999999999996"/>
	<rect fill="green"  x="3.10356281686228" y="-0.6349617190086778" width="0.20000000000000018" height="0.19999999999999996"/>
	<rect fill="green"  x="3.2657787804065364" y="-0.6883591333909347" width="0.20000000000000018" height="0.19999999999999996"/>
	<rect fill="green"  x="3.4165433798441023" y="-0.7685796933972838" width="0.20000000000000018" height="0.19999999999999996"/>
	<rect fill="green"  x="3.551459519997248" y="-0.8732837421130745" width="0.20000000000000018" height="0.19999999999999996"/>
	<rect fill="green"  x="3.6665923308004653" y="-0.9994175542645056" width="0.20000000000000018" height="0.19999999999999996"/>
	<rect fill="green"  x="3.7585839289769774" y="-1.143302399040573" width="0.20000000000000018" height="0.20000000000000007"/>
	<rect fill="white"  x="-0.1" y="-0.1" width="0.2" height="0.2"/>
	<rect fill="black"  x="0.736756014108575" y="0.8822412393521223" width="0.19999999999999996" height="0.20000000000000007"/>
	<rect fill="green"  x="-0.1" y="-0.1" width="0.2" height="0.2"/>
	<rect fill="green"  x="0.14793418245686507" y="-0.128863066166626" width="0.2" height="0.2"/>
	<rect fill="green"  x="0.3938521764938816" y="-0.1742234982672986" width="0.19999999999999996" height="0.2"/>
	<rect fill="green"  x="0.6397701705308982" y="-0.21958393036797125" width="0.19999999999999996" height="0.2"/>
	<rect fill="green"  x="0.8856881645679148" y="-0.26494436246864383" width="0.20000000000000007" height="0.2"/>
	<rect fill="green"  x="1.131606158604931" y="-0.3103047945693165" width="0.20000000000000018" height="0.2"/>
	<rect fill="green"  x="1.3775241526419475" y="-0.355665226669989" width="0.20000000000000018" height="0.19999999999999998"/>
	<rect fill="green"  x="1.624318781715499" y="-0.3950548272869516" width="0.20000000000000018" height="0.19999999999999998"/>
	<rect fill="green"  x="1.873390394508124" y="-0.3819639247744132" width="0.20000000000000018" height="0.19999999999999998"/>
	<rect fill="green"  x="2.1114752949401128" y="-0.3076428630623915" width="0.20000000000000018" height="0.19999999999999998"/>
	<rect fill="green"  x="2.323762687995399" y="-0.17671500973276924" width="0.20000000000000018" height="0.2"/>
	<rect fill="green"  x="2.4970465910294184" y="0.0026748700737801723" width="0.20000000000000018" height="0.2"/>
	<rect fill="green"  x="2.6205473520660756" y="0.21936728353368698" width="0.20000000000000018" height="0.20000000000000004"/>
	<rect fill="green"  x="2.6865822308193463" y="0.45988222031673276" width="0.20000000000000018" height="0.19999999999999996"/>
	<rect fill="green"  x="2.6910433269085243" y="0.7092577176082585" width="0.20000000000000018" height="0.19999999999999996"/>
	<rect fill="green"  x="2.6336531242895256" y="0.9519806144908188" width="0.20000000000000018" height="0.20000000000000007"/>
	<rect fill="green"  x="2.5179817549840706" y="1.1729515952795044" width="0.20000000000000018" height="0.20000000000000018"/>
	<rect fill="green"  x="2.3512249081639753" y="1.3584244883564471" width="0.20000000000000018" height="0.20000000000000018"/>
	<rect fill="green"  x="2.143756200431117" y="1.4968613885650632" width="0.20000000000000018" height="0.20000000000000018"/>
	<rect fill="green"  x="1.9084818534606414" y="1.579650407675861" width="0.20000000000000018" height="0.20000000000000018"/>
	<rect fill="green"  x="1.6600378232463788" y="1.601641403074142" width="0.20000000000000018" height="0.20000000000000018"/>
	<rect fill="green"  x="1.4138793259645475" y="1.5614663580379202" width="0.20000000000000018" height="0.20000000000000018"/>
	<rect fill="green"  x="1.185319399267214" y="1.4616244833769239" width="0.20000000000000018" height="0.20000000000000018"/>
	<rect fill="green"  x="0.9885763082230986" y="1.308326746426506" width="0.20000000000000007" height="0.20000000000000018"/>
	<rect fill="green"  x="0.8358890549150506" y="1.1111094989430375" width="0.19999999999999996" height="0.20000000000000018"/>
	<rect fill="white"  x="-0.1" y="-0.1" width="0.2" height="0.2"/>
	<rect fill="black"  x="2.4572283466510014" y="-2.7195400966929815" width="0.20000000000000018" height="0.20000000000000018"/>
	<rect fill="green"  x="-0.1" y="-0.1" width="0.2" height="0.2"/>
	<rect fill="green"  x="0.09921663332633202" y="-0.12004452498793508" width="0.2" height="0.2"/>
	<rect fill="green"  x="0.29044686108322015" y="-0.17937453398775652" width="0.19999999999999996" height="0.2"/>
	<rect fill="green"  x="0.4660244451132213" y="-0.2756115433036015" width="0.19999999999999996" height="0.19999999999999998"/>
	<rect fill="green"  x="0.6189106468755144" y="-0.4048975026594789" width="0.19999999999999996" height="0.19999999999999998"/>
	<rect fill="green"  x="0.7429764037870299" y="-0.5620494607695926" width="0.19999999999999996" height="0.19999999999999996"/>
	<rect fill="green"  x="0.8332480375186477" y="-0.7407673449314603" width="0.19999999999999996" height="0.19999999999999996"/>
	<rect fill="green"  x="0.8861066440342977" y="-0.9338865249553355" width="0.19999999999999996" height="0.19999999999999996"/>
	<rect fill="green"  x="0.8994331720157192" y="-1.1336650363819416" width="0.19999999999999996" height="0.20000000000000007"/>
	<rect fill="green"  x="0.8726933736166604" y="-1.3320939484825909" width="0.19999999999999996" height="0.20000000000000018"/>
	<rect fill="green"  x="0.8157162061295055" y="-1.5243539260852823" width="0.20000000000000007" height="0.20000000000000018"/>
	<rect fill="green"  x="0.7567612460198087" y="-1.7160516329871085" width="0.19999999999999996" height="0.20000000000000018"/>
	<rect fill="green"  x="0.7062894171108366" y="-1.909953611928664" width="0.19999999999999996" height="0.20000000000000018"/>
	<rect fill="green"  x="0.6931542856678443" y="-2.109744798665831" width="0.19999999999999996" height="0.20000000000000018"/>
	<rect fill="green"  x="0.7200841692853319" y="-2.3081480026324472" width="0.19999999999999996" height="0.20000000000000018"/>
	<rect fill="green"  x="0.7859994745131131" y="-2.497209427869322" width="0.19999999999999996" height="0.20000000000000018"/>
	<rect fill="green"  x="0.8882577193857377" y="-2.6693497814516265" width="0.19999999999999996" height="0.20000000000000018"/>
	<rect fill="green"  x="1.022759468014061" y="-2.817668120141734" width="0.20000000000000018" height="0.20000000000000018"/>
	<rect fill="green"  x="1.1841126730754803" y="-2.936218502647559" width="0.20000000000000018" height="0.20000000000000018"/>
	<rect fill="green"  x="1.3658488378685227" y="-3.020248356760168" width="0.20000000000000018" height="0.20000000000000018"/>
	<rect fill="green"  x="1.5606823322003769" y="-3.066389005458575" width="0.20000000000000018" height="0.20000000000000018"/>
	<rect fill="green"  x="1.7608024663797976" y="-3.0727907139711905" width="0.20000000000000018" height="0.20000000000000018"/>
	<rect fill="green"  x="1.9581866143464906" y="-3.0391968438855206" width="0.20000000000000018" height="0.20000000000000018"/>
	<rect fill="green"  x="2.1449218331281736" y="-2.966954141538314" width="0.20000000000000018" height="0.20000000000000018"/>
	<rect fill="green"  x="2.313522085206853" y="-2.8589587482343584" width="0.20000000000000018" height="0.20000000000000018"/>
	<rect fill="white"  x="-0.1" y="-0.1" width="0.2" height="0.2"/>
	<rect fill="black"  x="1.489351319217437" y="-1.5754501191495902" width="0.20000000000000018" height="0.20000000000000018"/>
	<rect fill="green"  x="-0.1" y="-0.1" width="0.2" height="0.2"/>
	<rect fill="green"  x="0.18929503275913737" y="-0.13450627437344814" width="0.19999999999999998" height="0.2"/>
	<rect fill="green"  x="0.4770748079363941" y="-0.18266406342754382" width="0.19999999999999996" height="0.2"/>
	<rect fill="green"  x="0.764854583113651" y="-0.23082185248163953" width="0.19999999999999996" height="0.2"/>
	<rect fill="green"  x="1.0526343582909075" y="-0.2789796415357352" width="0.20000000000000018" height="0.2"/>
	<rect fill="green"  x="1.340414133468164" y="-0.32713743058983086" width="0.20000000000000018" height="0.2"/>
	<rect fill="green"  x="1.628193908645421" y="-0.37529521964392654" width="0.20000000000000018" height="0.19999999999999998"/>
	<rect fill="green"  x="1.9159736838226777" y="-0.42345300869802227" width="0.20000000000000018" height="0.20000000000000004"/>
	<rect fill="green"  x="2.2037534589999344" y="-0.4716107977521179" width="0.20000000000000018" height="0.19999999999999996"/>
	<rect fill="green"  x="2.491533234177191" y="-0.5197685868062135" width="0.20000000000000018" height="0.19999999999999996"/>
	<rect fill="green"  x="2.777631178968664" y="-0.5758824336531797" width="0.20000000000000018" height="0.19999999999999996"/>
	<rect fill="green"  x="3.0407775720378525" y="-0.6995272563135215" width="0.20000000000000018" height="0.19999999999999996"/>
	<rect fill="green"  x="3.2572340309714014" y="-0.8936423452220867" width="0.20000000000000018" height="0.19999999999999996"/>
	<rect fill="green"  x="3.4087026111066296" y="-1.1418183625723721" width="0.20000000000000018" height="0.20000000000000007"/>
	<rect fill="green"  x="3.482379057439533" y="-1.4230759804457127" width="0.20000000000000018" height="0.20000000000000018"/>
	<rect fill="green"  x="3.472035200366929" y="-1.7136393487096642" width="0.20000000000000018" height="0.20000000000000018"/>
	<rect fill="green"  x="3.3785454481889703" y="-1.98894596431077" width="0.20000000000000018" height="0.20000000000000018"/>
	<rect fill="green"  x="3.2098128698198773" y="-2.225723039537552" width="0.20000000000000018" height="0.20000000000000018"/>
	<rect fill="green"  x="2.9801011162359274" y="-2.403954845401202" width="0.20000000000000018" height="0.20000000000000018"/>
	<rect fill="green"  x="2.7088286560573462" y="-2.5085747225980874" width="0.20000000000000018" height="0.20000000000000018"/>
	<rect fill="green"  x="2.418927253433434" y="-2.5307387274870865" width="0.20000000000000018" height="0.20000000000000018"/>
	<rect fill="green"  x="2.134903452770307" y="-2.4685732466081975" width="0.20000000000000018" height="0.20000000000000018"/>
	<rect fill="green"  x="1.8807669408799141" y="-2.3273333808470906" width="0.19999999999999996" height="0.20000000000000018"/>
	<rect fill="green"  x="1.6780009105218872" y="-2.118958710388131" width="0.20000000000000018" height="0.20000000000000018"/>
	<rect fill="green"  x="1.5437459987612634" y="-1.861063993450815" width="0.20000000000000018" height="0.20000000000000018"/>
	<rect fill="white"  x="-0.1" y="-0.1" width="0.2" height="0.2"/>
	<rect fill="black"  x="1.1852224821548023" y="-3.493300654420873" width="0.20000000000000018" height="0.20000000000000018"/>
	<rect fill="green"  x="-0.1" y="-0.1" width="0.2" height="0.2"/>
	<rect fill="green"  x="0.19945768614273837" y="-0.1458904181332015" width="0.19999999999999998" height="0.2"/>
	<rect fill="green"  x="0.4714308954248927" y="-0.27934981157992467" width="0.19999999999999996" height="0.19999999999999998"/>
	<rect fill="green"  x="0.6909576992564916" y="-0.4881291656020226" width="0.19999999999999996" height="0.19999999999999996"/>
	<rect fill="green"  x="0.8378897439989812" y="-0.7530665364921897" width="0.19999999999999996" height="0.19999999999999996"/>
	<rect fill="green"  x="0.8987414837115617" y="-1.0498457507919032" width="0.19999999999999996" height="0.20000000000000007"/>
	<rect fill="green"  x="0.8679278948351475" y="-1.3512281640262476" width="0.20000000000000007" height="0.20000000000000018"/>
	<rect fill="green"  x="0.7482770743251848" y="-1.6295526462725918" width="0.19999999999999996" height="0.20000000000000018"/>
	<rect fill="green"  x="0.5507706745480403" y="-1.8592743437969497" width="0.19999999999999996" height="0.20000000000000018"/>
	<rect fill="green"  x="0.2935359980432246" y="-2.0193092070920007" width="0.20000000000000007" height="0.20000000000000018"/>
	<rect fill="green"  x="0.00018225853706915762" y="-2.094969102572744" width="0.2" height="0.19999999999999996"/>
	<rect fill="green"  x="-0.3003629401700588" y="-2.1361316824110546" width="0.20000000000000004" height="0.20000000000000018"/>
	<rect fill="green"  x="-0.576200199870435" y="-2.261409942406113" width="0.19999999999999996" height="0.20000000000000018"/>
	<rect fill="green"  x="-0.8018636345243362" y="-2.4635407182088267" width="0.19999999999999996" height="0.20000000000000018"/>
	<rect fill="green"  x="-0.9566416653844787" y="-2.723972278180846" width="0.19999999999999996" height="0.20000000000000018"/>
	<rect fill="green"  x="-1.026328635342851" y="-3.018801995957774" width="0.20000000000000007" height="0.20000000000000018"/>
	<rect fill="green"  x="-1.0045286160198024" y="-3.3209701534858582" width="0.20000000000000007" height="0.20000000000000018"/>
	<rect fill="green"  x="-0.8932424314194256" y="-3.602743504574093" width="0.19999999999999996" height="0.20000000000000018"/>
	<rect fill="green"  x="-0.702684020629242" y="-3.8382606554220122" width="0.19999999999999996" height="0.20000000000000018"/>
	<rect fill="green"  x="-0.45034299394916877" y="-4.005905644969714" width="0.20000000000000007" height="0.19999999999999973"/>
	<rect fill="green"  x="-0.15937942183222753" y="-4.09029187588064" width="0.2" height="0.19999999999999973"/>
	<rect fill="green"  x="0.14350181574962875" y="-4.083674309312412" width="0.20000000000000004" height="0.19999999999999973"/>
	<rect fill="green"  x="0.4305020255217372" y="-3.986660311058714" width="0.19999999999999996" height="0.20000000000000018"/>
	<rect fill="green"  x="0.675280088222578" y="-3.808153907008816" width="0.19999999999999996" height="0.20000000000000018"/>
	<rect fill="green"  x="0.9065976463295989" y="-3.6122503796319108" width="0.20000000000000007" height="0.20000000000000018"/>
	<rect fill="white"  x="-0.1" y="-0.1" width="0.2" height="0.2"/>
	<rect fill="black"  x="0.040424566760101394" y="2.9728065967091104" width="0.2" height="0.20000000000000018"/>
	<rect fill="green"  x="-0.1" y="-0.1" width="0.2" height="0.2"/>
	<rect fill="green"  x="0.15756442458117367" y="-0.1337388721519587" width="0.19999999999999998" height="0.2"/>
	<rect fill="green"  x="0.39774898277867177" y="-0.23267886561966147" width="0.20000000000000007" height="0.2"/>
	<rect fill="green"  x="0.6204623829401202" y="-0.3672840479667808" width="0.19999999999999996" height="0.19999999999999998"/>
	<rect fill="green"  x="0.867334506357554" y="-0.44810421242642395" width="0.20000000000000007" height="0.19999999999999998"/>
	<rect fill="green"  x="1.126693841918729" y="-0.4626121192769196" width="0.20000000000000018" height="0.19999999999999996"/>
	<rect fill="green"  x="1.3810394066958138" y="-0.4098288076894244" width="0.20000000000000018" height="0.19999999999999998"/>
	<rect fill="green"  x="1.613208535703945" y="-0.29331597646675345" width="0.20000000000000018" height="0.19999999999999998"/>
	<rect fill="green"  x="1.8075349798206486" y="-0.1209356486422756" width="0.20000000000000018" height="0.2"/>
	<rect fill="green"  x="1.9509060289383284" y="0.09568034010004303" width="0.20000000000000018" height="0.20000000000000004"/>
	<rect fill="green"  x="2.0336473280640375" y="0.3419152314597096" width="0.20000000000000018" height="0.19999999999999996"/>
	<rect fill="green"  x="2.0501756809719978" y="0.6011536503988529" width="0.20000000000000018" height="0.19999999999999996"/>
	<rect fill="green"  x="1.99937579169092" y="0.855902773170545" width="0.20000000000000018" height="0.20000000000000007"/>
	<rect fill="green"  x="1.8846755221603817" y="1.0889727036067516" width="0.20000000000000018" height="0.20000000000000018"/>
	<rect fill="green"  x="1.7138145878393523" y="1.2846364085365678" width="0.20000000000000018" height="0.20000000000000018"/>
	<rect fill="green"  x="1.4983222991654772" y="1.42969094250918" width="0.20000000000000018" height="0.20000000000000018"/>
	<rect fill="green"  x="1.2527395896933553" y="1.5143483527710626" width="0.20000000000000018" height="0.20000000000000018"/>
	<rect fill="green"  x="0.9936377127829289" y="1.5328981314120373" width="0.20000000000000007" height="0.20000000000000018"/>
	<rect fill="green"  x="0.7345892620709712" y="1.5521762145027092" width="0.19999999999999996" height="0.20000000000000018"/>
	<rect fill="green"  x="0.489246162297024" y="1.6375255419589194" width="0.19999999999999996" height="0.20000000000000018"/>
	<rect fill="green"  x="0.27416361241436393" y="1.7831869336860668" width="0.19999999999999996" height="0.20000000000000018"/>
	<rect fill="green"  x="0.10385489772820752" y="1.9793314875382344" width="0.19999999999999998" height="0.20000000000000018"/>
	<rect fill="green"  x="-0.010187933859125226" y="2.2127238114639827" width="0.2" height="0.20000000000000018"/>
	<rect fill="green"  x="-0.06026952931808652" y="2.4676151179069463" width="0.2" height="0.20000000000000018"/>
	<rect fill="green"  x="-0.04301049555596684" y="2.726805916465681" width="0.2" height="0.20000000000000018"/>
	<rect fill="white"  x="-0.1" y="-0.1" width="0.2" height="0.2"/>
	<rect fill="black"  x="-1.7822756283347485" y="-3.478256337729047" width="0.20000000000000018" height="0.20000000000000018"/>
	<rect fill="green"  x="-0.1" y="-0.1" width="0.2" height="0.2"/>
	<rect fill="green"  x="0.20862162533534748" y="-0.14881511136090456" width="0.20000000000000004" height="0.2"/>
	<rect fill="green"  x="0.48711245265243963" y="-0.29049461524926434" width="0.19999999999999996" height="0.19999999999999998"/>
	<rect fill="green"  x="0.7082833604543258" y="-0.511206310145343" width="0.19999999999999996" height="0.19999999999999996"/>
	<rect fill="green"  x="0.8505413837527225" y="-0.7894020641191266" width="0.19999999999999996" height="0.19999999999999996"/>
	<rect fill="green"  x="0.8999978400490443" y="-1.097921563749894" width="0.19999999999999996" height="0.19999999999999996"/>
	<rect fill="green"  x="0.8518242845000492" y="-1.4066439815746743" width="0.19999999999999996" height="0.20000000000000018"/>
	<rect fill="green"  x="0.7107239120632877" y="-1.6854286791820148" width="0.19999999999999996" height="0.20000000000000018"/>
	<rect fill="green"  x="0.4904723835258896" y="-1.9070578444530817" width="0.19999999999999996" height="0.20000000000000018"/>
	<rect fill="green"  x="0.2125729046737825" y="-2.0498937726208095" width="0.19999999999999998" height="0.19999999999999996"/>
	<rect fill="green"  x="-0.09584313647843062" y="-2.0999913602055087" width="0.2" height="0.20000000000000018"/>
	<rect fill="green"  x="-0.40466501314207703" y="-2.0524595685734583" width="0.19999999999999998" height="0.20000000000000018"/>
	<rect fill="green"  x="-0.6847160083070462" y="-1.9134130868512291" width="0.19999999999999996" height="0.20000000000000018"/>
	<rect fill="green"  x="-0.9498872797907599" y="-1.745725194036861" width="0.19999999999999996" height="0.20000000000000018"/>
	<rect fill="green"  x="-1.218650426164534" y="-1.5842537588961931" width="0.20000000000000018" height="0.20000000000000018"/>
	<rect fill="green"  x="-1.518314223368355" y="-1.4957561240848756" width="0.20000000000000018" height="0.20000000000000018"/>
	<rect fill="green"  x="-1.8306621828346414" y="-1.5040612393192547" width="0.20000000000000018" height="0.20000000000000018"/>
	<rect fill="green"  x="-2.125199703714" y="-1.6083582743492677" width="0.20000000000000018" height="0.20000000000000018"/>
	<rect fill="green"  x="-2.3731710222430453" y="-1.7984646864157088" width="0.20000000000000018" height="0.20000000000000018"/>
	<rect fill="green"  x="-2.55036664336517" y="-2.0558203441676897" width="0.20000000000000018" height="0.20000000000000018"/>
	<rect fill="green"  x="-2.639486919124889" y="-2.355299557420164" width="0.20000000000000018" height="0.20000000000000018"/>
	<rect fill="green"  x="-2.6318310171507524" y="-2.6676641038827413" width="0.20000000000000018" height="0.20000000000000018"/>
	<rect fill="green"  x="-2.528146384857632" y="-2.962417763313885" width="0.20000000000000018" height="0.20000000000000018"/>
	<rect fill="green"  x="-2.3385557759891333" y="-3.2107836702952617" width="0.20000000000000018" height="0.20000000000000018"/>
	<rect fill="green"  x="-2.0815689639150525" y="-3.3885138060117757" width="0.19999999999999996" height="0.20000000000000018"/>
	<rect fill="white"  x="-0.1" y="-0.1" width="0.2" height="0.2"/>
	<rect fill="black"  x="2.45314444714533" y="-3.8760303776607636" width="0.20000000000000018" height="0.20000000000000018"/>
	<rect fill="green"  x="-0.1" y="-0.1" width="0.2" height="0.2"/>
	<rect fill="green"  x="0.08843655996602875" y="-0.11791463565117258" width="0.20000000000000004" height="0.2"/>
	<rect fill="green"  x="0.27012157530175573" y="-0.1710166742636622" width="0.19999999999999996" height="0.2"/>
	<rect fill="green"  x="0.43854540430114297" y="-0.2574035084893136" width="0.19999999999999996" height="0.19999999999999998"/>
	<rect fill="green"  x="0.5876735439011935" y="-0.37397996100770536" width="0.19999999999999996" height="0.19999999999999998"/>
	<rect fill="green"  x="0.7121628415293642" y="-0.5165691824740927" width="0.19999999999999996" height="0.19999999999999996"/>
	<rect fill="green"  x="0.8091206601537534" y="-0.6792601407869849" width="0.20000000000000007" height="0.19999999999999996"/>
	<rect fill="green"  x="0.8987928973188004" y="-0.8462800595456045" width="0.19999999999999996" height="0.19999999999999996"/>
	<rect fill="green"  x="0.9884651344838472" y="-1.013299978304224" width="0.20000000000000007" height="0.20000000000000007"/>
	<rect fill="green"  x="1.078137371648894" y="-1.1803198970628435" width="0.20000000000000018" height="0.20000000000000007"/>
	<rect fill="green"  x="1.167809608813941" y="-1.347339815821463" width="0.20000000000000018" height="0.20000000000000018"/>
	<rect fill="green"  x="1.2574818459789876" y="-1.5143597345800819" width="0.20000000000000018" height="0.20000000000000018"/>
	<rect fill="green"  x="1.3471540831440345" y="-1.6813796533387013" width="0.20000000000000018" height="0.20000000000000018"/>
	<rect fill="green"  x="1.4368263203090816" y="-1.8483995720973212" width="0.20000000000000018" height="0.20000000000000018"/>
	<rect fill="green"  x="1.5264985574741283" y="-2.0154194908559404" width="0.20000000000000018" height="0.20000000000000018"/>
	<rect fill="green"  x="1.6161707946391752" y="-2.18243940961456" width="0.20000000000000018" height="0.20000000000000018"/>
	<rect fill="green"  x="1.7058430318042221" y="-2.3494593283731793" width="0.20000000000000018" height="0.20000000000000018"/>
	<rect fill="green"  x="1.795515268969269" y="-2.516479247131799" width="0.20000000000000018" height="0.20000000000000018"/>
	<rect fill="green"  x="1.885187506134316" y="-2.683499165890418" width="0.20000000000000018" height="0.20000000000000018"/>
	<rect fill="green"  x="1.9748597432993629" y="-2.8505190846490374" width="0.20000000000000018" height="0.20000000000000018"/>
	<rect fill="green"  x="2.0645319804644098" y="-3.017539003407657" width="0.20000000000000018" height="0.20000000000000018"/>
	<rect fill="green"  x="2.1542042176294567" y="-3.1845589221662762" width="0.20000000000000018" height="0.20000000000000018"/>
	<rect fill="green"  x="2.243876454794503" y="-3.3515788409248954" width="0.20000000000000018" height="0.20000000000000018"/>
	<rect fill="green"  x="2.3335486919595505" y="-3.518598759683515" width="0.20000000000000018" height="0.20000000000000018"/>
	<rect fill="green"  x="2.4102422291209322" y="-3.6916702111634083" width="0.20000000000000018" height="0.20000000000000018"/>
	<rect fill="white"  x="-0.1" y="-0.1" width="0.2" height="0.2"/>
	<rect fill="black"  x="-0.704999074797881" y="1.4859664443144278" width="0.19999999999999996" height="0.20000000000000018"/>
	<rect fill="green"  x="-0.1" y="-0.1" width="0.2" height="0.2"/>
	<rect fill="green"  x="0.1204659719342129" y="-0.0753946663884845" width="0.19999999999999998" height="0.2"/>
	<rect fill="green"  x="0.33008266628956917" y="-0.0027895104382057723" width="0.19999999999999996" height="0.2"/>
	<rect fill="green"  x="0.5185347056757555" y="0.11424251968269081" width="0.19999999999999996" height="0.19999999999999998"/>
	<rect fill="green"  x="0.6765482394950367" y="0.2699421996854898" width="0.19999999999999996" height="0.19999999999999996"/>
	<rect fill="green"  x="0.7988447937501657" y="0.45525120723277335" width="0.19999999999999996" height="0.19999999999999996"/>
	<rect fill="green"  x="0.9121763560227153" y="0.6464834388404634" width="0.20000000000000007" height="0.19999999999999996"/>
	<rect fill="green"  x="1.0255079182952647" y="0.8377156704481538" width="0.20000000000000018" height="0.20000000000000007"/>
	<rect fill="green"  x="1.138839480567814" y="1.0289479020558436" width="0.20000000000000018" height="0.20000000000000018"/>
	<rect fill="green"  x="1.235117256685587" y="1.2288379513250771" width="0.20000000000000018" height="0.20000000000000018"/>
	<rect fill="green"  x="1.2852929948880452" y="1.4449237271615942" width="0.20000000000000018" height="0.20000000000000018"/>
	<rect fill="green"  x="1.2865945817218716" y="1.6667546832852722" width="0.20000000000000018" height="0.20000000000000018"/>
	<rect fill="green"  x="1.238957965230525" y="1.8834143703345418" width="0.20000000000000018" height="0.20000000000000018"/>
	<rect fill="green"  x="1.144727375095792" y="2.084240820549376" width="0.20000000000000018" height="0.20000000000000018"/>
	<rect fill="green"  x="1.0085399615310227" y="2.259351230318669" width="0.20000000000000018" height="0.20000000000000018"/>
	<rect fill="green"  x="0.8370975980251197" y="2.4001282995399755" width="0.20000000000000007" height="0.20000000000000018"/>
	<rect fill="green"  x="0.6388370776764992" y="2.4996442947072137" width="0.19999999999999996" height="0.20000000000000018"/>
	<rect fill="green"  x="0.42351493297550524" y="2.553001967298838" width="0.19999999999999996" height="0.20000000000000018"/>
	<rect fill="green"  x="0.20172731033076538" y="2.557575550645147" width="0.19999999999999998" height="0.20000000000000018"/>
	<rect fill="green"  x="-0.015611473365561929" y="2.51313997565807" width="0.2" height="0.20000000000000018"/>
	<rect fill="green"  x="-0.21780603155433845" y="2.4218819466311587" width="0.2" height="0.20000000000000018"/>
	<rect fill="green"  x="-0.39490623511822853" y="2.2882923320622863" width="0.19999999999999998" height="0.20000000000000018"/>
	<rect fill="green"  x="-0.5381968648745185" y="2.118945166018455" width="0.19999999999999996" height="0.20000000000000018"/>
	<rect fill="green"  x="-0.6406264933260929" y="1.922174135533011" width="0.19999999999999996" height="0.20000000000000018"/>
	<rect fill="green"  x="-0.6971544901134427" y="1.7076624743063062" width="0.19999999999999996" height="0.20000000000000018"/>
	<rect fill="white"  x="-0.1" y="-0.1" width="0.2" height="0.2"/>
	<rect fill="black"  x="0.7640925705110032" y="1.7936526797310406" width="0.19999999999999996" height="0.20000000000000018"/>
	<rect fill="green"  x="-0.1" y="-0.1" width="0.2" height="0.2"/>
	<rect fill="green"  x="0.2177395379259177" y="-0.04817803499059417" width="0.19999999999999998" height="0.2"/>
	<rect fill="green"  x="0.5025473014188321" y="0.10191682792275134" width="0.19999999999999996" height="0.19999999999999998"/>
	<rect fill="green"  x="0.7249224859299184" y="0.33471586061705316" width="0.19999999999999996" height="0.19999999999999996"/>
	<rect fill="green"  x="0.9094505294518135" y="0.6002362622335894" width="0.20000000000000007" height="0.19999999999999996"/>
	<rect fill="green"  x="1.0939785729737088" y="0.8657566638501256" width="0.20000000000000018" height="0.20000000000000007"/>
	<rect fill="green"  x="1.2785066164956038" y="1.1312770654666615" width="0.20000000000000018" height="0.20000000000000018"/>
	<rect fill="green"  x="1.4630346600174993" y="1.3967974670831977" width="0.20000000000000018" height="0.20000000000000018"/>
	<rect fill="green"  x="1.6475627035393943" y="1.6623178686997337" width="0.20000000000000018" height="0.20000000000000018"/>
	<rect fill="green"  x="1.8320907470612895" y="1.9278382703162698" width="0.19999999999999996" height="0.20000000000000018"/>
	<rect fill="green"  x="2.0149584685207023" y="2.194461459488964" width="0.20000000000000018" height="0.20000000000000018"/>
	<rect fill="green"  x="2.1351268641201844" y="2.4931309870907237" width="0.20000000000000018" height="0.20000000000000018"/>
	<rect fill="green"  x="2.1541687796349387" y="2.8145051233748073" width="0.20000000000000018" height="0.20000000000000018"/>
	<rect fill="green"  x="2.0701106361059294" y="3.1252753898503314" width="0.20000000000000018" height="0.20000000000000018"/>
	<rect fill="green"  x="1.8916645498785885" y="3.3932323347667794" width="0.20000000000000018" height="0.20000000000000018"/>
	<rect fill="green"  x="1.6373253746259946" y="3.5906038472771757" width="0.20000000000000018" height="0.20000000000000018"/>
	<rect fill="green"  x="1.3334538220290668" y="3.6969335681511875" width="0.20000000000000018" height="0.20000000000000018"/>
	<rect fill="green"  x="1.0115443340198724" y="3.701201067239627" width="0.20000000000000018" height="0.20000000000000018"/>
	<rect fill="green"  x="0.7049608750460264" y="3.6029640441656174" width="0.19999999999999996" height="0.20000000000000018"/>
	<rect fill="green"  x="0.4454789596743376" y="3.4124041700738967" width="0.19999999999999996" height="0.20000000000000018"/>
	<rect fill="green"  x="0.25999231338273954" y="3.1492718192192233" width="0.19999999999999996" height="0.20000000000000018"/>
	<rect fill="green"  x="0.16772550115890114" y="2.8408390625592626" width="0.19999999999999998" height="0.20000000000000018"/>
	<rect fill="green"  x="0.17824141803200896" y="2.5190730831407873" width="0.19999999999999998" height="0.20000000000000018"/>
	<rect fill="green"  x="0.290450153049583" y="2.217322971617084" width="0.19999999999999996" height="0.20000000000000018"/>
	<rect fill="green"  x="0.4927219519319621" y="1.9668632954300818" width="0.19999999999999996" height="0.20000000000000018"/>
	<rect fill="white"  x="-0.1" y="-0.1" width="0.2" height="0.2"/>
	<rect fill="black"  x="-3.423327708508451" y="1.455979131957784" width="0.20000000000000018" height="0.20000000000000018"/>
	<rect fill="green"  x="-0.1" y="-0.1" width="0.2" height="0.2"/>
	<rect fill="green"  x="0.15822815575478402" y="-0.06608396093480565" width="0.20000000000000004" height="0.2"/>
	<rect fill="green"  x="0.39894015907294333" y="0.033363560849033996" width="0.20000000000000007" height="0.2"/>
	<rect fill="green"  x="0.6058080145384779" y="0.19159683328400354" width="0.19999999999999996" height="0.19999999999999998"/>
	<rect fill="green"  x="0.7647994456167845" y="0.397882564671468" width="0.19999999999999996" height="0.19999999999999996"/>
	<rect fill="green"  x="0.8651297331328959" y="0.6382279651627671" width="0.20000000000000007" height="0.19999999999999996"/>
	<rect fill="green"  x="0.8999932651851756" y="0.8963299067734967" width="0.19999999999999996" height="0.19999999999999996"/>
	<rect fill="green"  x="0.867025175943552" y="1.154680798434712" width="0.20000000000000007" height="0.20000000000000018"/>
	<rect fill="green"  x="0.7684617594132724" y="1.3957561622781944" width="0.19999999999999996" height="0.20000000000000018"/>
	<rect fill="green"  x="0.6109887769652168" y="1.6032033553884006" width="0.19999999999999996" height="0.20000000000000018"/>
	<rect fill="green"  x="0.40528794824822745" y="1.7629508035543489" width="0.19999999999999996" height="0.20000000000000018"/>
	<rect fill="green"  x="0.1653123879473196" y="1.8641625053909174" width="0.19999999999999998" height="0.20000000000000018"/>
	<rect fill="green"  x="-0.09265986298178988" y="1.8999730608314174" width="0.2" height="0.20000000000000018"/>
	<rect fill="green"  x="-0.3514923215288408" y="1.8696125495290399" width="0.20000000000000004" height="0.19999999999999996"/>
	<rect fill="green"  x="-0.6077012896611542" y="1.8188584217649486" width="0.19999999999999996" height="0.19999999999999996"/>
	<rect fill="green"  x="-0.8639102577934673" y="1.7681042940008571" width="0.19999999999999996" height="0.20000000000000018"/>
	<rect fill="green"  x="-1.1201192259257808" y="1.7173501662367656" width="0.20000000000000007" height="0.20000000000000018"/>
	<rect fill="green"  x="-1.3763281940580947" y="1.6665960384726741" width="0.20000000000000018" height="0.20000000000000018"/>
	<rect fill="green"  x="-1.632537162190408" y="1.6158419107085826" width="0.20000000000000018" height="0.20000000000000018"/>
	<rect fill="green"  x="-1.8887461303227209" y="1.5650877829444911" width="0.20000000000000018" height="0.20000000000000018"/>
	<rect fill="green"  x="-2.1449550984550347" y="1.5143336551803996" width="0.20000000000000018" height="0.20000000000000018"/>
	<rect fill="green"  x="-2.401164066587348" y="1.4635795274163084" width="0.20000000000000018" height="0.20000000000000018"/>
	<rect fill="green"  x="-2.657373034719662" y="1.4128253996522167" width="0.20000000000000018" height="0.20000000000000018"/>
	<rect fill="green"  x="-2.914482046304501" y="1.3676433308673315" width="0.20000000000000018" height="0.20000000000000018"/>
	<rect fill="green"  x="-3.17470594985708" y="1.378394988890475" width="0.20000000000000018" height="0.20000000000000018"/>
	<rect fill="white"  x="-0.1" y="-0.1" width="0.2" height="0.2"/>
	<rect fill="black"  x="0.5626900708297008" y="-2.3041534487177864" width="0.19999999999999996" height="0.20000000000000018"/>
	<rect fill="green"  x="-0.1" y="-0.1" width="0.2" height="0.2"/>
	<rect fill="green"  x="0.2278238663575071" y="-0.04473885949844117" width="0.20000000000000004" height="0.2"/>
	<rect fill="green"  x="0.5194158912379213" y="0.11493697470716932" width="0.19999999999999996" height="0.19999999999999998"/>
	<rect fill="green"  x="0.7425486589291412" y="0.36137976519935133" width="0.19999999999999996" height="0.19999999999999996"/>
	<rect fill="green"  x="0.872561026979395" y="0.6673520926361366" width="0.20000000000000007" height="0.19999999999999996"/>
	<rect fill="green"  x="0.8950837319131512" y="0.9990371974653772" width="0.20000000000000007" height="0.20000000000000007"/>
	<rect fill="green"  x="0.8076275130067712" y="1.3197764853265885" width="0.19999999999999996" height="0.20000000000000018"/>
	<rect fill="green"  x="0.6198582310616957" y="1.594121118518034" width="0.19999999999999996" height="0.20000000000000018"/>
	<rect fill="green"  x="0.3525285754208123" y="1.7917499023984305" width="0.19999999999999996" height="0.20000000000000018"/>
	<rect fill="green"  x="0.03518442940532987" y="1.8908204529814445" width="0.2" height="0.20000000000000018"/>
	<rect fill="green"  x="-0.29710060810413447" y="1.8803832670364078" width="0.2" height="0.20000000000000018"/>
	<rect fill="green"  x="-0.6076016368188291" y="1.761591886161218" width="0.19999999999999996" height="0.20000000000000018"/>
	<rect fill="green"  x="-0.8620013747913898" y="1.5475754047337125" width="0.19999999999999996" height="0.20000000000000018"/>
	<rect fill="green"  x="-1.0321829826944953" y="1.2619874124535193" width="0.20000000000000007" height="0.20000000000000018"/>
	<rect fill="green"  x="-1.0993376010379148" y="0.9363917456545466" width="0.19999999999999996" height="0.20000000000000007"/>
	<rect fill="green"  x="-1.0560431482224406" y="0.6067739801161497" width="0.19999999999999996" height="0.19999999999999996"/>
	<rect fill="green"  x="-0.9153326025704388" y="0.3046297775705231" width="0.19999999999999996" height="0.20000000000000007"/>
	<rect fill="green"  x="-0.757285322649132" y="0.010390857868005171" width="0.19999999999999996" height="0.2"/>
	<rect fill="green"  x="-0.5992380427278254" y="-0.28384806183451194" width="0.19999999999999996" height="0.19999999999999998"/>
	<rect fill="green"  x="-0.4411907628065189" y="-0.5780869815370292" width="0.19999999999999998" height="0.19999999999999996"/>
	<rect fill="green"  x="-0.28314348288521207" y="-0.8723259012395471" width="0.19999999999999998" height="0.19999999999999996"/>
	<rect fill="green"  x="-0.12509620296390558" y="-1.1665648209420643" width="0.2" height="0.20000000000000007"/>
	<rect fill="green"  x="0.032951076957401265" y="-1.4608037406445822" width="0.2" height="0.20000000000000018"/>
	<rect fill="green"  x="0.19099835687870767" y="-1.7550426603470994" width="0.19999999999999998" height="0.20000000000000018"/>
	<rect fill="green"  x="0.3496070959199131" y="-2.048971304344963" width="0.19999999999999996" height="0.20000000000000018"/>
	<path fill="none" stroke="white" stroke-width="0.05"  d="M 0 0 A 1 1 0 0 0 0.7279323246814832 -0.31435101496187456"/>
	<line fill="none" stroke="white" stroke-width="0.05"  x1="0.7279323246814832" y1="-0.31435101496187456" x2="1.5207208074574843" y2="-1.1560300312529164"/>
	<path fill="none" stroke="white" stroke-width="0.05"  d="M 1.5207208074574843 -1.1560300312529164 A 1 1 0 0 0 1.6733852823614181 -2.3155453229218472"/>
	<line fill="none" stroke="white" stroke-width="0.05"  x1="1.6733852823614181" y1="-2.3155453229218472" x2="1.6733852823614181" y2="-2.3155453229218472"/>
	<line fill="none" stroke="white" stroke-width="0.05"  x1="1.6733852823614181" y1="-2.3155453229218472" x2="1.6733852823614181" y2="-2.3155453229218472"/>
	<path fill="none" stroke="white" stroke-width="0.05"  d="M 0 0 A 1 1 0 1 0 -0.9061012069496016 -0.5769390082216564"/>
	<line fill="none" stroke="white" stroke-width="0.05"  x1="-0.9061012069496016" y1="-0.5769390082216564" x2="-0.2629398679573307" y2="0.8005674904856311"/>
	<path fill="none" stroke="white" stroke-width="0.05"  d="M -0.2629398679573307 0.8005674904856311 A 1 1 0 0 0 -0.06033546253090116 1.0882049229680053"/>
	<line fill="none" stroke="white" stroke-width="0.05"  x1="-0.06033546253090116" y1="1.0882049229680053" x2="-0.06033546253090116" y2="1.0882049229680053"/>
	<line fill="none" stroke="white" stroke-width="0.05"  x1="-0.06033546253090116" y1="1.0882049229680053" x2="-0.06033546253090116" y2="1.0882049229680053"/>
	<path fill="none" stroke="white" stroke-width="0.05"  d="M 0 0 A 1 1 0 0 1 0.7566310662200828 0.34615794748986894"/>
	<line fill="none" stroke="white" stroke-width="0.05"  x1="0.7566310662200828" y1="0.34615794748986894" x2="1.6014111144459737" y2="1.3237439350486992"/>
	<path fill="none" stroke="white" stroke-width="0.05"  d="M 1.6014111144459737 1.3237439350486992 A 1 1 0 1 0 1.708498934584771 -0.0904227661939232"/>
	<line fill="none" stroke="white" stroke-width="0.05"  x1="1.708498934584771" y1="-0.0904227661939232" x2="1.708498934584771" y2="-0.0904227661939232"/>
	<line fill="none" stroke="white" stroke-width="0.05"  x1="1.708498934584771" y1="-0.0904227661939232" x2="1.708498934584771" y2="-0.0904227661939232"/>
	<path fill="none" stroke="white" stroke-width="0.05"  d="M 0 0 A 1 1 0 0 1 0.9215845837385851 0.6118223924343665"/>
	<path fill="none" stroke="white" stroke-width="0.05"  d="M 0.9215845837385851 0.6118223924343665 A 1 1 0 1 0 1.5929612246938905 -0.744547337268273"/>
	<path fill="none" stroke="white" stroke-width="0.05"  d="M 1.5929612246938905 -0.744547337268273 A 1 1 0 1 1 1.122592198261806 -2.6882029888345365"/>
	<line fill="none" stroke="white" stroke-width="0.05"  x1="1.122592198261806" y1="-2.6882029888345365" x2="1.122592198261806" y2="-2.6882029888345365"/>
	<line fill="none" stroke="white" stroke-width="0.05"  x1="1.122592198261806" y1="-2.6882029888345365" x2="1.122592198261806" y2="-2.6882029888345365"/>
	<path fill="none" stroke="white" stroke-width="0.05"  d="M 0 0 A 1 1 0 0 1 0.9643970038972084 1.2644587281110007"/>
	<line fill="none" stroke="white" stroke-width="0.05"  x1="0.9643970038972084" y1="1.2644587281110007" x2="0.6383655162025277" y2="2.4533920340933513"/>
	<path fill="none" stroke="white" stroke-width="0.05"  d="M 0.6383655162025277 2.4533920340933513 A 1 1 0 0 1 -1.2067673381158537 2.66254112030016"/>
	<line fill="none" stroke="white" stroke-width="0.05"  x1="-1.2067673381158537" y1="2.66254112030016" x2="-1.2067673381158537" y2="2.66254112030016"/>
	<line fill="none" stroke="white" stroke-width="0.05"  x1="-1.2067673381158537" y1="2.66254112030016" x2="-1.2067673381158537" y2="2.66254112030016"/>
	<path fill="none" stroke="white" stroke-width="0.05"  d="M 0 0 A 1 1 0 0 0 0.786745331543007 -0.3827222802536254"/>
	<line fill="none" stroke="white" stroke-width="0.05"  x1="0.786745331543007" y1="-0.3827222802536254" x2="3.1862564407904044" y2="-3.440995894862015"/>
	<path fill="none" stroke="white" stroke-width="0.05"  d="M 3.1862564407904044 -3.440995894862015 A 1 1 0 0 0 3.396001845911438 -3.974570497923536"/>
	<line fill="none" stroke="white" stroke-width="0.05"  x1="3.396001845911438" y1="-3.974570497923536" x2="3.396001845911438" y2="-3.974570497923536"/>
	<line fill="none" stroke="white" stroke-width="0.05"  x1="3.396001845911438" y1="-3.974570497923536" x2="3.396001845911438" y2="-3.974570497923536"/>
	<path fill="none" stroke="white" stroke-width="0.05"  d="M 0 0 A 1 1 0 1 1 -0.906601738735245 0.5780126929370619"/>
	<line fill="none" stroke="white" stroke-width="0.05"  x1="-0.906601738735245" y1="0.5780126929370619" x2="-0.30319979647781004" y2="-0.718342057195801"/>
	<path fill="none" stroke="white" stroke-width="0.05"  d="M -0.30319979647781004 -0.718342057195801 A 1 1 0 0 1 0.3900543819123029 -1.273331115504503"/>
	<line fill="none" stroke="white" stroke-width="0.05"  x1="0.3900543819123029" y1="-1.273331115504503" x2="0.3900543819123029" y2="-1.273331115504503"/>
	<line fill="none" stroke="white" stroke-width="0.05"  x1="0.3900543819123029" y1="-1.273331115504503" x2="0.3900543819123029" y2="-1.273331115504503"/>
	<path fill="none" stroke="white" stroke-width="0.05"  d="M 0 0 A 1 1 0 0 0 0.6756371216402166 -0.2627656547191234"/>
	<line fill="none" stroke="white" stroke-width="0.05"  x1="0.6756371216402166" y1="-0.2627656547191234" x2="1.1943387603872793" y2="-0.7381288610542956"/>
	<path fill="none" stroke="white" stroke-width="0.05"  d="M 1.1943387603872793 -0.7381288610542956 A 1 1 0 1 0 0.08826389273107454 -0.5727429391105349"/>
	<line fill="none" stroke="white" stroke-width="0.05"  x1="0.08826389273107454" y1="-0.5727429391105349" x2="0.08826389273107454" y2="-0.5727429391105349"/>
	<line fill="none" stroke="white" stroke-width="0.05"  x1="0.08826389273107454" y1="-0.5727429391105349" x2="0.08826389273107454" y2="-0.5727429391105349"/>
	<path fill="none" stroke="white" stroke-width="0.05"  d="M 0 0 A 1 1 0 0 0 0.16843923807157854 -0.01428796138128352"/>
	<line fill="none" stroke="white" stroke-width="0.05"  x1="0.16843923807157854" y1="-0.01428796138128352" x2="3.141581458936915" y2="-0.5223408112407225"/>
	<path fill="none" stroke="white" stroke-width="0.05"  d="M 3.141581458936915 -0.5223408112407225 A 1 1 0 0 0 3.9247513517209107 -1.2007418313906917"/>
	<line fill="none" stroke="white" stroke-width="0.05"  x1="3.9247513517209107" y1="-1.2007418313906917" x2="3.9247513517209107" y2="-1.2007418313906917"/>
	<line fill="none" stroke="white" stroke-width="0.05"  x1="3.9247513517209107" y1="-1.2007418313906917" x2="3.9247513517209107" y2="-1.2007418313906917"/>
	<path fill="none" stroke="white" stroke-width="0.05"  d="M 0 0 A 1 1 0 0 0 0.1813935152018543 -0.016589407905978182"/>
	<line fill="none" stroke="white" stroke-width="0.05"  x1="0.1813935152018543" y1="-0.016589407905978182" x2="1.615384461430027" y2="-0.28109404167251445"/>
	<path fill="none" stroke="white" stroke-width="0.05"  d="M 1.615384461430027 -0.28109404167251445 A 1 1 0 1 1 0.8367560141085761 0.9822412393521223"/>
	<line fill="none" stroke="white" stroke-width="0.05"  x1="0.8367560141085761" y1="0.9822412393521223" x2="0.8367560141085761" y2="0.9822412393521223"/>
	<line fill="none" stroke="white" stroke-width="0.05"  x1="0.8367560141085761" y1="0.9822412393521223" x2="0.8367560141085761" y2="0.9822412393521223"/>
	<path fill="none" stroke="white" stroke-width="0.05"  d="M 0 0 A 1 1 0 0 0 0.9558195724071052 -1.2939539845001224"/>
	<line fill="none" stroke="white" stroke-width="0.05"  x1="0.9558195724071052" y1="-1.2939539845001224" x2="0.8367351750974532" y2="-1.6811683232015666"/>
	<path fill="none" stroke="white" stroke-width="0.05"  d="M 0.8367351750974532 -1.6811683232015666 A 1 1 0 0 1 2.557228346651002 -2.6195400966929805"/>
	<line fill="none" stroke="white" stroke-width="0.05"  x1="2.557228346651002" y1="-2.6195400966929805" x2="2.557228346651002" y2="-2.6195400966929805"/>
	<line fill="none" stroke="white" stroke-width="0.05"  x1="2.557228346651002" y1="-2.6195400966929805" x2="2.557228346651002" y2="-2.6195400966929805"/>
	<path fill="none" stroke="white" stroke-width="0.05"  d="M 0 0 A 1 1 0 0 0 0.16504750796200404 -0.013714382080154186"/>
	<line fill="none" stroke="white" stroke-width="0.05"  x1="0.16504750796200404" y1="-0.013714382080154186" x2="2.7535041501276756" y2="-0.44687320594922886"/>
	<path fill="none" stroke="white" stroke-width="0.05"  d="M 2.7535041501276756 -0.44687320594922886 A 1 1 0 1 0 1.5893513192174367 -1.4754501191495906"/>
	<line fill="none" stroke="white" stroke-width="0.05"  x1="1.5893513192174367" y1="-1.4754501191495906" x2="1.5893513192174367" y2="-1.4754501191495906"/>
	<line fill="none" stroke="white" stroke-width="0.05"  x1="1.5893513192174367" y1="-1.4754501191495906" x2="1.5893513192174367" y2="-1.4754501191495906"/>
	<path fill="none" stroke="white" stroke-width="0.05"  d="M 0 0 A 1 1 0 0 0 0.03523487437707271 -1.9993790590299718"/>
	<path fill="none" stroke="white" stroke-width="0.05"  d="M 0.03523487437707271 -1.9993790590299718 A 1 1 0 1 1 0.8022413606362685 -3.6803080487645397"/>
	<path fill="none" stroke="white" stroke-width="0.05"  d="M 0.8022413606362685 -3.6803080487645397 A 1 1 0 0 0 1.2852224821548015 -3.393300654420874"/>
	<line fill="none" stroke="white" stroke-width="0.05"  x1="1.2852224821548015" y1="-3.393300654420874" x2="1.2852224821548015" y2="-3.393300654420874"/>
	<line fill="none" stroke="white" stroke-width="0.05"  x1="1.2852224821548015" y1="-3.393300654420874" x2="1.2852224821548015" y2="-3.393300654420874"/>
	<path fill="none" stroke="white" stroke-width="0.05"  d="M 0 0 A 1 1 0 0 0 0.5761956288125167 -0.18268818842662737"/>
	<path fill="none" stroke="white" stroke-width="0.05"  d="M 0.5761956288125167 -0.18268818842662737 A 1 1 0 1 1 1.095044861883025 1.6329779644982523"/>
	<path fill="none" stroke="white" stroke-width="0.05"  d="M 1.095044861883025 1.6329779644982523 A 1 1 0 0 0 0.14042456676010173 3.072806596709112"/>
	<line fill="none" stroke="white" stroke-width="0.05"  x1="0.14042456676010173" y1="3.072806596709112" x2="0.14042456676010173" y2="3.072806596709112"/>
	<line fill="none" stroke="white" stroke-width="0.05"  x1="0.14042456676010173" y1="3.072806596709112" x2="0.14042456676010173" y2="3.072806596709112"/>
	<path fill="none" stroke="white" stroke-width="0.05"  d="M 0 0 A 1 1 0 1 0 -0.5344743436185798 -1.845184699348899"/>
	<line fill="none" stroke="white" stroke-width="0.05"  x1="-0.5344743436185798" y1="-1.845184699348899" x2="-1.0137603276279834" y2="-1.5420958456269225"/>
	<path fill="none" stroke="white" stroke-width="0.05"  d="M -1.0137603276279834 -1.5420958456269225 A 1 1 0 1 1 -1.682275628334749 -3.378256337729047"/>
	<line fill="none" stroke="white" stroke-width="0.05"  x1="-1.682275628334749" y1="-3.378256337729047" x2="-1.682275628334749" y2="-3.378256337729047"/>
	<line fill="none" stroke="white" stroke-width="0.05"  x1="-1.682275628334749" y1="-3.378256337729047" x2="-1.682275628334749" y2="-3.378256337729047"/>
	<path fill="none" stroke="white" stroke-width="0.05"  d="M 0 0 A 1 1 0 0 0 0.8810464143382853 -0.5269701745326727"/>
	<line fill="none" stroke="white" stroke-width="0.05"  x1="0.8810464143382853" y1="-0.5269701745326727" x2="2.4431360093092698" y2="-3.436455713134068"/>
	<path fill="none" stroke="white" stroke-width="0.05"  d="M 2.4431360093092698 -3.436455713134068 A 1 1 0 0 0 2.553144447145328 -3.7760303776607644"/>
	<line fill="none" stroke="white" stroke-width="0.05"  x1="2.553144447145328" y1="-3.7760303776607644" x2="2.553144447145328" y2="-3.7760303776607644"/>
	<line fill="none" stroke="white" stroke-width="0.05"  x1="2.553144447145328" y1="-3.7760303776607644" x2="2.553144447145328" y2="-3.7760303776607644"/>
	<path fill="none" stroke="white" stroke-width="0.05"  d="M 0 0 A 1 1 0 0 1 0.8602742530505323 0.4901684498401957"/>
	<line fill="none" stroke="white" stroke-width="0.05"  x1="0.8602742530505323" y1="0.4901684498401957" x2="1.2524055184475757" y2="1.1518388218120046"/>
	<path fill="none" stroke="white" stroke-width="0.05"  d="M 1.2524055184475757 1.1518388218120046 A 1 1 0 1 1 -0.604999074797881 1.585966444314428"/>
	<line fill="none" stroke="white" stroke-width="0.05"  x1="-0.604999074797881" y1="1.585966444314428" x2="-0.604999074797881" y2="1.585966444314428"/>
	<line fill="none" stroke="white" stroke-width="0.05"  x1="-0.604999074797881" y1="1.585966444314428" x2="-0.604999074797881" y2="1.585966444314428"/>
	<path fill="none" stroke="white" stroke-width="0.05"  d="M 0 0 A 1 1 0 0 1 0.8211686923159374 0.4293144659620909"/>
	<line fill="none" stroke="white" stroke-width="0.05"  x1="0.8211686923159374" y1="0.4293144659620909" x2="2.0805849666661937" y2="2.2415090169123015"/>
	<path fill="none" stroke="white" stroke-width="0.05"  d="M 2.0805849666661937 2.2415090169123015 A 1 1 0 1 1 0.8640925705110035 1.8936526797310405"/>
	<line fill="none" stroke="white" stroke-width="0.05"  x1="0.8640925705110035" y1="1.8936526797310405" x2="0.8640925705110035" y2="1.8936526797310405"/>
	<line fill="none" stroke="white" stroke-width="0.05"  x1="0.8640925705110035" y1="1.8936526797310405" x2="0.8640925705110035" y2="1.8936526797310405"/>
	<path fill="none" stroke="white" stroke-width="0.05"  d="M 0 0 A 1 1 0 1 1 -0.19432050951771346 1.9809380916147443"/>
	<line fill="none" stroke="white" stroke-width="0.05"  x1="-0.19432050951771346" y1="1.9809380916147443" x2="-2.7093432841650102" y2="1.482720608579069"/>
	<path fill="none" stroke="white" stroke-width="0.05"  d="M -2.7093432841650102 1.482720608579069 A 1 1 0 0 0 -3.3233277085084514 1.5559791319577836"/>
	<line fill="none" stroke="white" stroke-width="0.05"  x1="-3.3233277085084514" y1="1.5559791319577836" x2="-3.3233277085084514" y2="1.5559791319577836"/>
	<line fill="none" stroke="white" stroke-width="0.05"  x1="-3.3233277085084514" y1="1.5559791319577836" x2="-3.3233277085084514" y2="1.5559791319577836"/>
	<path fill="none" stroke="white" stroke-width="0.05"  d="M 0 0 A 1 1 0 1 1 -0.8809568846309633 0.5268034579360206"/>
	<line fill="none" stroke="white" stroke-width="0.05"  x1="-0.8809568846309633" y1="0.5268034579360206" x2="0.43209606621105723" y2="-1.9177263179660204"/>
	<path fill="none" stroke="white" stroke-width="0.05"  d="M 0.43209606621105723 -1.9177263179660204 A 1 1 0 0 1 0.6626900708297015 -2.204153448717786"/>
	<line fill="none" stroke="white" stroke-width="0.05"  x1="0.6626900708297015" y1="-2.204153448717786" x2="0.6626900708297015" y2="-2.204153448717786"/>
	<line fill="none" stroke="white" stroke-width="0.05"  x1="0.6626900708297015" y1="-2.204153448717786" x2="0.6626900708297015" y2="-2.204153448717786"/>
</svg>
