<svg width="300.0010351524976" height="150.01625056140475" viewBox="-8.50072444601623,-5.750536824105005,18.00006210914986,9.000975033684284" xmlns="http://www.w3.org/2000/svg" style="background: ">
	<polygon fill="#FF4444"  points="-0.4996216322330263,0.7000368307197532 -0.7503276912499621,-1.900603262835396 5.899580610849864,-3.9991086169679604 3.0003936364354677,-1.4991532869431288 0.9995161227001842,1.0002004345240583 0.00010446582331661247,0.0008127354941063052 "/>
	<polygon fill="#44FF44"  points="-0.00034369976642193567,0.29918358016648666 1.0007091920752216,1.300904043666204 7.99933248737114,0.0009123372814423703 6.5005381759404,2.0005489849100764 -2.1996739331082313,2.500356956772256 "/>
	<polygon fill="#4444FF"  points="-7.000719270253741,-2.0001656304501707 -4.200307397845643,-5.000455571297981 0.4998390059159071,-3.0006633981258135 -1.5000250826444907,-1.9991140240576797 -0.9990163344179125,-0.00045777678551282234 "/>
	<line stroke="white" stroke-width="0.01"  x1="-7.000719270253741" y1="-2.0001656304501707" x2="-0.4996216322330263" y2="0.7000368307197532"/>
	<line stroke="white" stroke-width="0.01"  x1="-7.000719270253741" y1="-2.0001656304501707" x2="-2.1996739331082313" y2="2.500356956772256"/>
	<line stroke="white" stroke-width="0.01"  x1="-7.000719270253741" y1="-2.0001656304501707" x2="-0.4996216322330263" y2="0.7000368307197532"/>
	<line stroke="white" stroke-width="0.01"  x1="-7.000719270253741" y1="-2.0001656304501707" x2="-2.1996739331082313" y2="2.500356956772256"/>
	<line stroke="white" stroke-width="0.01"  x1="-7.000719270253741" y1="-2.0001656304501707" x2="-4.200307397845643" y2="-5.000455571297981"/>
	<line stroke="white" stroke-width="0.01"  x1="-7.000719270253741" y1="-2.0001656304501707" x2="-0.9990163344179125" y2="-0.00045777678551282234"/>
	<line stroke="white" stroke-width="0.01"  x1="-7.000719270253741" y1="-2.0001656304501707" x2="-4.200307397845643" y2="-5.000455571297981"/>
	<line stroke="white" stroke-width="0.01"  x1="-7.000719270253741" y1="-2.0001656304501707" x2="-0.9990163344179125" y2="-0.00045777678551282234"/>
	<line stroke="white" stroke-width="0.01"  x1="-2.1996739331082313" y1="2.500356956772256" x2="-0.4996216322330263" y2="0.7000368307197532"/>
	<line stroke="white" stroke-width="0.01"  x1="-2.1996739331082313" y1="2.500356956772256" x2="-0.00034369976642193567" y2="0.29918358016648666"/>
	<line stroke="white" stroke-width="0.01"  x1="-2.1996739331082313" y1="2.500356956772256" x2="6.5005381759404" y2="2.0005489849100764"/>
	<line stroke="white" stroke-width="0.01"  x1="-2.1996739331082313" y1="2.500356956772256" x2="-0.4996216322330263" y2="0.7000368307197532"/>
	<line stroke="white" stroke-width="0.01"  x1="-2.1996739331082313" y1="2.500356956772256" x2="-0.00034369976642193567" y2="0.29918358016648666"/>
	<line stroke="white" stroke-width="0.01"  x1="-2.1996739331082313" y1="2.500356956772256" x2="6.5005381759404" y2="2.0005489849100764"/>
	<line stroke="white" stroke-width="0.01"  x1="-2.1996739331082313" y1="2.500356956772256" x2="-0.9990163344179125" y2="-0.00045777678551282234"/>
	<line stroke="white" stroke-width="0.01"  x1="-2.1996739331082313" y1="2.500356956772256" x2="-0.9990163344179125" y2="-0.00045777678551282234"/>
	<line stroke="white" stroke-width="0.01"  x1="3.0003936364354677" y1="-1.4991532869431288" x2="5.899580610849864" y2="-3.9991086169679604"/>
	<line stroke="white" stroke-width="0.01"  x1="3.0003936364354677" y1="-1.4991532869431288" x2="5.899580610849864" y2="-3.9991086169679604"/>
	<line stroke="white" stroke-width="0.01"  x1="3.0003936364354677" y1="-1.4991532869431288" x2="0.9995161227001842" y2="1.0002004345240583"/>
	<line stroke="white" stroke-width="0.01"  x1="3.0003936364354677" y1="-1.4991532869431288" x2="1.0007091920752216" y2="1.300904043666204"/>
	<line stroke="white" stroke-width="0.01"  x1="3.0003936364354677" y1="-1.4991532869431288" x2="7.99933248737114" y2="0.0009123372814423703"/>
	<line stroke="white" stroke-width="0.01"  x1="3.0003936364354677" y1="-1.4991532869431288" x2="0.9995161227001842" y2="1.0002004345240583"/>
	<line stroke="white" stroke-width="0.01"  x1="3.0003936364354677" y1="-1.4991532869431288" x2="1.0007091920752216" y2="1.300904043666204"/>
	<line stroke="white" stroke-width="0.01"  x1="3.0003936364354677" y1="-1.4991532869431288" x2="7.99933248737114" y2="0.0009123372814423703"/>
	<line stroke="white" stroke-width="0.01"  x1="-0.7503276912499621" y1="-1.900603262835396" x2="-0.4996216322330263" y2="0.7000368307197532"/>
	<line stroke="white" stroke-width="0.01"  x1="-0.7503276912499621" y1="-1.900603262835396" x2="-0.4996216322330263" y2="0.7000368307197532"/>
	<line stroke="white" stroke-width="0.01"  x1="-0.7503276912499621" y1="-1.900603262835396" x2="5.899580610849864" y2="-3.9991086169679604"/>
	<line stroke="white" stroke-width="0.01"  x1="-0.7503276912499621" y1="-1.900603262835396" x2="0.4998390059159071" y2="-3.0006633981258135"/>
	<line stroke="white" stroke-width="0.01"  x1="-0.7503276912499621" y1="-1.900603262835396" x2="-1.5000250826444907" y2="-1.9991140240576797"/>
	<line stroke="white" stroke-width="0.01"  x1="-0.7503276912499621" y1="-1.900603262835396" x2="-0.9990163344179125" y2="-0.00045777678551282234"/>
	<line stroke="white" stroke-width="0.01"  x1="-0.7503276912499621" y1="-1.900603262835396" x2="5.899580610849864" y2="-3.9991086169679604"/>
	<line stroke="white" stroke-width="0.01"  x1="-0.7503276912499621" y1="-1.900603262835396" x2="0.4998390059159071" y2="-3.0006633981258135"/>
	<line stroke="white" stroke-width="0.01"  x1="-0.7503276912499621" y1="-1.900603262835396" x2="-1.5000250826444907" y2="-1.9991140240576797"/>
	<line stroke="white" stroke-width="0.01"  x1="-0.7503276912499621" y1="-1.900603262835396" x2="-0.9990163344179125" y2="-0.00045777678551282234"/>
	<line stroke="white" stroke-width="0.01"  x1="-1.5000250826444907" y1="-1.9991140240576797" x2="-0.4996216322330263" y2="0.7000368307197532"/>
	<line stroke="white" stroke-width="0.01"  x1="-1.5000250826444907" y1="-1.9991140240576797" x2="5.899580610849864" y2="-3.9991086169679604"/>
	<line stroke="white" stroke-width="0.01"  x1="-1.5000250826444907" y1="-1.9991140240576797" x2="0.4998390059159071" y2="-3.0006633981258135"/>
	<line stroke="white" stroke-width="0.01"  x1="-1.5000250826444907" y1="-1.9991140240576797" x2="-0.4996216322330263" y2="0.7000368307197532"/>
	<line stroke="white" stroke-width="0.01"  x1="-1.5000250826444907" y1="-1.9991140240576797" x2="5.899580610849864" y2="-3.9991086169679604"/>
	<line stroke="white" stroke-width="0.01"  x1="-1.5000250826444907" y1="-1.9991140240576797" x2="0.4998390059159071" y2="-3.0006633981258135"/>
	<line stroke="white" stroke-width="0.01"  x1="-1.5000250826444907" y1="-1.9991140240576797" x2="-0.9990163344179125" y2="-0.00045777678551282234"/>
	<line stroke="white" stroke-width="0.01"  x1="-1.5000250826444907" y1="-1.9991140240576797" x2="-0.9990163344179125" y2="-0.00045777678551282234"/>
	<line stroke="white" stroke-width="0.01"  x1="0.00010446582331661247" y1="0.0008127354941063052" x2="-0.4996216322330263" y2="0.7000368307197532"/>
	<line stroke="white" stroke-width="0.01"  x1="0.00010446582331661247" y1="0.0008127354941063052" x2="0.9995161227001842" y2="1.0002004345240583"/>
	<line stroke="white" stroke-width="0.01"  x1="0.00010446582331661247" y1="0.0008127354941063052" x2="-0.4996216322330263" y2="0.7000368307197532"/>
	<line stroke="white" stroke-width="0.01"  x1="0.00010446582331661247" y1="0.0008127354941063052" x2="0.9995161227001842" y2="1.0002004345240583"/>
	<line stroke="white" stroke-width="0.01"  x1="0.00010446582331661247" y1="0.0008127354941063052" x2="-0.00034369976642193567" y2="0.29918358016648666"/>
	<line stroke="white" stroke-width="0.01"  x1="0.00010446582331661247" y1="0.0008127354941063052" x2="1.0007091920752216" y2="1.300904043666204"/>
	<line stroke="white" stroke-width="0.01"  x1="0.00010446582331661247" y1="0.0008127354941063052" x2="-0.00034369976642193567" y2="0.29918358016648666"/>
	<line stroke="white" stroke-width="0.01"  x1="0.00010446582331661247" y1="0.0008127354941063052" x2="1.0007091920752216" y2="1.300904043666204"/>
	<line stroke="white" stroke-width="0.01"  x1="-0.9990163344179125" y1="-0.00045777678551282234" x2="-0.4996216322330263" y2="0.7000368307197532"/>
	<line stroke="white" stroke-width="0.01"  x1="-0.9990163344179125" y1="-0.00045777678551282234" x2="-0.4996216322330263" y2="0.7000368307197532"/>
	<line stroke="white" stroke-width="0.01"  x1="0.4998390059159071" y1="-3.0006633981258135" x2="5.899580610849864" y2="-3.9991086169679604"/>
	<line stroke="white" stroke-width="0.01"  x1="0.4998390059159071" y1="-3.0006633981258135" x2="-4.200307397845643" y2="-5.000455571297981"/>
	<line stroke="white" stroke-width="0.01"  x1="0.4998390059159071" y1="-3.0006633981258135" x2="5.899580610849864" y2="-3.9991086169679604"/>
	<line stroke="white" stroke-width="0.01"  x1="0.4998390059159071" y1="-3.0006633981258135" x2="-4.200307397845643" y2="-5.000455571297981"/>
	<line stroke="white" stroke-width="0.01"  x1="-4.200307397845643" y1="-5.000455571297981" x2="5.899580610849864" y2="-3.9991086169679604"/>
	<line stroke="white" stroke-width="0.01"  x1="-4.200307397845643" y1="-5.000455571297981" x2="5.899580610849864" y2="-3.9991086169679604"/>
	<line stroke="white" stroke-width="0.01"  x1="-0.4996216322330263" y1="0.7000368307197532" x2="-0.00034369976642193567" y2="0.29918358016648666"/>
	<line stroke="white" stroke-width="0.01"  x1="-0.4996216322330263" y1="0.7000368307197532" x2="-0.00034369976642193567" y2="0.29918358016648666"/>
	<line stroke="white" stroke-width="0.01"  x1="0.9995161227001842" y1="1.0002004345240583" x2="5.899580610849864" y2="-3.9991086169679604"/>
	<line stroke="white" stroke-width="0.01"  x1="0.9995161227001842" y1="1.0002004345240583" x2="5.899580610849864" y2="-3.9991086169679604"/>
	<line stroke="white" stroke-width="0.01"  x1="0.9995161227001842" y1="1.0002004345240583" x2="-0.00034369976642193567" y2="0.29918358016648666"/>
	<line stroke="white" stroke-width="0.01"  x1="0.9995161227001842" y1="1.0002004345240583" x2="1.0007091920752216" y2="1.300904043666204"/>
	<line stroke="white" stroke-width="0.01"  x1="0.9995161227001842" y1="1.0002004345240583" x2="7.99933248737114" y2="0.0009123372814423703"/>
	<line stroke="white" stroke-width="0.01"  x1="0.9995161227001842" y1="1.0002004345240583" x2="-0.00034369976642193567" y2="0.29918358016648666"/>
	<line stroke="white" stroke-width="0.01"  x1="0.9995161227001842" y1="1.0002004345240583" x2="1.0007091920752216" y2="1.300904043666204"/>
	<line stroke="white" stroke-width="0.01"  x1="0.9995161227001842" y1="1.0002004345240583" x2="7.99933248737114" y2="0.0009123372814423703"/>
	<line stroke="white" stroke-width="0.01"  x1="6.5005381759404" y1="2.0005489849100764" x2="7.99933248737114" y2="0.0009123372814423703"/>
	<line stroke="white" stroke-width="0.01"  x1="6.5005381759404" y1="2.0005489849100764" x2="7.99933248737114" y2="0.0009123372814423703"/>
	<line stroke="white" stroke-width="0.01"  x1="5.899580610849864" y1="-3.9991086169679604" x2="1.0007091920752216" y2="1.300904043666204"/>
	<line stroke="white" stroke-width="0.01"  x1="5.899580610849864" y1="-3.9991086169679604" x2="7.99933248737114" y2="0.0009123372814423703"/>
	<line stroke="white" stroke-width="0.01"  x1="5.899580610849864" y1="-3.9991086169679604" x2="1.0007091920752216" y2="1.300904043666204"/>
	<line stroke="white" stroke-width="0.01"  x1="5.899580610849864" y1="-3.9991086169679604" x2="7.99933248737114" y2="0.0009123372814423703"/>
	<line stroke="white" stroke-width="0.01"  x1="-0.00034369976642193567" y1="0.29918358016648666" x2="1.0007091920752216" y2="1.300904043666204"/>
	<line stroke="white" stroke-width="0.01"  x1="-0.00034369976642193567" y1="0.29918358016648666" x2="1.0007091920752216" y2="1.300904043666204"/>
	<line stroke="white" stroke-width="0.01"  x1="7.99933248737114" y1="0.0009123372814423703" x2="1.0007091920752216" y2="1.300904043666204"/>
	<line stroke="white" stroke-width="0.01"  x1="7.99933248737114" y1="0.0009123372814423703" x2="1.0007091920752216" y2="1.300904043666204"/>
	<polyline fill="none" stroke="red" stroke-width="0.05"  points="7.99933248737114,0.0009123372814423703 0.9995161227001842,1.0002004345240583 -0.00034369976642193567,0.29918358016648666 -0.4996216322330263,0.7000368307197532 -1.5000250826444907,-1.9991140240576797 "/>
</svg>
