<svg width="300.0109269999934" height="149.98969658232943" viewBox="-8.401050324892227,-5.99990766077703,18.000655619999602,8.999381794939767" xmlns="http://www.w3.org/2000/svg">
	<polygon fill="#FF4444"  points="-0.4995277540965135,0.7004381496892418 -0.7501374087358751,-1.9008863127634192 5.9000866751368095,-3.999993946065338 3.000276052158932,-1.5001921569719026 1.000547499689829,1.0006367960043554 -0.0005093802672941909,-0.00014815808004999242 "/>
	<polygon fill="#44FF44"  points="-0.000324866767350612,0.2995566526078264 1.0005800940334435,1.2999756615511846 7.999671079256148,0.00029802221640373537 6.499300314662775,1.9998317814129662 -2.199169316988694,2.4995617784689466 "/>
	<polygon fill="#4444FF"  points="-7.0008752707435224,-2.0002822580604893 -4.199410614075938,-4.999923050647525 0.49998645221078275,-2.999101951377992 -1.499356333287554,-1.9996827878157344 -1.000087077386956,-0.000004461995589155165 "/>
	<line stroke="white" stroke-width="0.01"  x1="3.000276052158932" y1="-1.5001921569719026" x2="7.999671079256148" y2="0.00029802221640373537"/>
	<line stroke="white" stroke-width="0.01"  x1="3.000276052158932" y1="-1.5001921569719026" x2="1.0005800940334435" y2="1.2999756615511846"/>
	<line stroke="white" stroke-width="0.01"  x1="3.000276052158932" y1="-1.5001921569719026" x2="1.000547499689829" y2="1.0006367960043554"/>
	<line stroke="white" stroke-width="0.01"  x1="3.000276052158932" y1="-1.5001921569719026" x2="5.9000866751368095" y2="-3.999993946065338"/>
	<line stroke="white" stroke-width="0.01"  x1="-0.7501374087358751" y1="-1.9008863127634192" x2="-0.4995277540965135" y2="0.7004381496892418"/>
	<line stroke="white" stroke-width="0.01"  x1="-0.7501374087358751" y1="-1.9008863127634192" x2="-1.000087077386956" y2="-0.000004461995589155165"/>
	<line stroke="white" stroke-width="0.01"  x1="-0.7501374087358751" y1="-1.9008863127634192" x2="-1.499356333287554" y2="-1.9996827878157344"/>
	<line stroke="white" stroke-width="0.01"  x1="-0.7501374087358751" y1="-1.9008863127634192" x2="0.49998645221078275" y2="-2.999101951377992"/>
	<line stroke="white" stroke-width="0.01"  x1="-0.7501374087358751" y1="-1.9008863127634192" x2="5.9000866751368095" y2="-3.999993946065338"/>
	<line stroke="white" stroke-width="0.01"  x1="-4.199410614075938" y1="-4.999923050647525" x2="5.9000866751368095" y2="-3.999993946065338"/>
	<line stroke="white" stroke-width="0.01"  x1="-4.199410614075938" y1="-4.999923050647525" x2="0.49998645221078275" y2="-2.999101951377992"/>
	<line stroke="white" stroke-width="0.01"  x1="-4.199410614075938" y1="-4.999923050647525" x2="-7.0008752707435224" y2="-2.0002822580604893"/>
	<line stroke="white" stroke-width="0.01"  x1="-2.199169316988694" y1="2.4995617784689466" x2="-7.0008752707435224" y2="-2.0002822580604893"/>
	<line stroke="white" stroke-width="0.01"  x1="-2.199169316988694" y1="2.4995617784689466" x2="-1.000087077386956" y2="-0.000004461995589155165"/>
	<line stroke="white" stroke-width="0.01"  x1="-2.199169316988694" y1="2.4995617784689466" x2="-0.4995277540965135" y2="0.7004381496892418"/>
	<line stroke="white" stroke-width="0.01"  x1="-2.199169316988694" y1="2.4995617784689466" x2="-0.000324866767350612" y2="0.2995566526078264"/>
	<line stroke="white" stroke-width="0.01"  x1="-2.199169316988694" y1="2.4995617784689466" x2="6.499300314662775" y2="1.9998317814129662"/>
	<line stroke="white" stroke-width="0.01"  x1="-0.4995277540965135" y1="0.7004381496892418" x2="-7.0008752707435224" y2="-2.0002822580604893"/>
	<line stroke="white" stroke-width="0.01"  x1="-0.4995277540965135" y1="0.7004381496892418" x2="-1.000087077386956" y2="-0.000004461995589155165"/>
	<line stroke="white" stroke-width="0.01"  x1="-0.4995277540965135" y1="0.7004381496892418" x2="-1.499356333287554" y2="-1.9996827878157344"/>
	<line stroke="white" stroke-width="0.01"  x1="-0.4995277540965135" y1="0.7004381496892418" x2="-0.0005093802672941909" y2="-0.00014815808004999242"/>
	<line stroke="white" stroke-width="0.01"  x1="-0.4995277540965135" y1="0.7004381496892418" x2="-0.000324866767350612" y2="0.2995566526078264"/>
	<line stroke="white" stroke-width="0.01"  x1="6.499300314662775" y1="1.9998317814129662" x2="7.999671079256148" y2="0.00029802221640373537"/>
	<line stroke="white" stroke-width="0.01"  x1="0.49998645221078275" y1="-2.999101951377992" x2="-1.499356333287554" y2="-1.9996827878157344"/>
	<line stroke="white" stroke-width="0.01"  x1="0.49998645221078275" y1="-2.999101951377992" x2="5.9000866751368095" y2="-3.999993946065338"/>
	<line stroke="white" stroke-width="0.01"  x1="-1.499356333287554" y1="-1.9996827878157344" x2="-1.000087077386956" y2="-0.000004461995589155165"/>
	<line stroke="white" stroke-width="0.01"  x1="-1.499356333287554" y1="-1.9996827878157344" x2="5.9000866751368095" y2="-3.999993946065338"/>
	<line stroke="white" stroke-width="0.01"  x1="7.999671079256148" y1="0.00029802221640373537" x2="1.0005800940334435" y2="1.2999756615511846"/>
	<line stroke="white" stroke-width="0.01"  x1="7.999671079256148" y1="0.00029802221640373537" x2="1.000547499689829" y2="1.0006367960043554"/>
	<line stroke="white" stroke-width="0.01"  x1="7.999671079256148" y1="0.00029802221640373537" x2="5.9000866751368095" y2="-3.999993946065338"/>
	<line stroke="white" stroke-width="0.01"  x1="-0.0005093802672941909" y1="-0.00014815808004999242" x2="1.000547499689829" y2="1.0006367960043554"/>
	<line stroke="white" stroke-width="0.01"  x1="-0.0005093802672941909" y1="-0.00014815808004999242" x2="1.0005800940334435" y2="1.2999756615511846"/>
	<line stroke="white" stroke-width="0.01"  x1="-0.0005093802672941909" y1="-0.00014815808004999242" x2="-0.000324866767350612" y2="0.2995566526078264"/>
	<line stroke="white" stroke-width="0.01"  x1="1.0005800940334435" y1="1.2999756615511846" x2="-0.000324866767350612" y2="0.2995566526078264"/>
	<line stroke="white" stroke-width="0.01"  x1="1.0005800940334435" y1="1.2999756615511846" x2="1.000547499689829" y2="1.0006367960043554"/>
	<line stroke="white" stroke-width="0.01"  x1="1.0005800940334435" y1="1.2999756615511846" x2="5.9000866751368095" y2="-3.999993946065338"/>
	<line stroke="white" stroke-width="0.01"  x1="-1.000087077386956" y1="-0.000004461995589155165" x2="-7.0008752707435224" y2="-2.0002822580604893"/>
	<line stroke="white" stroke-width="0.01"  x1="5.9000866751368095" y1="-3.999993946065338" x2="1.000547499689829" y2="1.0006367960043554"/>
	<line stroke="white" stroke-width="0.01"  x1="-0.000324866767350612" y1="0.2995566526078264" x2="1.000547499689829" y2="1.0006367960043554"/>
	<polyline fill="none" stroke="red" stroke-width="0.05"  points="7.999671079256148,0.00029802221640373537 1.000547499689829,1.0006367960043554 -0.000324866767350612,0.2995566526078264 -0.4995277540965135,0.7004381496892418 -1.499356333287554,-1.9996827878157344 "/>
</svg>
