<svg width="62" height="118" viewBox="0,0,3.1,5.9" xmlns="http://www.w3.org/2000/svg">
	<polygon fill="#550000"  points="0,0 1,0.2 0.5,1 "/>
	<polygon fill="#005500"  points="2,3 3.1,1.1 2.5,5.9 "/>
	<line stroke="white" stroke-width="0.01"  x1="0" y1="0" x2="1" y2="0.2"/>
	<line stroke="white" stroke-width="0.01"  x1="0" y1="0" x2="0.5" y2="1"/>
	<line stroke="white" stroke-width="0.01"  x1="0" y1="0" x2="2.5" y2="5.9"/>
	<line stroke="white" stroke-width="0.01"  x1="1" y1="0.2" x2="2" y2="3"/>
	<line stroke="white" stroke-width="0.01"  x1="1" y1="0.2" x2="2.5" y2="5.9"/>
	<line stroke="white" stroke-width="0.01"  x1="1" y1="0.2" x2="0.5" y2="1"/>
	<line stroke="white" stroke-width="0.01"  x1="2" y1="3" x2="2.5" y2="5.9"/>
	<line stroke="white" stroke-width="0.01"  x1="2" y1="3" x2="3.1" y2="1.1"/>
	<line stroke="white" stroke-width="0.01"  x1="0.5" y1="1" x2="2" y2="3"/>
	<line stroke="white" stroke-width="0.01"  x1="0.5" y1="1" x2="2.5" y2="5.9"/>
	<line stroke="white" stroke-width="0.01"  x1="3.1" y1="1.1" x2="2.5" y2="5.9"/>
	<line stroke="white" stroke-width="0.01"  x1="3.1" y1="1.1" x2="1" y2="0.2"/>
</svg>
