<svg width="260" height="240" viewBox="-3,-3.000000000000001,13,12" xmlns="http://www.w3.org/2000/svg" style="background: ">
	<path fill="none" stroke="blue" stroke-width="0.05"  d="M 0 0 A 1.5 1.5 0 0 1 1.2000000000000002 0.6000000000000001"/>
	<line fill="none" stroke="blue" stroke-width="0.05"  x1="1.2000000000000002" y1="0.6000000000000001" x2="1.8000000000000003" y2="1.4000000000000004"/>
	<path fill="none" stroke="blue" stroke-width="0.05"  d="M 1.8000000000000003 1.4000000000000004 A 1.5 1.5 0 0 0 3.0000000000000004 2"/>
	<line fill="none" stroke="blue" stroke-width="0.05"  x1="3.0000000000000004" y1="2" x2="3.0000000000000004" y2="2"/>
	<line fill="none" stroke="blue" stroke-width="0.05"  x1="3.0000000000000004" y1="2" x2="3.0000000000000004" y2="2"/>
	<path fill="none" stroke="red" stroke-width="0.05"  d="M 4 2 A 1.5 1.5 0 0 0 5.199999999999999 1.3999999999999997"/>
	<line fill="none" stroke="red" stroke-width="0.05"  x1="5.199999999999999" y1="1.3999999999999997" x2="5.799999999999999" y2="0.5999999999999993"/>
	<path fill="none" stroke="red" stroke-width="0.05"  d="M 5.799999999999999 0.5999999999999993 A 1.5 1.5 0 0 1 6.999999999999999 -0.0000000000000008881784197001252"/>
	<line fill="none" stroke="red" stroke-width="0.05"  x1="6.999999999999999" y1="-0.0000000000000008881784197001252" x2="6.999999999999999" y2="-0.0000000000000008881784197001252"/>
	<line fill="none" stroke="red" stroke-width="0.05"  x1="6.999999999999999" y1="-0.0000000000000008881784197001252" x2="6.999999999999999" y2="-0.0000000000000008881784197001252"/>
	<path fill="none" stroke="green" stroke-width="0.05"  d="M 0 4 A 1 1 0 0 1 0.9999999999999999 3"/>
	<line fill="none" stroke="green" stroke-width="0.05"  x1="0.9999999999999999" y1="3" x2="2" y2="3"/>
	<path fill="none" stroke="green" stroke-width="0.05"  d="M 2 3 A 1 1 0 0 1 3 4"/>
	<line fill="none" stroke="green" stroke-width="0.05"  x1="3" y1="4" x2="3" y2="4"/>
	<line fill="none" stroke="green" stroke-width="0.05"  x1="3" y1="4" x2="3" y2="4"/>
	<path fill="none" stroke="orange" stroke-width="0.05"  d="M 4 3 A 1 1 0 0 0 5 4"/>
	<line fill="none" stroke="orange" stroke-width="0.05"  x1="5" y1="4" x2="6" y2="4"/>
	<path fill="none" stroke="orange" stroke-width="0.05"  d="M 6 4 A 1 1 0 0 0 7 3"/>
	<line fill="none" stroke="orange" stroke-width="0.05"  x1="7" y1="3" x2="7" y2="3"/>
	<line fill="none" stroke="orange" stroke-width="0.05"  x1="7" y1="3" x2="7" y2="3"/>
	<path fill="none" stroke="purple" stroke-width="0.05"  d="M 1 5 A 1 1 0 0 1 0.7500000000000001 5.6614378277661475"/>
	<path fill="none" stroke="purple" stroke-width="0.05"  d="M 0.7500000000000001 5.6614378277661475 A 1 1 0 1 0 2.250000000000001 5.6614378277661475"/>
	<path fill="none" stroke="purple" stroke-width="0.05"  d="M 2.250000000000001 5.6614378277661475 A 1 1 0 0 1 2.000000000000001 5"/>
	<line fill="none" stroke="purple" stroke-width="0.05"  x1="2.000000000000001" y1="5" x2="2.000000000000001" y2="5"/>
	<line fill="none" stroke="purple" stroke-width="0.05"  x1="2.000000000000001" y1="5" x2="2.000000000000001" y2="5"/>
	<path fill="none" stroke="turquoise" stroke-width="0.05"  d="M 5 7 A 1 1 0 0 0 4.75 6.3385621722338525"/>
	<path fill="none" stroke="turquoise" stroke-width="0.05"  d="M 4.75 6.3385621722338525 A 1 1 0 1 1 6.25 6.3385621722338525"/>
	<path fill="none" stroke="turquoise" stroke-width="0.05"  d="M 6.25 6.3385621722338525 A 1 1 0 0 0 6 7.000000000000001"/>
	<line fill="none" stroke="turquoise" stroke-width="0.05"  x1="6" y1="7.000000000000001" x2="6" y2="7.000000000000001"/>
	<line fill="none" stroke="turquoise" stroke-width="0.05"  x1="6" y1="7.000000000000001" x2="6" y2="7.000000000000001"/>
	<line stroke="black" stroke-width="0.05"  x1="0" y1="0" x2="0.5" y2="0"/>
	<line stroke="black" stroke-width="0.05"  x1="0.5" y1="0" x2="0.3585786437626905" y2="0.14142135623730953"/>
	<line stroke="black" stroke-width="0.05"  x1="0.5" y1="0" x2="0.35857864376269044" y2="-0.1414213562373095"/>
	<line stroke="black" stroke-width="0.05"  x1="3" y1="2" x2="3.5" y2="2"/>
	<line stroke="black" stroke-width="0.05"  x1="3.5" y1="2" x2="3.3585786437626903" y2="2.1414213562373097"/>
	<line stroke="black" stroke-width="0.05"  x1="3.5" y1="2" x2="3.3585786437626903" y2="1.8585786437626906"/>
	<line stroke="black" stroke-width="0.05"  x1="4" y1="2" x2="4.5" y2="2"/>
	<line stroke="black" stroke-width="0.05"  x1="4.5" y1="2" x2="4.358578643762691" y2="2.1414213562373097"/>
	<line stroke="black" stroke-width="0.05"  x1="4.5" y1="2" x2="4.358578643762691" y2="1.8585786437626906"/>
	<line stroke="black" stroke-width="0.05"  x1="7" y1="0" x2="7.5" y2="0"/>
	<line stroke="black" stroke-width="0.05"  x1="7.5" y1="0" x2="7.358578643762691" y2="0.14142135623730953"/>
	<line stroke="black" stroke-width="0.05"  x1="7.5" y1="0" x2="7.358578643762691" y2="-0.1414213562373095"/>
	<line stroke="black" stroke-width="0.05"  x1="0" y1="4" x2="-0.00000000000000009184850993605148" y2="3.5"/>
	<line stroke="black" stroke-width="0.05"  x1="-0.00000000000000009184850993605148" y1="3.5" x2="0.14142135623730945" y2="3.6414213562373097"/>
	<line stroke="black" stroke-width="0.05"  x1="-0.00000000000000009184850993605148" y1="3.5" x2="-0.14142135623730945" y2="3.6414213562373097"/>
	<line stroke="black" stroke-width="0.05"  x1="3" y1="4" x2="3" y2="4.5"/>
	<line stroke="black" stroke-width="0.05"  x1="3" y1="4.5" x2="2.8585786437626903" y2="4.358578643762691"/>
	<line stroke="black" stroke-width="0.05"  x1="3" y1="4.5" x2="3.1414213562373097" y2="4.358578643762691"/>
	<line stroke="black" stroke-width="0.05"  x1="4" y1="3" x2="4" y2="3.5"/>
	<line stroke="black" stroke-width="0.05"  x1="4" y1="3.5" x2="3.8585786437626903" y2="3.3585786437626903"/>
	<line stroke="black" stroke-width="0.05"  x1="4" y1="3.5" x2="4.141421356237309" y2="3.3585786437626903"/>
	<line stroke="black" stroke-width="0.05"  x1="7" y1="3" x2="7" y2="2.5"/>
	<line stroke="black" stroke-width="0.05"  x1="7" y1="2.5" x2="7.141421356237309" y2="2.6414213562373097"/>
	<line stroke="black" stroke-width="0.05"  x1="7" y1="2.5" x2="6.858578643762691" y2="2.6414213562373097"/>
	<line stroke="black" stroke-width="0.05"  x1="1" y1="5" x2="1" y2="5.5"/>
	<line stroke="black" stroke-width="0.05"  x1="1" y1="5.5" x2="0.8585786437626904" y2="5.358578643762691"/>
	<line stroke="black" stroke-width="0.05"  x1="1" y1="5.5" x2="1.1414213562373094" y2="5.358578643762691"/>
	<line stroke="black" stroke-width="0.05"  x1="2" y1="5" x2="2" y2="4.5"/>
	<line stroke="black" stroke-width="0.05"  x1="2" y1="4.5" x2="2.1414213562373097" y2="4.641421356237309"/>
	<line stroke="black" stroke-width="0.05"  x1="2" y1="4.5" x2="1.8585786437626906" y2="4.641421356237309"/>
	<line stroke="black" stroke-width="0.05"  x1="5" y1="7" x2="5" y2="6.5"/>
	<line stroke="black" stroke-width="0.05"  x1="5" y1="6.5" x2="5.141421356237309" y2="6.641421356237309"/>
	<line stroke="black" stroke-width="0.05"  x1="5" y1="6.5" x2="4.858578643762691" y2="6.641421356237309"/>
	<line stroke="black" stroke-width="0.05"  x1="6" y1="7" x2="6" y2="7.5"/>
	<line stroke="black" stroke-width="0.05"  x1="6" y1="7.5" x2="5.858578643762691" y2="7.358578643762691"/>
	<line stroke="black" stroke-width="0.05"  x1="6" y1="7.5" x2="6.141421356237309" y2="7.358578643762691"/>
</svg>
